SplineFontDB: 3.2
FontName: Giphurs-Thin
FullName: Giphurs Thin
FamilyName: Giphurs
Weight: Thin
Copyright: Copyright 2023 The Giphurs Project Authors (https://github.com/Corne2Plum3/Giphurs)
UComments: "2023-01-20: Finally found a name for the font lol+AAoA-2022-06-21: Created with FontForge (http://fontforge.org)"
Version: 0.950
ItalicAngle: 0
UnderlinePosition: -204
UnderlineWidth: 102
Ascent: 1668
Descent: 380
InvalidEm: 0
UFOAscent: 1668
UFODescent: -380
LayerCount: 2
Layer: 0 0 "Arri+AOgA-re" 1
Layer: 1 0 "public.default" 0 "glyphs"
StyleMap: 0x0040
FSType: 0
OS2Version: 0
OS2_WeightWidthSlopeOnly: 0
OS2_UseTypoMetrics: 0
CreationTime: 1655845567
ModificationTime: 1720296397
PfmFamily: 17
TTFWeight: 100
TTFWidth: 5
LineGap: 0
VLineGap: 0
OS2TypoAscent: 2218
OS2TypoAOffset: 0
OS2TypoDescent: -578
OS2TypoDOffset: 0
OS2TypoLinegap: 0
OS2WinAscent: 2218
OS2WinAOffset: 0
OS2WinDescent: 578
OS2WinDOffset: 0
HheadAscent: 2218
HheadAOffset: 0
HheadDescent: -578
HheadDOffset: 0
OS2CapHeight: 1480
OS2XHeight: 1040
OS2Vendor: 'PfEd'
Lookup: 1 0 0 "c2sc_CapitalesverspetitescapitalesdansLatinlookup0" { "c2sc_CapitalesverspetitescapitalesdansLatinlookup0 subtable"  } ['c2sc' ('latn' <'dflt' > 'grek' <'dflt' > ) ]
Lookup: 1 0 0 "smcpBasdecasseverspetitescapitalesdansLatinlookup0" { "smcpBasdecasseverspetitescapitalesdansLatinlookup0 subtable"  } ['smcp' ('latn' <'dflt' > 'grek' <'dflt' > ) ]
Lookup: 1 0 0 "cv01Alternativedigit11" { "cv01Alternativedigit11 subtable"  } ['cv01' ('latn' <'dflt' > 'grek' <'dflt' > 'cyrl' <'dflt' > 'copt' <'dflt' > 'DFLT' <'dflt' > ) ]
Lookup: 1 0 0 "cv02Alternativedigit21" { "cv02Alternativedigit21 subtable"  } ['cv02' ('latn' <'dflt' > 'grek' <'dflt' > 'cyrl' <'dflt' > 'copt' <'dflt' > 'DFLT' <'dflt' > ) ]
Lookup: 1 0 0 "cv03Alternativedigit31" { "cv03Alternativedigit31 subtable"  } ['cv03' ('latn' <'dflt' > 'grek' <'dflt' > 'cyrl' <'dflt' > 'copt' <'dflt' > 'DFLT' <'dflt' > ) ]

StartChar: o
Encoding: 111 111 0
GlifName: o
Width: 1156
VWidth: 0
GlyphClass: 2
Flags: HW
AnchorPoint: "top_center" 578 1040 basechar 0
AnchorPoint: "bottom_center" 578 0 basechar 0
AnchorPoint: "top_right" 974 1040 basechar 0
AnchorPoint: "bottom_right" 667 0 basechar 0
LayerCount: 2
Fore
SplineSet
185 520 m 256
 185 184 410 30 578 30 c 256
 746 30 971 184 971 520 c 256
 971 856 746 1010 578 1010 c 256
 410 1010 185 856 185 520 c 256
140 520 m 256
 140 832 331 1050 578 1050 c 256
 825 1050 1016 832 1016 520 c 256
 1016 208 825 -10 578 -10 c 256
 331 -10 140 208 140 520 c 256
EndSplineSet
Substitution2: "smcpBasdecasseverspetitescapitalesdansLatinlookup0 subtable" o.sc
EndChar

StartChar: n
Encoding: 110 110 1
GlifName: n
Width: 1130
VWidth: 0
GlyphClass: 2
Flags: HW
AnchorPoint: "top_center" 565 1040 basechar 0
AnchorPoint: "bottom_center" 565 0 basechar 0
LayerCount: 2
Fore
SplineSet
905 0 m 257
 905 572 l 258
 905 791 835 1010 565 1010 c 256
 295 1010 225 791 225 572 c 258
 225 0 l 257
 180 0 l 257
 180 1040 l 257
 225 1040 l 257
 225 820 l 257
 262 927 345 1050 575 1050 c 256
 813 1050 950 892 950 572 c 257
 950 0 l 257
 905 0 l 257
EndSplineSet
Substitution2: "smcpBasdecasseverspetitescapitalesdansLatinlookup0 subtable" n.sc
EndChar

StartChar: u
Encoding: 117 117 2
GlifName: u
Width: 1130
VWidth: 0
GlyphClass: 2
Flags: HW
AnchorPoint: "bottom_right" 962 0 basechar 0
AnchorPoint: "top_right" 950 1040 basechar 0
AnchorPoint: "top_center" 565 1040 basechar 0
AnchorPoint: "bottom_center" 565 0 basechar 0
LayerCount: 2
Fore
SplineSet
225 1040 m 257
 225 468 l 258
 225 249 295 30 565 30 c 256
 835 30 905 249 905 468 c 258
 905 1040 l 257
 950 1040 l 257
 950 208 l 257
 950 110 962 0 962 0 c 257
 917 0 l 257
 917 0 905 110 905 220 c 257
 868 113 785 -10 555 -10 c 256
 317 -10 180 148 180 468 c 257
 180 1040 l 257
 225 1040 l 257
EndSplineSet
Substitution2: "ss04StyleSet4lookups56 subtable" u.cv25
Substitution2: "cv25CharacterVariants25lookups66 subtable" u.cv25
Substitution2: "smcpBasdecasseverspetitescapitalesdansLatinlookup0 subtable" u.sc
EndChar

StartChar: d
Encoding: 100 100 3
GlifName: d
Width: 1152
VWidth: 0
GlyphClass: 2
Flags: HW
AnchorPoint: "top_right" 972 1480 basechar 0
AnchorPoint: "bottom_cedilla" 560 -20 basechar 0
AnchorPoint: "top_center" 949 1380 basechar 0
AnchorPoint: "bottom_center" 560 0 basechar 0
LayerCount: 2
Fore
SplineSet
935 520 m 257
 935 856 735 1010 560 1010 c 256
 385 1010 185 856 185 520 c 256
 185 184 385 30 560 30 c 256
 735 30 935 184 935 520 c 257
972 208 m 257
 972 110 984 0 984 0 c 257
 939 0 l 257
 939 0 927 110 927 260 c 257
 896 144 770 -10 560 -10 c 256
 313 -10 140 208 140 520 c 256
 140 832 313 1050 560 1050 c 256
 760 1050 896 896 927 780 c 257
 927 1480 l 257
 972 1480 l 257
 972 208 l 257
EndSplineSet
Substitution2: "smcpBasdecasseverspetitescapitalesdansLatinlookup0 subtable" d.sc
EndChar

StartChar: b
Encoding: 98 98 4
GlifName: b
Width: 1152
VWidth: 0
GlyphClass: 2
Flags: HW
AnchorPoint: "top_center" 203 1380 basechar 0
AnchorPoint: "bottom_center" 592 0 basechar 0
LayerCount: 2
Fore
SplineSet
217 520 m 257
 217 184 417 30 592 30 c 256
 767 30 967 184 967 520 c 256
 967 856 767 1010 592 1010 c 256
 417 1010 217 856 217 520 c 257
180 208 m 257
 180 1480 l 257
 225 1480 l 257
 225 780 l 257
 256 896 392 1050 592 1050 c 256
 839 1050 1012 832 1012 520 c 256
 1012 208 839 -10 592 -10 c 256
 382 -10 256 144 225 260 c 257
 225 0 l 257
 180 0 l 257
 180 0 180 110 180 208 c 257
EndSplineSet
Substitution2: "smcpBasdecasseverspetitescapitalesdansLatinlookup0 subtable" b.sc
EndChar

StartChar: p
Encoding: 112 112 5
GlifName: p
Width: 1152
VWidth: 0
GlyphClass: 2
Flags: HW
AnchorPoint: "top_center" 592 1040 basechar 0
AnchorPoint: "bottom_center" 592 0 basechar 0
LayerCount: 2
Fore
SplineSet
217 520 m 257
 217 184 417 30 592 30 c 256
 767 30 967 184 967 520 c 256
 967 856 767 1010 592 1010 c 256
 417 1010 217 856 217 520 c 257
180 832 m 257
 180 930 180 1040 180 1040 c 257
 225 1040 l 257
 225 780 l 257
 256 896 382 1050 592 1050 c 256
 839 1050 1012 832 1012 520 c 256
 1012 208 839 -10 592 -10 c 256
 392 -10 256 144 225 260 c 257
 225 -440 l 257
 180 -440 l 257
 180 832 l 257
EndSplineSet
Substitution2: "smcpBasdecasseverspetitescapitalesdansLatinlookup0 subtable" p.sc
EndChar

StartChar: q
Encoding: 113 113 6
GlifName: q
Width: 1152
VWidth: 0
GlyphClass: 2
Flags: HW
AnchorPoint: "bottom_center" 560 0 basechar 0
AnchorPoint: "top_center" 560 1040 basechar 0
LayerCount: 2
Fore
SplineSet
935 520 m 257
 935 856 735 1010 560 1010 c 256
 385 1010 185 856 185 520 c 256
 185 184 385 30 560 30 c 256
 735 30 935 184 935 520 c 257
972 832 m 257
 972 -440 l 257
 927 -440 l 257
 927 260 l 257
 896 144 760 -10 560 -10 c 256
 313 -10 140 208 140 520 c 256
 140 832 313 1050 560 1050 c 256
 770 1050 896 896 927 780 c 257
 927 1040 l 257
 972 1040 l 257
 972 1040 972 930 972 832 c 257
EndSplineSet
Substitution2: "smcpBasdecasseverspetitescapitalesdansLatinlookup0 subtable" q.sc
EndChar

StartChar: h
Encoding: 104 104 7
GlifName: h
Width: 1130
VWidth: 0
GlyphClass: 2
Flags: HW
AnchorPoint: "bottom_cedilla" 203 -20 basechar 0
AnchorPoint: "top_center" 203 1380 basechar 0
AnchorPoint: "bottom_center" 565 0 basechar 0
LayerCount: 2
Fore
SplineSet
905 0 m 257
 905 572 l 258
 905 791 835 1010 565 1010 c 256
 295 1010 225 791 225 572 c 258
 225 0 l 257
 180 0 l 257
 180 1480 l 257
 225 1480 l 257
 225 820 l 257
 262 927 345 1050 575 1050 c 256
 813 1050 950 892 950 572 c 257
 950 0 l 257
 905 0 l 257
EndSplineSet
Substitution2: "smcpBasdecasseverspetitescapitalesdansLatinlookup0 subtable" h.sc
EndChar

StartChar: m
Encoding: 109 109 8
GlifName: m
Width: 1694
VWidth: 0
GlyphClass: 2
Flags: HW
AnchorPoint: "top_center" 847 1040 basechar 0
AnchorPoint: "bottom_center" 847 0 basechar 0
LayerCount: 2
Fore
SplineSet
824 0 m 257
 824 572 l 258
 824 791 764 1010 524 1010 c 256
 284 1010 224 791 224 572 c 258
 224 0 l 257
 180 0 l 257
 180 1040 l 257
 224 1040 l 257
 224 820 l 257
 251 927 324 1050 534 1050 c 256
 700 1050 814 951 854 751 c 257
 888 950 981 1050 1180 1050 c 256
 1390 1050 1514 892 1514 572 c 258
 1514 0 l 257
 1470 0 l 257
 1470 572 l 258
 1470 791 1400 1010 1160 1010 c 256
 940 1010 870 791 870 572 c 258
 870 0 l 257
 824 0 l 257
EndSplineSet
Substitution2: "smcpBasdecasseverspetitescapitalesdansLatinlookup0 subtable" m.sc
EndChar

StartChar: e
Encoding: 101 101 9
GlifName: e
Width: 1156
VWidth: 0
GlyphClass: 2
Flags: HW
AnchorPoint: "bottom_cedilla" 578 -20 basechar 0
AnchorPoint: "top_center" 578 1040 basechar 0
AnchorPoint: "bottom_center" 578 0 basechar 0
AnchorPoint: "bottom_right" 681 0 basechar 0
LayerCount: 2
Fore
SplineSet
165 540 m 257
 999 540 l 257
 971 500 l 257
 165 500 l 257
 165 540 l 257
952 274 m 257
 991 252 l 257
 917 90 775 -10 578 -10 c 256
 331 -10 140 208 140 520 c 256
 140 832 331 1050 578 1050 c 256
 825 1050 1016 832 1016 520 c 256
 1016 513 1016 507 1016 500 c 257
 971 500 l 257
 971 507 971 513 971 520 c 256
 971 856 746 1010 578 1010 c 256
 410 1010 185 856 185 520 c 256
 185 184 410 30 578 30 c 256
 724 30 876 108 952 274 c 257
EndSplineSet
Substitution2: "smcpBasdecasseverspetitescapitalesdansLatinlookup0 subtable" e.sc
EndChar

StartChar: c
Encoding: 99 99 10
GlifName: c
Width: 1101
VWidth: 0
GlyphClass: 2
Flags: HW
AnchorPoint: "bottom_cedilla" 578 -20 basechar 0
AnchorPoint: "top_center" 578 1040 basechar 0
AnchorPoint: "bottom_center" 578 0 basechar 0
LayerCount: 2
Fore
SplineSet
185 520 m 256
 185 184 410 30 578 30 c 256
 698 30 846 108 922 274 c 257
 961 252 l 257
 887 90 745 -10 578 -10 c 256
 331 -10 140 208 140 520 c 256
 140 832 331 1050 578 1050 c 256
 745 1050 887 950 961 788 c 257
 922 766 l 257
 846 932 698 1010 578 1010 c 256
 410 1010 185 856 185 520 c 256
EndSplineSet
Substitution2: "smcpBasdecasseverspetitescapitalesdansLatinlookup0 subtable" c.sc
EndChar

StartChar: f
Encoding: 102 102 11
GlifName: f
Width: 772
VWidth: 0
GlyphClass: 2
Flags: HW
AnchorPoint: "bottom_center" 336 0 basechar 0
AnchorPoint: "top_center" 478 1380 basechar 0
LayerCount: 2
Fore
SplineSet
688 1415 m 257
 649 1443 595 1450 557 1450 c 256
 467 1450 359 1420 359 1180 c 258
 359 1040 l 257
 665 1040 l 257
 665 1000 l 257
 359 1000 l 257
 359 0 l 257
 314 0 l 257
 314 1000 l 257
 70 1000 l 257
 70 1040 l 257
 314 1040 l 257
 314 1180 l 258
 314 1380 381 1490 557 1490 c 256
 606 1490 662 1476 702 1458 c 257
 688 1415 l 257
EndSplineSet
Substitution2: "ss08StyleSet8lookups60 subtable" f.ss08
Substitution2: "smcpBasdecasseverspetitescapitalesdansLatinlookup0 subtable" f.sc
EndChar

StartChar: r
Encoding: 114 114 12
GlifName: r
Width: 777
VWidth: 0
GlyphClass: 2
Flags: HW
AnchorPoint: "top_center" 475 1040 basechar 0
AnchorPoint: "bottom_center" 206 0 basechar 0
LayerCount: 2
Fore
SplineSet
686 972 m 257
 651 994 611 1010 565 1010 c 256
 295 1010 225 791 225 572 c 258
 225 0 l 257
 180 0 l 257
 180 1040 l 257
 225 1040 l 257
 225 820 l 257
 262 927 345 1050 575 1050 c 256
 619 1050 670 1035 707 1014 c 257
 686 972 l 257
EndSplineSet
Substitution2: "smcpBasdecasseverspetitescapitalesdansLatinlookup0 subtable" r.sc
EndChar

StartChar: t
Encoding: 116 116 13
GlifName: t
Width: 772
VWidth: 0
GlyphClass: 2
Flags: HW
AnchorPoint: "bottom_cedilla" 533 -20 basechar 0
AnchorPoint: "bottom_center" 506 0 basechar 0
AnchorPoint: "top_center" 478 1380 basechar 0
LayerCount: 2
Fore
SplineSet
152 1040 m 261
 302 1040 318 1056 318 1206 c 261
 318 1320 l 261
 363 1320 l 261
 363 1040 l 261
 669 1040 l 261
 669 1000 l 261
 363 1000 l 261
 359 300 l 262
 359 60 467 30 557 30 c 260
 595 30 649 37 688 65 c 261
 702 22 l 261
 662 4 606 -10 557 -10 c 260
 381 -10 314 100 314 300 c 262
 318 1000 l 261
 74 1000 l 261
 74 1040 l 261
 152 1040 l 261
EndSplineSet
Substitution2: "ss08StyleSet8lookups60 subtable" t.ss08
Substitution2: "smcpBasdecasseverspetitescapitalesdansLatinlookup0 subtable" t.sc
EndChar

StartChar: v
Encoding: 118 118 14
GlifName: v
Width: 1050
VWidth: 0
GlyphClass: 2
Flags: HW
AnchorPoint: "top_center" 525 1040 basechar 0
AnchorPoint: "bottom_center" 525 0 basechar 0
LayerCount: 2
Fore
SplineSet
525 56 m 257
 882 1040 l 257
 930 1040 l 257
 550 0 l 257
 500 0 l 257
 120 1040 l 257
 168 1040 l 257
 525 56 l 257
EndSplineSet
Substitution2: "smcpBasdecasseverspetitescapitalesdansLatinlookup0 subtable" v.sc
EndChar

StartChar: w
Encoding: 119 119 15
GlifName: w
Width: 1516
VWidth: 0
GlyphClass: 2
Flags: HW
AnchorPoint: "top_center" 758 1040 basechar 0
AnchorPoint: "bottom_center" 758 0 basechar 0
LayerCount: 2
Fore
SplineSet
428 0 m 257
 120 1040 l 257
 168 1040 l 257
 451 89 l 257
 734 1040 l 257
 782 1040 l 257
 1065 89 l 257
 1348 1040 l 257
 1396 1040 l 257
 1088 0 l 257
 1042 0 l 257
 757 960 l 257
 474 0 l 257
 428 0 l 257
EndSplineSet
Substitution2: "smcpBasdecasseverspetitescapitalesdansLatinlookup0 subtable" w.sc
EndChar

StartChar: x
Encoding: 120 120 16
GlifName: x
Width: 998
VWidth: 0
GlyphClass: 2
Flags: HW
AnchorPoint: "top_center" 499 1040 basechar 0
AnchorPoint: "bottom_center" 499 0 basechar 0
LayerCount: 2
Fore
SplineSet
460 520 m 257
 120 1040 l 257
 172 1040 l 257
 499 550 l 257
 826 1040 l 257
 878 1040 l 257
 538 520 l 257
 878 0 l 257
 826 0 l 257
 499 490 l 257
 172 0 l 257
 120 0 l 257
 460 520 l 257
EndSplineSet
Substitution2: "Single Substitution lookup 62 subtable" multiply
Substitution2: "smcpBasdecasseverspetitescapitalesdansLatinlookup0 subtable" x.sc
EndChar

StartChar: y
Encoding: 121 121 17
GlifName: y
Width: 1098
VWidth: 0
GlyphClass: 2
Flags: HW
AnchorPoint: "top_center" 573 1040 basechar 0
AnchorPoint: "bottom_center" 330 -360 basechar 0
LayerCount: 2
Fore
SplineSet
483 -312 m 257
 450 -401 381 -450 265 -450 c 256
 216 -450 160 -436 120 -418 c 257
 134 -375 l 257
 173 -403 227 -410 265 -410 c 256
 330 -410 405 -395 441 -296 c 257
 548 0 l 257
 168 1040 l 257
 216 1040 l 257
 573 56 l 257
 930 1040 l 257
 978 1040 l 257
 598 0 l 257
 483 -312 l 257
EndSplineSet
Substitution2: "smcpBasdecasseverspetitescapitalesdansLatinlookup0 subtable" y.sc
EndChar

StartChar: l
Encoding: 108 108 20
GlifName: l
Width: 540
VWidth: 0
GlyphClass: 2
Flags: HW
AnchorPoint: "top_center" 203 1380 basechar 0
AnchorPoint: "bottom_center" 312 0 basechar 0
LayerCount: 2
Fore
SplineSet
489 56 m 257
 500 14 l 257
 475 -3 445 -10 417 -10 c 256
 267 -10 180 60 180 230 c 258
 180 440 l 257
 180 578 l 257
 180 1480 l 257
 225 1480 l 257
 225 578 l 257
 225 440 l 257
 225 230 l 258
 225 40 364 30 417 30 c 256
 431 30 458 36 489 56 c 257
EndSplineSet
Substitution2: "ss08StyleSet8lookups60 subtable" l.ss08
Substitution2: "smcpBasdecasseverspetitescapitalesdansLatinlookup0 subtable" l.sc
EndChar

StartChar: k
Encoding: 107 107 21
GlifName: k
Width: 1029
VWidth: 0
GlyphClass: 2
Flags: HW
AnchorPoint: "top_center" 206 1380 basechar 0
AnchorPoint: "bottom_center" 557 0 basechar 0
LayerCount: 2
Fore
SplineSet
451 601 m 257
 482 630 l 257
 929 0 l 257
 877 0 l 257
 451 601 l 257
225 340 m 257
 225 0 l 257
 180 0 l 257
 180 1480 l 257
 225 1480 l 257
 225 398 l 257
 867 1040 l 257
 920 1040 872 1040 925 1040 c 257
 225 340 l 257
EndSplineSet
Substitution2: "smcpBasdecasseverspetitescapitalesdansLatinlookup0 subtable" k.sc
EndChar

StartChar: s
Encoding: 115 115 22
GlifName: s
Width: 1002
VWidth: 0
GlyphClass: 2
Flags: HW
AnchorPoint: "bottom_right" 613 0 basechar 0
AnchorPoint: "bottom_center" 505 0 basechar 0
AnchorPoint: "top_center" 505 1040 basechar 0
LayerCount: 2
Fore
SplineSet
505 1050 m 256
 698 1050 810 953 844 808 c 257
 806 786 l 257
 763 964 621 1010 505 1010 c 256
 389 1010 220 950 220 780 c 256
 220 600 377 580 505 546 c 256
 711 492 862 457 862 261 c 256
 862 85 707 -10 505 -10 c 256
 303 -10 174 108 140 253 c 257
 178 275 l 257
 218 105 373 30 505 30 c 256
 637 30 817 91 817 261 c 256
 817 441 633 466 505 500 c 256
 299 554 175 595 175 780 c 256
 175 935 312 1050 505 1050 c 256
EndSplineSet
Substitution2: "smcpBasdecasseverspetitescapitalesdansLatinlookup0 subtable" s.sc
EndChar

StartChar: a
Encoding: 97 97 23
GlifName: a
Width: 1141
VWidth: 0
GlyphClass: 2
Flags: HW
AnchorPoint: "top_right" 909 1040 basechar 0
AnchorPoint: "bottom_right" 1011 0 basechar 0
AnchorPoint: "top_center" 525 1040 basechar 0
AnchorPoint: "bottom_center" 525 0 basechar 0
LayerCount: 2
Fore
SplineSet
515 -10 m 256
 317 -10 140 100 140 340 c 257
 140 580 327 690 525 690 c 256
 695 690 900 580 900 340 c 257
 900 100 705 -10 515 -10 c 256
865 340 m 256
 865 509 735 650 525 650 c 256
 315 650 185 539 185 340 c 256
 185 141 315 30 525 30 c 256
 735 30 865 171 865 340 c 256
910 230 m 258
 910 109 966 49 1021 30 c 257
 1008 -10 l 257
 916 16 865 99 865 230 c 257
 882 265 l 257
 882 416 l 257
 865 448 l 257
 865 630 l 258
 865 944 671 1010 523 1010 c 256
 325 1010 196 885 196 885 c 257
 171 926 l 257
 171 926 299 1050 523 1050 c 256
 739 1050 910 948 910 598 c 257
 910 230 l 258
EndSplineSet
Substitution2: "ss04StyleSet4lookups56 subtable" a.cv23
Substitution2: "cv23CharacterVariants23lookups64 subtable" a.cv23
Substitution2: "smcpBasdecasseverspetitescapitalesdansLatinlookup0 subtable" a.sc
EndChar

StartChar: g
Encoding: 103 103 24
GlifName: g
Width: 1125
VWidth: 0
GlyphClass: 2
Flags: HW
AnchorPoint: "top_center" 543 1030 basechar 0
AnchorPoint: "bottom_center" 543 -361 basechar 0
LayerCount: 2
Fore
SplineSet
665 1007 m 257
 715 1033 779 1050 864 1050 c 256
 908 1050 959 1035 996 1014 c 257
 975 972 l 257
 940 994 900 1010 854 1010 c 256
 796 1010 748 1000 707 982 c 257
 665 1007 l 257
543 340 m 257
 543 310 l 257
 404 310 233 290 233 175 c 256
 233 60 348 40 543 40 c 257
 543 0 l 257
 312 0 193 45 193 175 c 256
 193 305 332 340 543 340 c 257
996 -166 m 256
 996 -346 861 -450 543 -450 c 256
 225 -450 129 -345 129 -204 c 256
 129 -33 274 40 543 40 c 257
 543 14 l 257
 325 14 174 -49 174 -204 c 256
 174 -359 325 -410 543 -410 c 256
 889 -410 951 -270 951 -170 c 256
 951 -90 897 0 543 0 c 257
 543 40 l 257
 825 40 996 -6 996 -166 c 256
238 680 m 256
 238 460 403 350 543 350 c 256
 683 350 848 460 848 680 c 256
 848 900 683 1010 543 1010 c 256
 403 1010 238 900 238 680 c 256
193 680 m 256
 193 899 350 1050 543 1050 c 256
 736 1050 893 899 893 680 c 256
 893 461 736 310 543 310 c 256
 350 310 193 461 193 680 c 256
EndSplineSet
Substitution2: "ss04StyleSet4lookups56 subtable" g.cv24
Substitution2: "cv24CharacterVariants24lookups65 subtable" g.cv24
Substitution2: "smcpBasdecasseverspetitescapitalesdansLatinlookup0 subtable" g.sc
EndChar

StartChar: z
Encoding: 122 122 25
GlifName: z
Width: 1012
VWidth: 0
GlyphClass: 2
Flags: HW
AnchorPoint: "top_center" 506 1040 basechar 0
AnchorPoint: "bottom_center" 506 0 basechar 0
LayerCount: 2
Fore
SplineSet
180 1040 m 257
 832 1040 l 257
 832 1008 l 257
 803 1000 l 257
 180 1000 l 257
 180 1040 l 257
832 40 m 257
 832 0 l 257
 180 0 l 257
 180 32 l 257
 209 40 l 257
 832 40 l 257
232 40 m 257
 180 32 l 257
 780 1000 l 257
 832 1008 l 257
 232 40 l 257
EndSplineSet
Substitution2: "smcpBasdecasseverspetitescapitalesdansLatinlookup0 subtable" z.sc
EndChar

StartChar: A
Encoding: 65 65 27
GlifName: A_
Width: 1310
VWidth: 0
GlyphClass: 2
Flags: HW
AnchorPoint: "greek_kt" 201 1040 basechar 0
AnchorPoint: "greek_k" 361 1040 basechar 0
AnchorPoint: "greek_t" 240 1040 basechar 0
AnchorPoint: "greek_v" 418 1040 basechar 0
AnchorPoint: "bottom_right" 1190 0 basechar 0
AnchorPoint: "bottom_ypogegrammeni" 655 -90 basechar 0
AnchorPoint: "top_center" 655 1380 basechar 0
AnchorPoint: "bottom_center" 655 0 basechar 0
LayerCount: 2
Fore
SplineSet
331 541 m 257
 987 541 l 257
 987 499 l 257
 331 499 l 257
 331 541 l 257
656 1408 m 257
 169 0 l 257
 120 0 l 257
 630 1480 l 257
 680 1480 l 257
 1190 0 l 257
 1141 0 l 257
 656 1408 l 257
EndSplineSet
Substitution2: "c2sc_CapitalesverspetitescapitalesdansLatinlookup0 subtable" a.sc
EndChar

StartChar: V
Encoding: 86 86 28
GlifName: V_
Width: 1310
VWidth: 0
GlyphClass: 2
Flags: HW
AnchorPoint: "top_center" 655 1380 basechar 0
AnchorPoint: "bottom_center" 655 0 basechar 0
LayerCount: 2
Fore
SplineSet
655 72 m 257
 1141 1480 l 257
 1190 1480 l 257
 680 0 l 257
 630 0 l 257
 120 1480 l 257
 169 1480 l 257
 655 72 l 257
EndSplineSet
Substitution2: "c2sc_CapitalesverspetitescapitalesdansLatinlookup0 subtable" v.sc
EndChar

StartChar: H
Encoding: 72 72 29
GlifName: H_
Width: 1344
VWidth: 0
GlyphClass: 2
Flags: HW
AnchorPoint: "greek_kt" -179 1040 basechar 0
AnchorPoint: "greek_k" -19 1040 basechar 0
AnchorPoint: "greek_t" -140 1040 basechar 0
AnchorPoint: "greek_v" 38 1040 basechar 0
AnchorPoint: "bottom_ypogegrammeni" 688 -108 basechar 0
AnchorPoint: "bottom_cedilla" 203 -38 basechar 0
AnchorPoint: "bottom_center" 688 -18 basechar 0
AnchorPoint: "top_center" 688 1362 basechar 0
LayerCount: 2
Fore
SplineSet
180 1480 m 257
 226 1480 l 257
 226 761 l 257
 1118 761 l 257
 1118 1480 l 257
 1164 1480 l 257
 1164 0 l 257
 1118 0 l 257
 1118 719 l 257
 226 719 l 257
 226 0 l 257
 180 0 l 257
 180 1480 l 257
EndSplineSet
Substitution2: "c2sc_CapitalesverspetitescapitalesdansLatinlookup0 subtable" h.sc
EndChar

StartChar: O
Encoding: 79 79 30
GlifName: O_
Width: 1514
VWidth: 0
GlyphClass: 2
Flags: HW
AnchorPoint: "greek_kt" -93 1040 basechar 0
AnchorPoint: "greek_k" 67 1040 basechar 0
AnchorPoint: "greek_t" -54 1040 basechar 0
AnchorPoint: "greek_v" 124 1040 basechar 0
AnchorPoint: "bottom_right" 863 0 basechar 0
AnchorPoint: "bottom_center" 757 0 basechar 0
AnchorPoint: "top_right" 1267 1480 basechar 0
AnchorPoint: "top_center" 757 1380 basechar 0
LayerCount: 2
Fore
SplineSet
186 740 m 256
 186 265 497 32 757 32 c 256
 1017 32 1328 265 1328 740 c 256
 1328 1215 1017 1448 757 1448 c 256
 497 1448 186 1215 186 740 c 256
140 740 m 256
 140 1179 409 1490 757 1490 c 256
 1105 1490 1374 1179 1374 740 c 256
 1374 301 1105 -10 757 -10 c 256
 409 -10 140 301 140 740 c 256
EndSplineSet
Substitution2: "c2sc_CapitalesverspetitescapitalesdansLatinlookup0 subtable" o.sc
EndChar

StartChar: E
Encoding: 69 69 31
GlifName: E_
Width: 1176
VWidth: 0
GlyphClass: 2
Flags: HW
AnchorPoint: "greek_v" 38 1040 basechar 0
AnchorPoint: "greek_t" -140 1040 basechar 0
AnchorPoint: "greek_k" -19 1040 basechar 0
AnchorPoint: "greek_kt" -179 1040 basechar 0
AnchorPoint: "top_center" 588 1380 basechar 0
AnchorPoint: "bottom_center" 588 0 basechar 0
AnchorPoint: "bottom_right" 996 0 basechar 0
AnchorPoint: "bottom_cedilla" 588 -20 basechar 0
LayerCount: 2
Fore
SplineSet
913 761 m 257
 913 719 l 257
 226 719 l 257
 226 42 l 257
 996 42 l 257
 996 0 l 257
 180 0 l 257
 180 1480 l 257
 996 1480 l 257
 996 1438 l 257
 226 1438 l 257
 226 761 l 257
 913 761 l 257
EndSplineSet
Substitution2: "c2sc_CapitalesverspetitescapitalesdansLatinlookup0 subtable" e.sc
EndChar

StartChar: F
Encoding: 70 70 32
GlifName: F_
Width: 1176
VWidth: 0
GlyphClass: 2
Flags: HW
AnchorPoint: "top_center" 588 1380 basechar 0
AnchorPoint: "bottom_center" 203 0 basechar 0
LayerCount: 2
Fore
SplineSet
226 168 m 257
 226 0 l 257
 180 0 l 257
 180 1480 l 257
 996 1480 l 257
 996 1438 l 257
 226 1438 l 257
 226 761 l 257
 913 761 l 257
 913 719 l 257
 226 719 l 257
 226 168 l 257
EndSplineSet
Substitution2: "c2sc_CapitalesverspetitescapitalesdansLatinlookup0 subtable" f.sc
EndChar

StartChar: P
Encoding: 80 80 33
GlifName: P_
Width: 1154
VWidth: 0
GlyphClass: 2
Flags: HW
AnchorPoint: "greek_kt" -179 1040 basechar 0
AnchorPoint: "greek_k" -19 1040 basechar 0
AnchorPoint: "greek_t" -140 1040 basechar 0
AnchorPoint: "greek_v" 38 1040 basechar 0
AnchorPoint: "bottom_center" 203 0 basechar 0
AnchorPoint: "top_center" 583 1380 basechar 0
LayerCount: 2
Fore
SplineSet
226 1438 m 257
 226 676 l 257
 595 676 l 257
 820 676 968 857 968 1057 c 256
 968 1257 820 1438 595 1438 c 257
 226 1438 l 257
180 0 m 257
 180 1480 l 257
 595 1480 l 257
 819 1480 1014 1312 1014 1057 c 256
 1014 802 819 634 595 634 c 257
 226 634 l 257
 226 0 l 257
 180 0 l 257
EndSplineSet
Substitution2: "c2sc_CapitalesverspetitescapitalesdansLatinlookup0 subtable" p.sc
EndChar

StartChar: N
Encoding: 78 78 34
GlifName: N_
Width: 1344
VWidth: 0
GlyphClass: 2
Flags: HW
AnchorPoint: "top_center" 672 1380 basechar 0
AnchorPoint: "bottom_center" 672 0 basechar 0
LayerCount: 2
Fore
SplineSet
226 1480 m 257
 1118 90 l 257
 1118 1480 l 257
 1164 1480 l 257
 1164 0 l 257
 1118 0 l 257
 226 1390 l 257
 226 0 l 257
 180 0 l 257
 180 1480 l 257
 226 1480 l 257
EndSplineSet
Substitution2: "c2sc_CapitalesverspetitescapitalesdansLatinlookup0 subtable" n.sc
EndChar

StartChar: L
Encoding: 76 76 35
GlifName: L_
Width: 1176
VWidth: 0
GlyphClass: 2
Flags: HW
AnchorPoint: "top_center" 203 1380 basechar 0
AnchorPoint: "bottom_center" 588 0 basechar 0
LayerCount: 2
Fore
SplineSet
226 1480 m 257
 226 42 l 257
 996 42 l 257
 996 0 l 257
 180 0 l 257
 180 1480 l 257
 226 1480 l 257
EndSplineSet
Substitution2: "c2sc_CapitalesverspetitescapitalesdansLatinlookup0 subtable" l.sc
EndChar

StartChar: I
Encoding: 73 73 36
GlifName: I_
Width: 822
VWidth: 0
GlyphClass: 2
Flags: HW
AnchorPoint: "greek_kt" -179 1040 basechar 0
AnchorPoint: "greek_k" -19 1040 basechar 0
AnchorPoint: "greek_t" -140 1040 basechar 0
AnchorPoint: "greek_v" 38 1040 basechar 0
AnchorPoint: "bottom_right" 435 0 basechar 0
AnchorPoint: "bottom_center" 411 0 basechar 0
AnchorPoint: "top_center" 411 1380 basechar 0
LayerCount: 2
Fore
SplineSet
180 1480 m 257
 642 1480 l 257
 642 1438 l 257
 435 1438 l 257
 435 42 l 257
 642 42 l 257
 642 0 l 257
 180 0 l 257
 180 42 l 257
 387 42 l 257
 387 1438 l 257
 180 1438 l 257
 180 1480 l 257
EndSplineSet
Substitution2: "ss03StyleSet3lookups55 subtable" I.cv22
Substitution2: "cv22CharacterVariants22lookups63 subtable" I.cv22
Substitution2: "c2sc_CapitalesverspetitescapitalesdansLatinlookup0 subtable" i.sc
EndChar

StartChar: D
Encoding: 68 68 37
GlifName: D_
Width: 1322
VWidth: 0
GlyphClass: 2
Flags: HW
AnchorPoint: "top_center" 640 1380 basechar 0
AnchorPoint: "bottom_center" 640 0 basechar 0
AnchorPoint: "bottom_cedilla" 556 -20 basechar 0
LayerCount: 2
Fore
SplineSet
226 1438 m 257
 226 42 l 257
 596 42 l 257
 834 42 1136 240 1136 740 c 256
 1136 1240 834 1438 596 1438 c 257
 226 1438 l 257
596 0 m 257
 347 0 l 257
 180 0 l 257
 180 1480 l 257
 596 1480 l 257
 930 1480 1182 1190 1182 740 c 256
 1182 290 930 0 596 0 c 257
EndSplineSet
Substitution2: "c2sc_CapitalesverspetitescapitalesdansLatinlookup0 subtable" d.sc
EndChar

StartChar: B
Encoding: 66 66 38
GlifName: B_
Width: 1154
VWidth: 0
GlyphClass: 2
Flags: HW
AnchorPoint: "bottom_center" 553 0 basechar 0
AnchorPoint: "top_center" 553 1380 basechar 0
LayerCount: 2
Fore
SplineSet
595 1480 m 257
 789 1480 957 1362 957 1142 c 256
 957 922 789 804 595 804 c 257
 595 846 l 257
 785 846 911 962 911 1142 c 256
 911 1322 785 1438 595 1438 c 257
 226 1438 l 257
 226 1480 l 257
 595 1480 l 257
226 42 m 257
 595 42 l 257
 820 42 968 223 968 423 c 256
 968 623 820 804 595 804 c 257
 226 804 l 257
 226 42 l 257
180 1480 m 257
 226 1480 l 257
 226 846 l 257
 595 846 l 257
 819 846 1014 678 1014 423 c 256
 1014 168 819 0 595 0 c 257
 180 0 l 257
 180 1480 l 257
EndSplineSet
Substitution2: "c2sc_CapitalesverspetitescapitalesdansLatinlookup0 subtable" b.sc
EndChar

StartChar: T
Encoding: 84 84 39
GlifName: T_
Width: 1344
VWidth: 0
GlyphClass: 2
Flags: HW
AnchorPoint: "top_center" 672 1380 basechar 0
AnchorPoint: "bottom_center" 672 0 basechar 0
AnchorPoint: "bottom_cedilla" 672 -20 basechar 0
LayerCount: 2
Fore
SplineSet
695 0 m 257
 649 0 l 257
 649 1438 l 257
 180 1438 l 257
 180 1480 l 257
 1164 1480 l 257
 1164 1438 l 257
 695 1438 l 257
 695 0 l 257
EndSplineSet
Substitution2: "c2sc_CapitalesverspetitescapitalesdansLatinlookup0 subtable" t.sc
EndChar

StartChar: R
Encoding: 82 82 40
GlifName: R_
Width: 1130
VWidth: 0
GlyphClass: 2
Flags: HW
AnchorPoint: "bottom_center" 583 0 basechar 0
AnchorPoint: "top_center" 583 1380 basechar 0
LayerCount: 2
Fore
SplineSet
545 643 m 257
 591 652 l 257
 1030 0 l 257
 976 0 l 257
 545 643 l 257
226 1438 m 257
 226 676 l 257
 595 676 l 257
 820 676 968 857 968 1057 c 256
 968 1257 820 1438 595 1438 c 257
 226 1438 l 257
180 0 m 257
 180 1480 l 257
 595 1480 l 257
 819 1480 1014 1312 1014 1057 c 256
 1014 802 819 634 595 634 c 257
 226 634 l 257
 226 0 l 257
 180 0 l 257
EndSplineSet
Substitution2: "c2sc_CapitalesverspetitescapitalesdansLatinlookup0 subtable" r.sc
EndChar

StartChar: C
Encoding: 67 67 41
GlifName: C_
Width: 1436
VWidth: 0
GlyphClass: 2
Flags: HW
AnchorPoint: "bottom_cedilla" 757 -20 basechar 0
AnchorPoint: "bottom_center" 757 0 basechar 0
AnchorPoint: "top_center" 757 1380 basechar 0
LayerCount: 2
Fore
SplineSet
1256 1097 m 257
 1149 1332 940 1448 757 1448 c 256
 497 1448 186 1215 186 740 c 256
 186 265 497 32 757 32 c 256
 940 32 1149 148 1256 383 c 257
 1296 360 l 257
 1192 132 992 -10 757 -10 c 256
 409 -10 140 301 140 740 c 256
 140 1179 409 1490 757 1490 c 256
 992 1490 1192 1348 1296 1120 c 257
 1256 1097 l 257
EndSplineSet
Substitution2: "c2sc_CapitalesverspetitescapitalesdansLatinlookup0 subtable" c.sc
EndChar

StartChar: G
Encoding: 71 71 42
GlifName: G_
Width: 1482
VWidth: 0
GlyphClass: 2
Flags: HW
AnchorPoint: "top_center" 757 1380 basechar 0
AnchorPoint: "bottom_center" 757 0 basechar 0
LayerCount: 2
Fore
SplineSet
1256 1097 m 257
 1149 1332 940 1448 757 1448 c 256
 497 1448 186 1215 186 740 c 256
 186 265 497 32 757 32 c 256
 940 32 1149 148 1256 383 c 257
 1296 360 l 257
 1192 132 992 -10 757 -10 c 256
 409 -10 140 301 140 740 c 256
 140 1179 409 1490 757 1490 c 256
 992 1490 1192 1348 1296 1120 c 257
 1256 1097 l 257
757 740 m 261
 1302 740 l 257
 1302 0 l 257
 1256 0 l 257
 1256 327 l 257
 1256 353 l 257
 1256 698 l 257
 757 698 l 261
 757 740 l 261
EndSplineSet
Substitution2: "ss03StyleSet3lookups55 subtable" G.cv21
Substitution2: "cv21CharacterVariants21lookups62 subtable" G.cv21
Substitution2: "c2sc_CapitalesverspetitescapitalesdansLatinlookup0 subtable" g.sc
EndChar

StartChar: Q
Encoding: 81 81 43
GlifName: Q_
Width: 1514
VWidth: 0
GlyphClass: 2
Flags: HW
AnchorPoint: "bottom_center" 757 0 basechar 0
AnchorPoint: "top_center" 757 1380 basechar 0
LayerCount: 2
Fore
SplineSet
186 740 m 256
 186 265 497 32 757 32 c 256
 1017 32 1328 265 1328 740 c 256
 1328 1215 1017 1448 757 1448 c 256
 497 1448 186 1215 186 740 c 256
140 740 m 256
 140 1179 409 1490 757 1490 c 256
 1105 1490 1374 1179 1374 740 c 256
 1374 301 1105 -10 757 -10 c 256
 409 -10 140 301 140 740 c 256
1374 16 m 257
 1342 -16 l 257
 826 501 l 257
 858 533 l 257
 1374 16 l 257
EndSplineSet
Substitution2: "c2sc_CapitalesverspetitescapitalesdansLatinlookup0 subtable" q.sc
EndChar

StartChar: U
Encoding: 85 85 44
GlifName: U_
Width: 1344
VWidth: 0
GlyphClass: 2
Flags: HW
AnchorPoint: "bottom_right" 787 0 basechar 0
AnchorPoint: "bottom_center" 672 0 basechar 0
AnchorPoint: "top_right" 1164 1480 basechar 0
AnchorPoint: "top_center" 672 1380 basechar 0
LayerCount: 2
Fore
SplineSet
226 1480 m 257
 226 528 l 257
 226 178 432 32 672 32 c 256
 912 32 1118 178 1118 528 c 257
 1118 1480 l 257
 1164 1480 l 257
 1164 528 l 257
 1164 168 969 -10 672 -10 c 256
 375 -10 180 168 180 528 c 257
 180 1480 l 257
 226 1480 l 257
EndSplineSet
Substitution2: "c2sc_CapitalesverspetitescapitalesdansLatinlookup0 subtable" u.sc
EndChar

StartChar: M
Encoding: 77 77 45
GlifName: M_
Width: 1512
VWidth: 0
GlyphClass: 2
Flags: HW
AnchorPoint: "top_center" 756 1380 basechar 0
AnchorPoint: "bottom_center" 756 0 basechar 0
LayerCount: 2
Fore
SplineSet
752 230 m 257
 1286 1480 l 257
 1306 1422 l 257
 770 160 l 257
 733 160 l 257
 206 1422 l 257
 226 1480 l 257
 752 230 l 257
1332 1480 m 257
 1332 0 l 257
 1286 0 l 257
 1286 1426 l 257
 1286 1480 l 257
 1332 1480 l 257
180 1480 m 257
 226 1480 l 257
 226 1414 l 257
 226 0 l 257
 180 0 l 257
 180 1480 l 257
EndSplineSet
Substitution2: "c2sc_CapitalesverspetitescapitalesdansLatinlookup0 subtable" m.sc
EndChar

StartChar: Z
Encoding: 90 90 46
GlifName: Z_
Width: 1319
VWidth: 0
GlyphClass: 2
Flags: HW
AnchorPoint: "top_center" 699 1380 basechar 0
AnchorPoint: "bottom_center" 699 0 basechar 0
LayerCount: 2
Fore
SplineSet
271 0 m 257
 241 38 l 257
 1091 1480 l 257
 1121 1442 l 257
 271 0 l 257
265 42 m 257
 1139 42 l 257
 1139 0 l 257
 813 0 567 0 241 0 c 257
 241 38 l 257
 265 42 l 257
259 1480 m 257
 585 1480 795 1480 1121 1480 c 257
 1121 1442 l 257
 1096 1438 l 257
 259 1438 l 257
 259 1480 l 257
EndSplineSet
Substitution2: "c2sc_CapitalesverspetitescapitalesdansLatinlookup0 subtable" z.sc
EndChar

StartChar: X
Encoding: 88 88 47
GlifName: X_
Width: 1342
VWidth: 0
GlyphClass: 2
Flags: HW
AnchorPoint: "bottom_center" 671 0 basechar 0
AnchorPoint: "top_center" 671 1380 basechar 0
LayerCount: 2
Fore
SplineSet
669 697 m 257
 174 0 l 257
 120 0 l 257
 642 740 l 257
 120 1480 l 257
 174 1480 l 257
 671 778 l 257
 1168 1480 l 257
 1222 1480 l 257
 700 740 l 257
 1222 0 l 257
 1168 0 l 257
 669 697 l 257
EndSplineSet
Substitution2: "c2sc_CapitalesverspetitescapitalesdansLatinlookup0 subtable" x.sc
EndChar

StartChar: Y
Encoding: 89 89 48
GlifName: Y_
Width: 1342
VWidth: 0
GlyphClass: 2
Flags: HW
AnchorPoint: "greek_v" -42 1040 basechar 0
AnchorPoint: "greek_t" -220 1040 basechar 0
AnchorPoint: "greek_k" -99 1040 basechar 0
AnchorPoint: "greek_kt" -259 1040 basechar 0
AnchorPoint: "bottom_center" 671 0 basechar 0
AnchorPoint: "top_center" 671 1380 basechar 0
LayerCount: 2
Fore
SplineSet
648 0 m 257
 648 740 l 257
 694 740 l 257
 694 0 l 257
 648 0 l 257
685 719 m 257
 659 716 l 257
 120 1480 l 257
 174 1480 l 257
 671 778 l 257
 1168 1480 l 257
 1222 1480 l 257
 685 719 l 257
EndSplineSet
Substitution2: "c2sc_CapitalesverspetitescapitalesdansLatinlookup0 subtable" y.sc
EndChar

StartChar: W
Encoding: 87 87 49
GlifName: W_
Width: 1862
VWidth: 0
GlyphClass: 2
Flags: HW
AnchorPoint: "top_center" 931 1380 basechar 0
AnchorPoint: "bottom_center" 931 0 basechar 0
LayerCount: 2
Fore
SplineSet
1323 72 m 257
 1693 1480 l 257
 1742 1480 l 257
 1349 0 l 257
 1296 0 l 257
 931 1418 l 257
 566 0 l 257
 513 0 l 257
 120 1480 l 257
 169 1480 l 257
 540 72 l 257
 905 1480 l 257
 957 1480 l 257
 1323 72 l 257
EndSplineSet
Substitution2: "c2sc_CapitalesverspetitescapitalesdansLatinlookup0 subtable" w.sc
EndChar

StartChar: J
Encoding: 74 74 50
GlifName: J_
Width: 1136
VWidth: 0
GlyphClass: 2
Flags: HW
AnchorPoint: "top_center" 933 1380 basechar 0
AnchorPoint: "bottom_center" 548 0 basechar 0
LayerCount: 2
Fore
SplineSet
187 447 m 257
 186 441 186 438 186 434 c 256
 186 146 380 32 548 32 c 256
 716 32 910 146 910 434 c 257
 910 1480 l 257
 956 1480 l 257
 956 434 l 257
 956 154 786 -10 548 -10 c 256
 310 -10 140 154 140 434 c 257
 187 447 l 257
EndSplineSet
Substitution2: "c2sc_CapitalesverspetitescapitalesdansLatinlookup0 subtable" j.sc
EndChar

StartChar: K
Encoding: 75 75 51
GlifName: K_
Width: 1298
VWidth: 0
GlyphClass: 2
Flags: HW
AnchorPoint: "top_center" 672 1380 basechar 0
AnchorPoint: "bottom_center" 672 0 basechar 0
LayerCount: 2
Fore
SplineSet
504 807 m 257
 534 841 l 257
 1198 0 l 257
 1144 0 l 257
 504 807 l 257
226 508 m 257
 226 0 l 257
 180 0 l 257
 180 1480 l 257
 226 1480 l 257
 226 568 l 257
 1138 1480 l 257
 1191 1480 1145 1480 1198 1480 c 257
 226 508 l 257
EndSplineSet
Substitution2: "c2sc_CapitalesverspetitescapitalesdansLatinlookup0 subtable" k.sc
EndChar

StartChar: S
Encoding: 83 83 52
GlifName: S_
Width: 1175
VWidth: 0
GlyphClass: 2
Flags: HW
AnchorPoint: "top_center" 586 1380 basechar 0
AnchorPoint: "bottom_center" 586 0 basechar 0
LayerCount: 2
Fore
SplineSet
586 1448 m 256
 401 1448 223 1364 223 1124 c 256
 223 884 433 816 586 769 c 256
 854 688 1035 616 1035 356 c 256
 1035 96 855 -10 586 -10 c 256
 325 -10 145 143 140 381 c 257
 186 394 l 257
 186 161 361 32 586 32 c 256
 780 32 989 106 989 356 c 256
 989 606 787 660 586 721 c 256
 318 803 177 894 177 1124 c 256
 177 1354 330 1490 586 1490 c 256
 847 1490 1007 1347 1012 1109 c 257
 966 1096 l 257
 966 1329 811 1448 586 1448 c 256
EndSplineSet
Substitution2: "c2sc_CapitalesverspetitescapitalesdansLatinlookup0 subtable" s.sc
EndChar

StartChar: eight
Encoding: 56 56 53
GlifName: eight
Width: 1198
VWidth: 0
GlyphClass: 2
Flags: HW
LayerCount: 2
Fore
SplineSet
148 390 m 256
 148 633 347 752 461 776 c 257
 352 790 188 903 188 1126 c 256
 188 1349 357 1490 599 1490 c 256
 841 1490 1010 1349 1010 1126 c 256
 1010 903 846 790 737 776 c 257
 851 752 1050 633 1050 390 c 256
 1050 147 863 -10 599 -10 c 256
 335 -10 148 147 148 390 c 256
234 1122 m 256
 234 927 399 796 599 796 c 256
 799 796 964 927 964 1122 c 256
 964 1327 799 1448 599 1448 c 256
 399 1448 234 1327 234 1122 c 256
599 756 m 256
 413 756 194 627 194 394 c 256
 194 161 374 32 599 32 c 256
 824 32 1004 161 1004 394 c 256
 1004 627 785 756 599 756 c 256
EndSplineSet
Substitution2: "tnumTabularNumbers subtable" eight.tnum
Substitution2: "pnumProportionalNumbers subtable" eight.pnum
Substitution2: "dnomDenominators subtable" eight.dnom
Substitution2: "numrNumerators subtable" eight.numr
Substitution2: "onumOldstyleFigures subtable" eight.onum
Substitution2: "subsSubscriptnumbers subtable" eight.subscript
Substitution2: "supsSupscriptnumbers subtable" eight.superior
Substitution2: "ss02Alternativenumbersset2 subtable" eight.cv18
Substitution2: "ss01Alternativenumbersset1 subtable" eight.cv08
Substitution2: "cv18Alternativedigit82 subtable" eight.cv18
Substitution2: "cv08Alternativedigit81 subtable" eight.cv08
EndChar

StartChar: six
Encoding: 54 54 54
GlifName: six
Width: 1198
VWidth: 0
GlyphClass: 2
Flags: HW
LayerCount: 2
Fore
SplineSet
696 1490 m 256
 931 1490 1027 1360 1027 1360 c 257
 1005 1322 l 257
 1005 1322 912 1448 680 1448 c 256
 424 1448 177 1206 177 706 c 256
 177 316 279 222 279 222 c 257
 225 227 l 257
 225 227 131 366 131 706 c 256
 131 1226 379 1490 696 1490 c 256
209 483 m 256
 209 251 358 32 615 32 c 256
 872 32 1021 251 1021 483 c 256
 1021 715 862 934 615 934 c 256
 368 934 209 715 209 483 c 256
163 483 m 257
 173 483 l 257
 173 774 368 976 615 976 c 256
 862 976 1067 774 1067 483 c 256
 1067 192 862 -10 615 -10 c 256
 368 -10 163 192 163 483 c 257
EndSplineSet
Substitution2: "tnumTabularNumbers subtable" six.tnum
Substitution2: "pnumProportionalNumbers subtable" six.pnum
Substitution2: "dnomDenominators subtable" six.dnom
Substitution2: "numrNumerators subtable" six.numr
Substitution2: "onumOldstyleFigures subtable" six.onum
Substitution2: "subsSubscriptnumbers subtable" six.subscript
Substitution2: "supsSupscriptnumbers subtable" six.superior
Substitution2: "ss02Alternativenumbersset2 subtable" six.cv16
Substitution2: "ss01Alternativenumbersset1 subtable" six.cv06
Substitution2: "cv16Alternativedigit62 subtable" six.cv16
Substitution2: "cv06Alternativedigit61 subtable" six.cv06
EndChar

StartChar: nine
Encoding: 57 57 55
GlifName: nine
Width: 1198
VWidth: 0
GlyphClass: 2
Flags: HW
LayerCount: 2
Fore
SplineSet
502 -10 m 256
 267 -10 171 120 171 120 c 257
 193 158 l 257
 193 158 286 32 518 32 c 256
 774 32 1021 274 1021 774 c 256
 1021 1164 919 1258 919 1258 c 257
 973 1253 l 257
 973 1253 1067 1114 1067 774 c 256
 1067 254 819 -10 502 -10 c 256
989 997 m 256
 989 1229 840 1448 583 1448 c 256
 326 1448 177 1229 177 997 c 256
 177 765 336 546 583 546 c 256
 830 546 989 765 989 997 c 256
1035 997 m 257
 1025 997 l 257
 1025 706 830 504 583 504 c 256
 336 504 131 706 131 997 c 256
 131 1288 336 1490 583 1490 c 256
 830 1490 1035 1288 1035 997 c 257
EndSplineSet
Substitution2: "tnumTabularNumbers subtable" nine.tnum
Substitution2: "pnumProportionalNumbers subtable" nine.pnum
Substitution2: "dnomDenominators subtable" nine.dnom
Substitution2: "numrNumerators subtable" nine.numr
Substitution2: "onumOldstyleFigures subtable" nine.onum
Substitution2: "subsSubscriptnumbers subtable" nine.subscript
Substitution2: "supsSupscriptnumbers subtable" nine.superior
Substitution2: "ss02Alternativenumbersset2 subtable" nine.cv19
Substitution2: "ss01Alternativenumbersset1 subtable" nine.cv09
Substitution2: "cv19Alternativedigit92 subtable" nine.cv19
Substitution2: "cv09Alternativedigit91 subtable" nine.cv09
EndChar

StartChar: three
Encoding: 51 51 56
GlifName: three
Width: 1198
VWidth: 0
GlyphClass: 2
Flags: HW
LayerCount: 2
Fore
SplineSet
596 796 m 258
 796 796 949 927 949 1122 c 256
 949 1327 796 1448 596 1448 c 256
 371 1448 216 1319 216 1086 c 257
 170 1099 l 257
 175 1337 335 1490 596 1490 c 256
 838 1490 995 1349 995 1126 c 256
 995 903 843 790 734 776 c 257
 848 752 1047 633 1047 390 c 256
 1047 147 860 -10 596 -10 c 256
 335 -10 156 143 151 381 c 257
 197 394 l 257
 197 161 371 32 596 32 c 256
 821 32 1001 161 1001 394 c 256
 1001 627 782 756 596 756 c 258
 512 756 l 257
 512 796 l 257
 596 796 l 258
EndSplineSet
Substitution2: "tnumTabularNumbers subtable" three.tnum
Substitution2: "pnumProportionalNumbers subtable" three.pnum
Substitution2: "dnomDenominators subtable" three.dnom
Substitution2: "numrNumerators subtable" three.numr
Substitution2: "onumOldstyleFigures subtable" three.onum
Substitution2: "subsSubscriptnumbers subtable" three.subscript
Substitution2: "supsSupscriptnumbers subtable" three.superior
Substitution2: "ss02Alternativenumbersset2 subtable" three.cv13
Substitution2: "ss01Alternativenumbersset1 subtable" three.cv03
Substitution2: "cv13Alternativedigit32 subtable" three.cv13
Substitution2: "cv03Alternativedigit31 subtable" three.cv03
EndChar

StartChar: zero
Encoding: 48 48 57
GlifName: zero
Width: 1198
VWidth: 0
GlyphClass: 2
Flags: HW
LayerCount: 2
Fore
SplineSet
185 740 m 256
 185 274 359 32 599 32 c 256
 839 32 1013 274 1013 740 c 256
 1013 1206 839 1448 599 1448 c 256
 359 1448 185 1206 185 740 c 256
139 740 m 256
 139 1240 335 1490 599 1490 c 256
 863 1490 1059 1240 1059 740 c 256
 1059 240 863 -10 599 -10 c 256
 335 -10 139 240 139 740 c 256
EndSplineSet
Substitution2: "tnumTabularNumbers subtable" zero.tnum
Substitution2: "pnumProportionalNumbers subtable" zero.pnum
Substitution2: "dnomDenominators subtable" zero.dnom
Substitution2: "numrNumerators subtable" zero.numr
Substitution2: "onumOldstyleFigures subtable" zero.onum
Substitution2: "subsSubscriptnumbers subtable" zero.subscript
Substitution2: "supsSupscriptnumbers subtable" zero.superior
Substitution2: "zeroSlashedZerolookups61 subtable" zero.zero
Substitution2: "ss02Alternativenumbersset2 subtable" zero.cv20
Substitution2: "ss01Alternativenumbersset1 subtable" zero.cv10
Substitution2: "cv20Alternativedigit02 subtable" zero.cv20
Substitution2: "cv10Alternativedigit01 subtable" zero.cv10
EndChar

StartChar: two
Encoding: 50 50 58
GlifName: two
Width: 1198
VWidth: 0
GlyphClass: 2
Flags: HW
LayerCount: 2
Fore
SplineSet
217 987 m 257
 170 1000 l 257
 170 1300 353 1490 599 1490 c 256
 845 1490 1028 1320 1028 1040 c 257
 982 1040 l 257
 982 1280 829 1448 599 1448 c 256
 365 1448 216 1258 216 1000 c 256
 216 996 216 993 217 987 c 257
163 0 m 257
 163 116 166 303 599 553 c 256
 876 713 982 824 982 1040 c 257
 1028 1040 l 257
 1028 760 820 627 599 500 c 256
 379 373 209 230 209 0 c 257
 160 0 212 0 163 0 c 257
183 42 m 257
 1035 42 l 257
 1035 0 l 257
 209 0 l 257
 183 42 l 257
EndSplineSet
Substitution2: "tnumTabularNumbers subtable" two.tnum
Substitution2: "pnumProportionalNumbers subtable" two.pnum
Substitution2: "dnomDenominators subtable" two.dnom
Substitution2: "numrNumerators subtable" two.numr
Substitution2: "onumOldstyleFigures subtable" two.onum
Substitution2: "subsSubscriptnumbers subtable" two.subscript
Substitution2: "supsSupscriptnumbers subtable" two.superior
Substitution2: "ss02Alternativenumbersset2 subtable" two.cv12
Substitution2: "ss01Alternativenumbersset1 subtable" two.cv02
Substitution2: "cv12Alternativedigit22 subtable" two.cv12
Substitution2: "cv02Alternativedigit21 subtable" two.cv02
EndChar

StartChar: seven
Encoding: 55 55 59
GlifName: seven
Width: 1198
VWidth: 0
GlyphClass: 2
Flags: HW
LayerCount: 2
Fore
SplineSet
971 1438 m 257
 1031 1442 l 257
 1031 1442 544 837 480 0 c 257
 428 0 486 0 434 0 c 257
 496 840 971 1438 971 1438 c 257
167 1438 m 257
 167 1480 l 257
 1031 1480 l 257
 1031 1442 l 257
 1001 1438 l 257
 167 1438 l 257
EndSplineSet
Substitution2: "tnumTabularNumbers subtable" seven.tnum
Substitution2: "pnumProportionalNumbers subtable" seven.pnum
Substitution2: "dnomDenominators subtable" seven.dnom
Substitution2: "numrNumerators subtable" seven.numr
Substitution2: "onumOldstyleFigures subtable" seven.onum
Substitution2: "subsSubscriptnumbers subtable" seven.subscript
Substitution2: "supsSupscriptnumbers subtable" seven.superior
Substitution2: "ss07StyleSet7lookups59 subtable" seven.ss07
Substitution2: "ss02Alternativenumbersset2 subtable" seven.cv17
Substitution2: "ss01Alternativenumbersset1 subtable" seven.cv07
Substitution2: "cv17Alternativedigit72 subtable" seven.cv17
Substitution2: "cv07Alternativedigit71 subtable" seven.cv07
EndChar

StartChar: four
Encoding: 52 52 60
GlifName: four
Width: 1198
VWidth: 0
GlyphClass: 2
Flags: HW
LayerCount: 2
Fore
SplineSet
167 425 m 257
 645 1480 l 257
 697 1480 l 257
 215 425 l 257
 739 425 l 257
 739 808 l 257
 785 808 l 257
 785 425 l 257
 1031 425 l 257
 1031 383 l 257
 785 383 l 257
 785 0 l 257
 739 0 l 257
 739 383 l 257
 167 383 l 257
 167 425 l 257
EndSplineSet
Substitution2: "tnumTabularNumbers subtable" four.tnum
Substitution2: "pnumProportionalNumbers subtable" four.pnum
Substitution2: "dnomDenominators subtable" four.dnom
Substitution2: "numrNumerators subtable" four.numr
Substitution2: "onumOldstyleFigures subtable" four.onum
Substitution2: "subsSubscriptnumbers subtable" four.subscript
Substitution2: "supsSupscriptnumbers subtable" four.superior
Substitution2: "ss02Alternativenumbersset2 subtable" four.cv14
Substitution2: "ss01Alternativenumbersset1 subtable" four.cv04
Substitution2: "cv14Alternativedigit42 subtable" four.cv14
Substitution2: "cv04Alternativedigit41 subtable" four.cv04
EndChar

StartChar: five
Encoding: 53 53 61
GlifName: five
Width: 1198
VWidth: 0
GlyphClass: 2
Flags: HW
LayerCount: 2
Fore
SplineSet
222 706 m 257
 184 718 l 257
 256 877 371 976 596 976 c 256
 843 976 1048 774 1048 483 c 256
 1048 192 857 -10 596 -10 c 256
 335 -10 155 143 150 381 c 257
 196 394 l 257
 196 161 371 32 596 32 c 256
 853 32 1000 251 1000 483 c 256
 1000 715 843 934 596 934 c 256
 349 934 276 797 222 706 c 257
226 751 m 257
 184 718 l 257
 178 720 l 257
 286 1480 l 257
 336 1480 281 1480 331 1480 c 257
 226 751 l 257
303 1438 m 257
 331 1480 l 257
 988 1480 l 257
 988 1438 l 257
 303 1438 l 257
EndSplineSet
Substitution2: "tnumTabularNumbers subtable" five.tnum
Substitution2: "pnumProportionalNumbers subtable" five.pnum
Substitution2: "dnomDenominators subtable" five.dnom
Substitution2: "numrNumerators subtable" five.numr
Substitution2: "onumOldstyleFigures subtable" five.onum
Substitution2: "subsSubscriptnumbers subtable" five.subscript
Substitution2: "supsSupscriptnumbers subtable" five.superior
Substitution2: "ss02Alternativenumbersset2 subtable" five.cv15
Substitution2: "ss01Alternativenumbersset1 subtable" five.cv05
Substitution2: "cv15Alternativedigit52 subtable" five.cv15
Substitution2: "cv05Alternativedigit51 subtable" five.cv05
EndChar

StartChar: one
Encoding: 49 49 62
GlifName: one
Width: 1198
VWidth: 0
GlyphClass: 2
Flags: HW
LayerCount: 2
Fore
SplineSet
640 1084 m 257
 305 1084 l 257
 305 1126 l 257
 449 1126 l 258
 616 1126 640 1154 640 1336 c 258
 640 1480 l 257
 686 1480 l 257
 686 1040 l 257
 686 0 l 257
 640 0 l 257
 640 1084 l 257
EndSplineSet
Substitution2: "tnumTabularNumbers subtable" one.tnum
Substitution2: "pnumProportionalNumbers subtable" one.pnum
Substitution2: "dnomDenominators subtable" one.dnom
Substitution2: "numrNumerators subtable" one.numr
Substitution2: "onumOldstyleFigures subtable" one.onum
Substitution2: "subsSubscriptnumbers subtable" one.subscript
Substitution2: "supsSupscriptnumbers subtable" one.superior
Substitution2: "ss06StyleSet6lookups58 subtable" one.ss06
Substitution2: "ss02Alternativenumbersset2 subtable" one.cv11
Substitution2: "ss01Alternativenumbersset1 subtable" one.cv01
Substitution2: "cv11Alternativedigit12 subtable" one.cv11
Substitution2: "cv01Alternativedigit11 subtable" one.cv01
EndChar

StartChar: period
Encoding: 46 46 63
GlifName: period
Width: 488
VWidth: 0
GlyphClass: 2
Flags: HW
LayerCount: 2
Fore
SplineSet
180 54 m 256
 180 90 208 118 244 118 c 256
 280 118 308 90 308 54 c 256
 308 18 280 -10 244 -10 c 256
 208 -10 180 18 180 54 c 256
EndSplineSet
EndChar

StartChar: comma
Encoding: 44 44 64
GlifName: comma
Width: 523
VWidth: 0
GlyphClass: 2
Flags: HW
LayerCount: 2
Fore
SplineSet
180 54 m 256
 180 90 208 118 244 118 c 256
 280 118 308 90 308 54 c 256
 308 18 280 -10 244 -10 c 256
 208 -10 180 18 180 54 c 256
180 -204 m 257
 230 -191 297 -130 297 -40 c 256
 297 40 244 73 244 73 c 257
 244 118 l 257
 306 118 343 40 343 -40 c 256
 343 -150 260 -226 192 -246 c 257
 180 -204 l 257
EndSplineSet
EndChar

StartChar: colon
Encoding: 58 58 65
GlifName: colon
Width: 488
VWidth: 0
GlyphClass: 2
Flags: HW
LayerCount: 2
Fore
SplineSet
180 930 m 256
 180 966 208 994 244 994 c 256
 280 994 308 966 308 930 c 256
 308 894 280 866 244 866 c 256
 208 866 180 894 180 930 c 256
180 54 m 256
 180 90 208 118 244 118 c 256
 280 118 308 90 308 54 c 256
 308 18 280 -10 244 -10 c 256
 208 -10 180 18 180 54 c 256
EndSplineSet
Substitution2: "Single Substitution lookup 61 subtable" colon.centered
EndChar

StartChar: semicolon
Encoding: 59 59 66
GlifName: semicolon
Width: 523
VWidth: 0
GlyphClass: 2
Flags: HW
LayerCount: 2
Fore
SplineSet
180 54 m 256
 180 90 208 118 244 118 c 256
 280 118 308 90 308 54 c 256
 308 18 280 -10 244 -10 c 256
 208 -10 180 18 180 54 c 256
180 -204 m 257
 230 -191 297 -130 297 -40 c 256
 297 40 244 73 244 73 c 257
 244 118 l 257
 306 118 343 40 343 -40 c 256
 343 -150 260 -226 192 -246 c 257
 180 -204 l 257
180 931 m 256
 180 967 208 995 244 995 c 256
 280 995 308 967 308 931 c 256
 308 895 280 867 244 867 c 256
 208 867 180 895 180 931 c 256
EndSplineSet
EndChar

StartChar: slash
Encoding: 47 47 67
GlifName: slash
Width: 862
VWidth: 0
GlyphClass: 2
Flags: HW
LayerCount: 2
Fore
SplineSet
772 1640 m 257
 138 -200 l 257
 90 -200 l 257
 724 1640 l 257
 772 1640 l 257
EndSplineSet
EndChar

StartChar: parenleft
Encoding: 40 40 68
GlifName: parenleft
Width: 801
VWidth: 0
GlyphClass: 2
Flags: HW
LayerCount: 2
Fore
SplineSet
180 660 m 256
 180 1301 556 1605 688 1660 c 257
 710 1625 l 257
 571 1568 225 1261 225 660 c 256
 225 60 572 -249 711 -306 c 257
 689 -341 l 257
 557 -286 180 20 180 660 c 256
EndSplineSet
EndChar

StartChar: exclam
Encoding: 33 33 69
GlifName: exclam
Width: 488
VWidth: 0
GlyphClass: 2
Flags: HW
LayerCount: 2
Fore
SplineSet
180 54 m 256
 180 90 208 118 244 118 c 256
 280 118 308 90 308 54 c 256
 308 18 280 -10 244 -10 c 256
 208 -10 180 18 180 54 c 256
217 1480 m 257
 271 1480 l 257
 267 452 l 257
 221 452 l 257
 217 1480 l 257
EndSplineSet
EndChar

StartChar: question
Encoding: 63 63 70
GlifName: question
Width: 1103
VWidth: 0
GlyphClass: 2
Flags: HW
LayerCount: 2
Fore
SplineSet
548 1450 m 256
 396 1450 186 1334 186 1046 c 256
 186 1042 186 1039 187 1033 c 257
 140 1046 l 257
 140 1326 330 1490 548 1490 c 256
 766 1490 963 1350 963 1080 c 256
 963 810 752 670 548 670 c 257
 548 710 l 257
 695 710 918 812 918 1080 c 256
 918 1348 700 1450 548 1450 c 256
488 54 m 256
 488 90 516 118 552 118 c 256
 588 118 616 90 616 54 c 256
 616 18 588 -10 552 -10 c 256
 516 -10 488 18 488 54 c 256
525 452 m 257
 525 710 l 257
 571 710 l 257
 571 452 l 257
 525 452 l 257
EndSplineSet
EndChar

StartChar: quotesingle
Encoding: 39 39 71
GlifName: quotesingle
Width: 406
VWidth: 0
GlyphClass: 2
Flags: HW
LayerCount: 2
Fore
SplineSet
183 968 m 257
 180 1480 l 257
 226 1480 l 257
 223 968 l 257
 183 968 l 257
EndSplineSet
EndChar

StartChar: quotedbl
Encoding: 34 34 72
GlifName: quotedbl
Width: 612
VWidth: 0
GlyphClass: 2
Flags: HW
LayerCount: 2
Fore
SplineSet
389 968 m 257
 386 1480 l 257
 432 1480 l 257
 429 968 l 257
 389 968 l 257
183 968 m 257
 180 1480 l 257
 226 1480 l 257
 223 968 l 257
 183 968 l 257
EndSplineSet
EndChar

StartChar: bracketleft
Encoding: 91 91 73
GlifName: bracketleft
Width: 840
VWidth: 0
GlyphClass: 2
Flags: HW
LayerCount: 2
Fore
SplineSet
750 1600 m 257
 225 1600 l 257
 225 -280 l 257
 750 -280 l 257
 750 -320 l 257
 180 -320 l 257
 180 1640 l 257
 750 1640 l 257
 750 1600 l 257
EndSplineSet
EndChar

StartChar: bracketright
Encoding: 93 93 74
GlifName: bracketright
Width: 840
VWidth: 0
GlyphClass: 2
Flags: HW
LayerCount: 2
Fore
SplineSet
90 1600 m 257
 90 1640 l 257
 660 1640 l 257
 660 -320 l 257
 90 -320 l 257
 90 -280 l 257
 615 -280 l 257
 615 1600 l 257
 90 1600 l 257
EndSplineSet
EndChar

StartChar: parenright
Encoding: 41 41 75
GlifName: parenright
Width: 801
VWidth: 0
GlyphClass: 2
Flags: HW
LayerCount: 2
Fore
SplineSet
621 660 m 256
 621 20 244 -286 112 -341 c 257
 90 -306 l 257
 229 -249 576 60 576 660 c 256
 576 1261 230 1568 91 1625 c 257
 113 1660 l 257
 245 1605 621 1301 621 660 c 256
EndSplineSet
EndChar

StartChar: braceleft
Encoding: 123 123 76
GlifName: braceleft
Width: 739
VWidth: 0
GlyphClass: 2
Flags: HW
LayerCount: 2
Fore
SplineSet
417 20 m 258
 417 -160 482 -270 649 -270 c 257
 649 -310 l 257
 455 -310 372 -200 372 20 c 258
 372 350 l 258
 372 530 307 640 140 640 c 257
 140 680 l 257
 334 680 417 570 417 350 c 258
 417 20 l 258
417 1300 m 258
 417 970 l 258
 417 750 334 640 140 640 c 257
 140 680 l 257
 307 680 372 790 372 970 c 258
 372 1300 l 258
 372 1520 455 1630 649 1630 c 257
 649 1590 l 257
 482 1590 417 1480 417 1300 c 258
EndSplineSet
EndChar

StartChar: braceright
Encoding: 125 125 77
GlifName: braceright
Width: 739
VWidth: 0
GlyphClass: 2
Flags: HW
LayerCount: 2
Fore
SplineSet
322 20 m 258
 322 350 l 258
 322 570 405 680 599 680 c 257
 599 640 l 257
 432 640 367 530 367 350 c 258
 367 20 l 258
 367 -200 284 -310 90 -310 c 257
 90 -270 l 257
 257 -270 322 -160 322 20 c 258
322 1300 m 258
 322 1480 257 1590 90 1590 c 257
 90 1630 l 257
 284 1630 367 1520 367 1300 c 258
 367 970 l 258
 367 790 432 680 599 680 c 257
 599 640 l 257
 405 640 322 750 322 970 c 258
 322 1300 l 258
EndSplineSet
EndChar

StartChar: backslash
Encoding: 92 92 78
GlifName: backslash
Width: 862
VWidth: 0
GlyphClass: 2
Flags: HW
LayerCount: 2
Fore
SplineSet
90 1640 m 257
 138 1640 l 257
 772 -200 l 257
 724 -200 l 257
 90 1640 l 257
EndSplineSet
EndChar

StartChar: bar
Encoding: 124 124 79
GlifName: bar
Width: 404
VWidth: 0
GlyphClass: 2
Flags: HW
LayerCount: 2
Fore
SplineSet
224 1640 m 257
 224 -440 l 257
 180 -440 l 257
 180 1640 l 257
 224 1640 l 257
EndSplineSet
EndChar

StartChar: numbersign
Encoding: 35 35 80
GlifName: numbersign
Width: 1432
VWidth: 0
GlyphClass: 2
Flags: HW
LayerCount: 2
Fore
SplineSet
180 500 m 257
 180 540 l 257
 1218 540 l 257
 1218 500 l 257
 180 500 l 257
214 940 m 257
 214 980 l 257
 1252 980 l 257
 1252 940 l 257
 214 940 l 257
985 1480 m 257
 1026 1480 l 257
 856 0 l 257
 806 0 864 0 814 0 c 257
 985 1480 l 257
576 1480 m 257
 618 1480 l 257
 447 0 l 257
 397 0 456 0 406 0 c 257
 576 1480 l 257
EndSplineSet
EndChar

StartChar: gravecomb
Encoding: 768 768 83
GlifName: gravecomb
Width: 0
VWidth: 0
GlyphClass: 4
Flags: HW
AnchorPoint: "mark_anchor_left" 642 1224 mark 0
AnchorPoint: "top_center" 642 1040 mark 0
LayerCount: 2
Fore
SplineSet
620 1224 m 257
 422 1480 l 257
 478 1480 l 257
 664 1224 l 257
 620 1224 l 257
EndSplineSet
PickledDataWithLists: "(dp0
Vcom.fontlab.hintData
p1
(dp2
Vhhints
p3
(lp4
(dp5
Vposition
p6
I1224
sVwidth
p7
I256
sasVvhints
p8
(lp9
(dp10
g6
I337
sg7
I404
sass."
EndChar

StartChar: acutecomb
Encoding: 769 769 84
GlifName: acutecomb
Width: 0
VWidth: 0
GlyphClass: 4
Flags: HW
AnchorPoint: "mark_anchor_right" 642 1224 mark 0
AnchorPoint: "top_center" 642 1040 mark 0
LayerCount: 2
Fore
SplineSet
664 1224 m 257
 620 1224 l 257
 806 1480 l 257
 862 1480 l 257
 664 1224 l 257
EndSplineSet
EndChar

StartChar: uni0302
Encoding: 770 770 85
GlifName: uni0302
Width: 0
VWidth: 0
GlyphClass: 4
Flags: HW
AnchorPoint: "mark_anchor_left" 471 1400 basemark 0
AnchorPoint: "mark_anchor_right" 813 1400 basemark 0
AnchorPoint: "mark_anchor_top" 642 1506 basemark 0
AnchorPoint: "top_center" 642 1040 mark 0
LayerCount: 2
Fore
SplineSet
812 1224 m 257
 614 1480 l 257
 670 1480 l 257
 856 1224 l 257
 812 1224 l 257
472 1224 m 257
 428 1224 l 257
 614 1480 l 257
 670 1480 l 257
 472 1224 l 257
EndSplineSet
EndChar

StartChar: tildecomb
Encoding: 771 771 86
GlifName: tildecomb
Width: 0
VWidth: 0
GlyphClass: 4
Flags: HW
AnchorPoint: "mark_anchor_right" 642 1526 basemark 0
AnchorPoint: "mark_anchor_left" 642 1526 basemark 0
AnchorPoint: "mark_anchor_top" 642 1641 basemark 0
AnchorPoint: "mark_anchor_center" 642 1654 basemark 0
AnchorPoint: "mark_anchor_top" 642 1224 mark 0
AnchorPoint: "top_center" 642 1040 mark 0
LayerCount: 2
Fore
SplineSet
381 1241 m 257
 341 1252 l 257
 355 1388 415 1490 510 1490 c 256
 650 1490 658 1274 766 1274 c 256
 818 1274 885 1330 895 1480 c 257
 935 1469 l 257
 921 1333 861 1234 766 1234 c 256
 626 1234 618 1450 510 1450 c 256
 458 1450 391 1391 381 1241 c 257
EndSplineSet
EndChar

StartChar: uni0308
Encoding: 776 776 87
GlifName: uni0308
Width: 0
VWidth: 0
GlyphClass: 4
Flags: HW
AnchorPoint: "mark_anchor_left" 642 1480 basemark 0
AnchorPoint: "mark_anchor_right" 642 1480 basemark 0
AnchorPoint: "mark_anchor_top" 642 1641 basemark 0
AnchorPoint: "mark_anchor_center" 642 1525 basemark 0
AnchorPoint: "mark_anchor_center" 642 1372 mark 0
AnchorPoint: "top_center" 642 1040 mark 0
LayerCount: 2
Fore
SplineSet
737 1352 m 256
 737 1388 765 1416 801 1416 c 256
 837 1416 865 1388 865 1352 c 256
 865 1316 837 1288 801 1288 c 256
 765 1288 737 1316 737 1352 c 256
417 1352 m 256
 417 1388 445 1416 481 1416 c 256
 517 1416 545 1388 545 1352 c 256
 545 1316 517 1288 481 1288 c 256
 445 1288 417 1316 417 1352 c 256
EndSplineSet
EndChar

StartChar: uni030A
Encoding: 778 778 88
GlifName: uni030A_
Width: 0
VWidth: 0
GlyphClass: 4
Flags: HW
AnchorPoint: "mark_anchor_right" 904 1400 basemark 0
AnchorPoint: "mark_anchor_left" 381 1400 basemark 0
AnchorPoint: "top_center" 642 1040 mark 0
LayerCount: 2
Fore
SplineSet
455 1347 m 256
 455 1451 538 1534 642 1534 c 256
 746 1534 829 1451 829 1347 c 256
 829 1243 746 1160 642 1160 c 256
 538 1160 455 1243 455 1347 c 256
500 1347 m 256
 500 1265 560 1200 642 1200 c 256
 724 1200 784 1265 784 1347 c 256
 784 1429 724 1494 642 1494 c 256
 560 1494 500 1429 500 1347 c 256
EndSplineSet
EndChar

StartChar: uni0327
Encoding: 807 807 90
GlifName: uni0327
Width: 0
VWidth: 0
GlyphClass: 4
Flags: HW
AnchorPoint: "bottom_cedilla" 642 -20 mark 0
LayerCount: 2
Fore
SplineSet
523 -291 m 257
 560 -269 l 257
 579 -309 619 -330 657 -330 c 256
 709 -330 766 -290 766 -216 c 256
 766 -142 709 -102 657 -102 c 256
 619 -102 598 -123 579 -163 c 257
 543 -141 l 257
 569 -95 597 -62 657 -62 c 256
 747 -62 811 -136 811 -216 c 256
 811 -296 747 -370 657 -370 c 256
 597 -370 549 -337 523 -291 c 257
621 0 m 257
 663 0 l 257
 580 -136 l 257
 579 -163 l 257
 543 -141 l 257
 621 0 l 257
EndSplineSet
EndChar

StartChar: dotlessi
Encoding: 305 305 141
GlifName: dotlessi
Width: 405
VWidth: 0
GlyphClass: 3
Flags: HW
AnchorPoint: "top_center" 203 1040 basechar 0
AnchorPoint: "bottom_center" 203 0 basechar 0
AnchorPoint: "bottom_right" 225 0 basechar 0
LayerCount: 2
Fore
SplineSet
180 0 m 257
 180 1040 l 257
 225 1040 l 257
 225 0 l 257
 180 0 l 257
EndSplineSet
LCarets2: 1 0
Ligature2: "ligaStandardLigatureslookup0 subtable" i uni030A
EndChar

StartChar: dollar
Encoding: 36 36 142
GlifName: dollar
Width: 1175
VWidth: 0
GlyphClass: 2
Flags: HW
LayerCount: 2
Fore
SplineSet
586 1448 m 256
 401 1448 223 1364 223 1124 c 256
 223 884 433 816 586 769 c 256
 854 688 1035 616 1035 356 c 256
 1035 96 855 -10 586 -10 c 256
 325 -10 145 143 140 381 c 257
 186 394 l 257
 186 161 361 32 586 32 c 256
 780 32 989 106 989 356 c 256
 989 606 787 660 586 721 c 256
 318 803 177 894 177 1124 c 256
 177 1354 330 1490 586 1490 c 256
 847 1490 1007 1347 1012 1109 c 257
 966 1096 l 257
 966 1329 811 1448 586 1448 c 256
609 1660 m 261
 609 -180 l 261
 563 -180 l 261
 563 1660 l 261
 609 1660 l 261
EndSplineSet
Substitution2: "ss05StyleSet5lookups57 subtable" dollar.ss05
EndChar

StartChar: plus
Encoding: 43 43 143
GlifName: plus
Width: 1198
VWidth: 0
GlyphClass: 2
Flags: HW
LayerCount: 2
Fore
SplineSet
577 1079 m 257
 621 1079 l 257
 621 241 l 257
 577 241 l 257
 577 1079 l 257
180 640 m 257
 180 680 l 257
 1018 680 l 257
 1018 640 l 257
 180 640 l 257
EndSplineSet
EndChar

StartChar: hyphen
Encoding: 45 45 144
GlifName: hyphen
Width: 1018
VWidth: 0
GlyphClass: 2
Flags: HW
LayerCount: 2
Fore
SplineSet
180 640 m 257
 180 680 l 257
 838 680 l 257
 838 640 l 257
 180 640 l 257
EndSplineSet
EndChar

StartChar: equal
Encoding: 61 61 145
GlifName: equal
Width: 1198
VWidth: 0
GlyphClass: 2
Flags: HW
LayerCount: 2
Fore
SplineSet
1018 820 m 257
 1018 780 l 257
 180 780 l 257
 180 820 l 257
 1018 820 l 257
180 500 m 257
 180 540 l 257
 1018 540 l 257
 1018 500 l 257
 180 500 l 257
EndSplineSet
EndChar

StartChar: percent
Encoding: 37 37 146
GlifName: percent
Width: 1566
VWidth: 0
GlyphClass: 2
Flags: HW
LayerCount: 2
Fore
SplineSet
185 1180 m 256
 185 1025 295 910 450 910 c 256
 605 910 715 1025 715 1180 c 256
 715 1335 605 1450 450 1450 c 256
 295 1450 185 1335 185 1180 c 256
140 1180 m 256
 140 1358 272 1490 450 1490 c 256
 628 1490 760 1358 760 1180 c 256
 760 1002 628 870 450 870 c 256
 272 870 140 1002 140 1180 c 256
891 300 m 256
 891 145 1001 30 1156 30 c 256
 1311 30 1421 145 1421 300 c 256
 1421 455 1311 570 1156 570 c 256
 1001 570 891 455 891 300 c 256
846 300 m 256
 846 478 978 610 1156 610 c 256
 1334 610 1466 478 1466 300 c 256
 1466 122 1334 -10 1156 -10 c 256
 978 -10 846 122 846 300 c 256
1285 1457 m 257
 358 0 l 257
 321 23 l 257
 1248 1480 l 257
 1285 1457 l 257
EndSplineSet
EndChar

StartChar: degree
Encoding: 176 176 147
GlifName: degree
Width: 900
VWidth: 0
GlyphClass: 2
Flags: HW
LayerCount: 2
Fore
SplineSet
185 1180 m 256
 185 1025 295 910 450 910 c 256
 605 910 715 1025 715 1180 c 256
 715 1335 605 1450 450 1450 c 256
 295 1450 185 1335 185 1180 c 256
140 1180 m 256
 140 1358 272 1490 450 1490 c 256
 628 1490 760 1358 760 1180 c 256
 760 1002 628 870 450 870 c 256
 272 870 140 1002 140 1180 c 256
EndSplineSet
EndChar

StartChar: ampersand
Encoding: 38 38 148
GlifName: ampersand
Width: 1435
VWidth: 0
GlyphClass: 2
Flags: HW
LayerCount: 2
Fore
SplineSet
449 875 m 257
 397 937 322 1032 322 1138 c 256
 322 1357 463 1490 649 1490 c 256
 835 1490 977 1372 977 1172 c 257
 932 1172 l 257
 932 1402 755 1450 649 1450 c 256
 554 1450 367 1398 367 1138 c 256
 367 1068 401 995 478 903 c 257
 1226 0 l 257
 1194 0 1204 0 1172 0 c 257
 449 875 l 257
249 378 m 257
 249 142 432 32 649 32 c 256
 859 32 1123 163 1123 586 c 257
 1169 573 l 257
 1169 185 910 -10 649 -10 c 256
 385 -10 209 135 209 378 c 256
 209 621 389 708 649 858 c 256
 792 940 932 1022 932 1172 c 257
 977 1172 l 257
 977 1012 831 913 649 808 c 256
 407 668 249 601 249 378 c 257
EndSplineSet
Substitution2: "cv26CharacterVariants26lookups67 subtable" ampersand.cv26
EndChar

StartChar: asterisk
Encoding: 42 42 149
GlifName: asterisk
Width: 1074
VWidth: 0
GlyphClass: 2
Flags: HW
LayerCount: 2
Fore
SplineSet
140 1210 m 257
 154 1254 l 257
 543 1125 l 257
 537 1106 l 257
 531 1087 l 257
 140 1210 l 257
316 760 m 257
 278 787 l 257
 521 1117 l 257
 537 1106 l 257
 554 1094 l 257
 316 760 l 257
796 787 m 257
 758 760 l 257
 520 1094 l 257
 537 1106 l 257
 553 1117 l 257
 796 787 l 257
920 1254 m 257
 934 1210 l 257
 543 1087 l 257
 537 1106 l 257
 531 1125 l 257
 920 1254 l 257
514 1516 m 257
 560 1516 l 257
 557 1106 l 257
 537 1106 l 257
 517 1106 l 257
 514 1516 l 257
EndSplineSet
Substitution2: "Single Substitution lookup 60 subtable" asterisk.centered
EndChar

StartChar: less
Encoding: 60 60 150
GlifName: less
Width: 1198
VWidth: 0
GlyphClass: 2
Flags: HW
LayerCount: 2
Fore
SplineSet
180 637 m 257
 180 683 l 257
 1018 1062 l 257
 1018 1019 l 257
 220 660 l 257
 1018 301 l 257
 1018 258 l 257
 180 637 l 257
EndSplineSet
EndChar

StartChar: greater
Encoding: 62 62 151
GlifName: greater
Width: 1198
VWidth: 0
GlyphClass: 2
Flags: HW
LayerCount: 2
Fore
SplineSet
1018 637 m 257
 180 258 l 257
 180 301 l 257
 978 660 l 257
 180 1019 l 257
 180 1062 l 257
 1018 683 l 257
 1018 637 l 257
EndSplineSet
EndChar

StartChar: at
Encoding: 64 64 152
GlifName: at
Width: 2080
VWidth: 0
GlyphClass: 2
Flags: HW
LayerCount: 2
Fore
SplineSet
1040 1490 m 256
 1560 1490 1940 1180 1940 660 c 257
 1895 660 l 257
 1895 1160 1530 1450 1040 1450 c 256
 550 1450 185 1070 185 580 c 256
 185 90 550 -290 1040 -290 c 256
 1225 -290 1384 -238 1520 -145 c 257
 1544 -185 l 257
 1403 -277 1231 -330 1040 -330 c 256
 520 -330 140 60 140 580 c 256
 140 1100 520 1490 1040 1490 c 256
1076 962 m 256
 876 962 688 817 655 579 c 256
 652 556 650 533 650 512 c 256
 650 304 784 197 965 197 c 256
 1165 197 1354 342 1387 580 c 256
 1390 603 1392 625 1392 646 c 256
 1392 844 1257 962 1076 962 c 256
1082 1002 m 256
 1322 1002 1388 858 1415 780 c 257
 1446 986 l 257
 1491 986 l 257
 1432 580 l 258
 1397 330 1211 157 959 157 c 256
 734 157 605 307 605 507 c 256
 605 530 607 554 610 579 c 256
 645 829 832 1002 1082 1002 c 256
1592 148 m 256
 1423 148 1378 304 1378 448 c 256
 1378 495 1382 541 1387 580 c 257
 1432 580 l 257
 1427 532 1425 489 1425 450 c 256
 1425 268 1485 187 1605 187 c 256
 1775 187 1895 371 1895 660 c 257
 1940 660 l 257
 1940 360 1832 148 1592 148 c 256
EndSplineSet
EndChar

StartChar: asciicircum
Encoding: 94 94 153
GlifName: asciicircum
Width: 1068
VWidth: 0
GlyphClass: 2
Flags: HW
LayerCount: 2
Fore
SplineSet
881 656 m 257
 535 1430 l 257
 187 656 l 257
 140 656 l 257
 512 1480 l 257
 556 1480 l 257
 928 656 l 257
 881 656 l 257
EndSplineSet
EndChar

StartChar: underscore
Encoding: 95 95 154
GlifName: underscore
Width: 1198
VWidth: 0
GlyphClass: 2
Flags: HW
LayerCount: 2
Fore
SplineSet
0 0 m 257
 1198 0 l 257
 1198 -40 l 257
 0 -40 l 257
 0 0 l 257
EndSplineSet
EndChar

StartChar: grave
Encoding: 96 96 155
GlifName: grave
Width: 482
VWidth: 0
GlyphClass: 2
Flags: HW
LayerCount: 2
Fore
SplineSet
318 1224 m 257
 120 1480 l 257
 176 1480 l 257
 362 1224 l 257
 318 1224 l 257
EndSplineSet
EndChar

StartChar: asciitilde
Encoding: 126 126 156
GlifName: asciitilde
Width: 1198
VWidth: 0
GlyphClass: 2
Flags: HW
LayerCount: 2
Fore
SplineSet
224 517 m 257
 180 530 l 257
 201 725 277 830 420 830 c 256
 612 830 618 522 778 522 c 256
 860 522 959 576 974 795 c 257
 1018 782 l 257
 997 587 921 482 778 482 c 256
 586 482 580 790 420 790 c 256
 338 790 239 736 224 517 c 257
EndSplineSet
EndChar

StartChar: exclamdown
Encoding: 161 161 157
GlifName: exclamdown
Width: 488
VWidth: 0
GlyphClass: 2
Flags: HW
LayerCount: 2
Fore
SplineSet
308 986 m 256
 308 950 280 922 244 922 c 256
 208 922 180 950 180 986 c 256
 180 1022 208 1050 244 1050 c 256
 280 1050 308 1022 308 986 c 256
271 -440 m 257
 217 -440 l 257
 221 588 l 257
 267 588 l 257
 271 -440 l 257
EndSplineSet
EndChar

StartChar: cent
Encoding: 162 162 158
GlifName: cent
Width: 1101
VWidth: 0
GlyphClass: 2
Flags: HW
LayerCount: 2
Fore
SplineSet
790 1220 m 257
 410 -180 l 257
 367 -180 l 257
 747 1220 l 257
 790 1220 l 257
185 520 m 256
 185 184 410 30 578 30 c 256
 698 30 846 108 922 274 c 257
 961 252 l 257
 887 90 745 -10 578 -10 c 256
 331 -10 140 208 140 520 c 256
 140 832 331 1050 578 1050 c 256
 745 1050 887 950 961 788 c 257
 922 766 l 257
 846 932 698 1010 578 1010 c 256
 410 1010 185 856 185 520 c 256
EndSplineSet
Substitution2: "ss05StyleSet5lookups57 subtable" cent.ss05
EndChar

StartChar: sterling
Encoding: 163 163 159
GlifName: sterling
Width: 1276
VWidth: 0
GlyphClass: 2
Flags: HW
LayerCount: 2
Fore
SplineSet
362 720 m 257
 730 720 l 257
 730 760 l 257
 362 760 l 257
 140 760 l 257
 140 714 140 766 140 720 c 257
 362 720 l 257
276 1040 m 256
 276 1298 427 1448 661 1448 c 256
 895 1448 1044 1268 1044 1010 c 256
 1044 1006 1044 1003 1043 997 c 257
 1090 1010 l 257
 1090 1310 907 1490 661 1490 c 256
 415 1490 231 1340 231 1040 c 256
 231 768 399 654 399 474 c 256
 399 354 250 112 168 37 c 257
 227 18 l 257
 261 72 444 280 444 490 c 256
 444 650 276 800 276 1040 c 256
1123 107 m 257
 1083 76 991 30 901 30 c 256
 744 30 694 128 518 128 c 256
 395 128 247 82 168 37 c 257
 179 -10 l 257
 277 44 414 88 518 88 c 256
 675 88 725 -10 901 -10 c 256
 1007 -10 1096 33 1136 60 c 257
 1123 107 l 257
EndSplineSet
EndChar

StartChar: currency
Encoding: 164 164 160
GlifName: currency
Width: 1304
VWidth: 0
GlyphClass: 2
Flags: HW
LayerCount: 2
Fore
SplineSet
954 926 m 257
 922 958 l 257
 1132 1168 l 257
 1164 1136 l 257
 954 926 l 257
350 386 m 257
 382 354 l 257
 172 144 l 257
 140 176 l 257
 350 386 l 257
922 354 m 257
 954 386 l 257
 1164 176 l 257
 1132 144 l 257
 922 354 l 257
382 958 m 257
 350 926 l 257
 140 1136 l 257
 172 1168 l 257
 382 958 l 257
222 656 m 256
 222 897 399 1086 652 1086 c 256
 905 1086 1082 897 1082 656 c 256
 1082 415 905 226 652 226 c 256
 399 226 222 415 222 656 c 256
267 656 m 256
 267 441 437 266 652 266 c 256
 867 266 1037 441 1037 656 c 256
 1037 871 867 1046 652 1046 c 256
 437 1046 267 871 267 656 c 256
EndSplineSet
EndChar

StartChar: yen
Encoding: 165 165 161
GlifName: yen
Width: 1342
VWidth: 0
GlyphClass: 2
Flags: HW
LayerCount: 2
Fore
SplineSet
263 663 m 257
 263 705 l 257
 1079 705 l 257
 1079 663 l 257
 263 663 l 257
263 375 m 257
 263 417 l 257
 1079 417 l 257
 1079 375 l 257
 263 375 l 257
648 0 m 257
 648 740 l 257
 694 740 l 257
 694 0 l 257
 648 0 l 257
685 719 m 257
 659 716 l 257
 120 1480 l 257
 174 1480 l 257
 671 778 l 257
 1168 1480 l 257
 1222 1480 l 257
 685 719 l 257
EndSplineSet
EndChar

StartChar: brokenbar
Encoding: 166 166 162
GlifName: brokenbar
Width: 405
VWidth: 0
GlyphClass: 2
Flags: HW
LayerCount: 2
Fore
SplineSet
180 570 m 257
 225 570 l 257
 225 -320 l 257
 180 -320 l 257
 180 570 l 257
225 750 m 257
 180 750 l 257
 180 1640 l 257
 225 1640 l 257
 225 750 l 257
EndSplineSet
EndChar

StartChar: section
Encoding: 167 167 163
GlifName: section
Width: 1118
VWidth: 0
GlyphClass: 2
Flags: HW
LayerCount: 2
Fore
SplineSet
559 820 m 257
 365 820 185 751 185 531 c 256
 185 305 371 273 559 223 c 256
 771 166 978 105 978 -131 c 256
 978 -367 828 -460 559 -460 c 256
 338 -460 140 -322 140 -94 c 257
 186 -81 l 257
 186 -314 384 -420 559 -420 c 256
 753 -420 933 -367 933 -131 c 256
 933 59 747 127 559 177 c 256
 347 234 140 265 140 531 c 256
 140 747 290 860 559 860 c 257
 559 820 l 257
559 220 m 257
 753 220 933 289 933 509 c 256
 933 735 760 756 559 817 c 256
 291 899 183 972 183 1182 c 256
 183 1372 343 1490 559 1490 c 256
 780 1490 935 1352 935 1124 c 257
 889 1111 l 257
 889 1344 734 1450 559 1450 c 256
 414 1450 228 1378 228 1182 c 256
 228 962 404 904 559 863 c 256
 829 791 978 745 978 509 c 256
 978 293 828 180 559 180 c 257
 559 220 l 257
EndSplineSet
EndChar

StartChar: dieresis
Encoding: 168 168 164
GlifName: dieresis
Width: 688
VWidth: 0
GlyphClass: 2
Flags: HW
LayerCount: 2
Fore
SplineSet
440 1318 m 256
 440 1354 468 1382 504 1382 c 256
 540 1382 568 1354 568 1318 c 256
 568 1282 540 1254 504 1254 c 256
 468 1254 440 1282 440 1318 c 256
120 1318 m 256
 120 1354 148 1382 184 1382 c 256
 220 1382 248 1354 248 1318 c 256
 248 1282 220 1254 184 1254 c 256
 148 1254 120 1282 120 1318 c 256
EndSplineSet
EndChar

StartChar: copyright
Encoding: 169 169 165
GlifName: copyright
Width: 1780
VWidth: 0
GlyphClass: 2
Flags: HW
LayerCount: 2
Fore
SplineSet
170 740 m 256
 170 330 480 20 890 20 c 256
 1300 20 1610 330 1610 740 c 256
 1610 1150 1300 1460 890 1460 c 256
 480 1460 170 1150 170 740 c 256
140 740 m 256
 140 1160 470 1490 890 1490 c 256
 1310 1490 1640 1160 1640 740 c 256
 1640 320 1310 -10 890 -10 c 256
 470 -10 140 320 140 740 c 256
559 740 m 256
 559 1012 739 1145 890 1145 c 256
 997 1145 1118 1079 1180 944 c 257
 1208 960 l 257
 1145 1092 1029 1175 890 1175 c 256
 685 1175 526 995 526 740 c 256
 526 485 685 305 890 305 c 256
 1029 305 1145 388 1208 520 c 257
 1180 536 l 257
 1118 401 997 335 890 335 c 256
 739 335 559 468 559 740 c 256
EndSplineSet
EndChar

StartChar: registered
Encoding: 174 174 166
GlifName: registered
Width: 1780
VWidth: 0
GlyphClass: 2
Flags: HW
LayerCount: 2
Fore
SplineSet
170 740 m 256
 170 330 480 20 890 20 c 256
 1300 20 1610 330 1610 740 c 256
 1610 1150 1300 1460 890 1460 c 256
 480 1460 170 1150 170 740 c 256
140 740 m 256
 140 1160 470 1490 890 1490 c 256
 1310 1490 1640 1160 1640 740 c 256
 1640 320 1310 -10 890 -10 c 256
 470 -10 140 320 140 740 c 256
664 311 m 257
 664 1169 l 257
 911 1169 l 257
 1044 1169 1160 1071 1160 923 c 256
 1160 775 1044 677 911 677 c 257
 697 677 l 257
 697 311 l 257
 664 311 l 257
697 1139 m 257
 697 707 l 257
 911 707 l 257
 1041 707 1127 810 1127 923 c 256
 1127 1036 1041 1139 911 1139 c 257
 697 1139 l 257
877 684 m 257
 909 690 l 257
 1168 311 l 257
 1127 311 l 257
 877 684 l 257
EndSplineSet
EndChar

StartChar: questiondown
Encoding: 191 191 167
GlifName: questiondown
Width: 1063
VWidth: 0
GlyphClass: 2
Flags: HW
LayerCount: 2
Fore
SplineSet
535 -410 m 256
 383 -410 165 -308 165 -40 c 256
 165 228 388 330 535 330 c 257
 535 370 l 257
 331 370 120 230 120 -40 c 256
 120 -310 317 -450 535 -450 c 256
 753 -450 943 -286 943 -6 c 257
 896 7 l 257
 897 1 897 -2 897 -6 c 256
 897 -294 687 -410 535 -410 c 256
595 986 m 256
 595 950 567 922 531 922 c 256
 495 922 467 950 467 986 c 256
 467 1022 495 1050 531 1050 c 256
 567 1050 595 1022 595 986 c 256
558 588 m 257
 512 588 l 257
 512 330 l 257
 558 330 l 257
 558 588 l 257
EndSplineSet
EndChar

StartChar: acute
Encoding: 180 180 169
GlifName: acute
Width: 482
VWidth: 0
GlyphClass: 2
Flags: HW
LayerCount: 2
Fore
SplineSet
164 1224 m 257
 120 1224 l 257
 306 1480 l 257
 362 1480 l 257
 164 1224 l 257
EndSplineSet
EndChar

StartChar: two.superior
Encoding: 178 178 170
GlifName: uni00B_2
Width: 740
VWidth: 0
GlyphClass: 2
Flags: HW
LayerCount: 2
Fore
SplineSet
111 810 m 261
 120 810 l 257
 143 810 l 257
 630 810 l 257
 630 840 l 257
 145 840 l 257
 159 956 253 1031 372 1099 c 256
 502 1173 625 1254 625 1416 c 256
 625 1582 516 1674 370 1674 c 256
 224 1674 115 1561 115 1382 c 257
 149 1374 l 257
 148 1378 148 1380 148 1382 c 256
 148 1533 234 1644 370 1644 c 256
 503 1644 592 1555 592 1416 c 256
 592 1291 530 1225 367 1132 c 256
 113 987 111 877 111 810 c 261
EndSplineSet
Substitution2: "tnumTabularNumbers subtable" two.superior.tnum
Substitution2: "pnumProportionalNumbers subtable" two.superior.pnum
EndChar

StartChar: three.superior
Encoding: 179 179 171
GlifName: uni00B_3
Width: 740
VWidth: 0
GlyphClass: 2
Flags: HW
LayerCount: 2
Fore
SplineSet
367 1274 m 262
 319 1274 l 257
 319 1244 l 257
 368 1244 l 258
 478 1244 608 1171 608 1039 c 256
 608 907 502 834 369 834 c 256
 236 834 133 907 133 1039 c 257
 100 1032 l 257
 103 893 211 804 369 804 c 256
 528 804 641 895 641 1036 c 256
 641 1177 518 1245 447 1259 c 257
 513 1267 605 1332 605 1462 c 256
 605 1592 512 1674 368 1674 c 256
 213 1674 117 1585 114 1446 c 257
 147 1439 l 257
 147 1571 237 1644 367 1644 c 256
 483 1644 572 1575 572 1459 c 256
 572 1348 483 1274 367 1274 c 262
EndSplineSet
Substitution2: "tnumTabularNumbers subtable" three.superior.tnum
Substitution2: "pnumProportionalNumbers subtable" three.superior.pnum
EndChar

StartChar: one.superior
Encoding: 185 185 172
GlifName: uni00B_9
Width: 740
VWidth: 0
GlyphClass: 2
Flags: HW
LayerCount: 2
Fore
SplineSet
390 1430 m 261
 390 810 l 257
 424 810 l 257
 424 1413 l 257
 424 1668 l 257
 390 1668 l 257
 390 1584 l 258
 390 1478 377 1461 280 1461 c 258
 196 1461 l 257
 196 1430 l 257
 390 1430 l 261
EndSplineSet
Substitution2: "tnumTabularNumbers subtable" one.superior.tnum
Substitution2: "pnumProportionalNumbers subtable" one.superior.pnum
EndChar

StartChar: zero.superior
Encoding: 8304 8304 173
GlifName: uni2070
Width: 740
VWidth: 0
GlyphClass: 2
Flags: HW
LayerCount: 2
Fore
SplineSet
130 1239 m 260
 130 1506 231 1644 370 1644 c 256
 509 1644 610 1506 610 1239 c 256
 610 972 509 834 370 834 c 256
 231 834 130 972 130 1239 c 260
97 1239 m 260
 97 949 213 804 370 804 c 256
 527 804 643 949 643 1239 c 256
 643 1529 527 1674 370 1674 c 256
 213 1674 97 1529 97 1239 c 260
EndSplineSet
Substitution2: "tnumTabularNumbers subtable" zero.superior.tnum
Substitution2: "pnumProportionalNumbers subtable" zero.superior.pnum
EndChar

StartChar: four.superior
Encoding: 8308 8308 174
GlifName: uni2074
Width: 740
VWidth: 0
GlyphClass: 2
Flags: HW
LayerCount: 2
Fore
SplineSet
434 1668 m 257
 394 1668 l 257
 116 1056 l 257
 116 1032 l 257
 448 1032 l 257
 448 810 l 257
 481 810 l 257
 481 1032 l 257
 624 1032 l 257
 624 1063 l 257
 481 1063 l 257
 481 1279 l 257
 448 1279 l 257
 448 1063 l 257
 158 1063 l 257
 434 1668 l 257
EndSplineSet
Substitution2: "tnumTabularNumbers subtable" four.superior.tnum
Substitution2: "pnumProportionalNumbers subtable" four.superior.pnum
EndChar

StartChar: five.superior
Encoding: 8309 8309 175
GlifName: uni2075
Width: 740
VWidth: 0
GlyphClass: 2
Flags: HW
LayerCount: 2
Fore
SplineSet
200 1668 m 261
 190 1668 l 257
 124 1225 l 257
 152 1217 l 257
 183 1269 225 1346 368 1346 c 256
 511 1346 602 1222 602 1090 c 256
 602 958 517 834 368 834 c 256
 238 834 136 907 136 1039 c 257
 104 1032 l 257
 107 893 213 804 368 804 c 256
 523 804 636 921 636 1090 c 256
 636 1259 515 1377 370 1377 c 256
 264 1377 203 1338 160 1274 c 257
 214 1638 l 257
 596 1638 l 257
 596 1668 l 257
 216 1668 l 257
 200 1668 l 261
EndSplineSet
Substitution2: "tnumTabularNumbers subtable" five.superior.tnum
Substitution2: "pnumProportionalNumbers subtable" five.superior.pnum
EndChar

StartChar: six.superior
Encoding: 8310 8310 176
GlifName: uni2076
Width: 740
VWidth: 0
GlyphClass: 2
Flags: HW
LayerCount: 2
Fore
SplineSet
127 1157 m 257
 104 1525 282 1644 417 1644 c 256
 552 1644 602 1567 602 1567 c 257
 620 1594 l 257
 620 1594 563 1674 425 1674 c 256
 238 1674 92 1521 92 1221 c 256
 92 1099 116 1022 134 981 c 256
 173 873 270 804 382 804 c 256
 528 804 648 921 648 1090 c 256
 648 1259 528 1377 383 1377 c 256
 254 1377 149 1301 127 1157 c 257
144 1090 m 256
 144 1222 237 1346 380 1346 c 256
 523 1346 615 1222 615 1090 c 256
 615 958 529 834 380 834 c 256
 231 834 144 958 144 1090 c 256
EndSplineSet
Substitution2: "tnumTabularNumbers subtable" six.superior.tnum
Substitution2: "pnumProportionalNumbers subtable" six.superior.pnum
EndChar

StartChar: seven.superior
Encoding: 8311 8311 177
GlifName: uni2077
Width: 740
VWidth: 0
GlyphClass: 2
Flags: HW
LayerCount: 2
Fore
SplineSet
116 1638 m 261
 584 1638 l 257
 547 1590 305 1260 271 810 c 257
 276 810 299 810 304 810 c 257
 341 1292 624 1641 624 1641 c 257
 624 1668 l 257
 116 1668 l 261
 116 1638 l 261
EndSplineSet
Substitution2: "tnumTabularNumbers subtable" seven.superior.tnum
Substitution2: "pnumProportionalNumbers subtable" seven.superior.pnum
EndChar

StartChar: eight.superior
Encoding: 8312 8312 178
GlifName: uni2078
Width: 740
VWidth: 0
GlyphClass: 2
Flags: HW
LayerCount: 2
Fore
SplineSet
90 1036 m 260
 90 895 206 804 370 804 c 256
 534 804 650 895 650 1036 c 256
 650 1177 525 1245 453 1259 c 257
 520 1267 621 1332 621 1462 c 256
 621 1592 518 1674 370 1674 c 256
 222 1674 119 1592 119 1462 c 260
 119 1332 221 1267 288 1259 c 261
 216 1245 90 1177 90 1036 c 260
152 1459 m 260
 152 1575 251 1644 370 1644 c 256
 489 1644 588 1575 588 1459 c 256
 588 1348 489 1274 370 1274 c 260
 251 1274 152 1348 152 1459 c 260
370 1244 m 260
 483 1244 617 1171 617 1039 c 256
 617 907 507 834 370 834 c 256
 233 834 123 907 123 1039 c 260
 123 1171 257 1244 370 1244 c 260
EndSplineSet
Substitution2: "tnumTabularNumbers subtable" eight.superior.tnum
Substitution2: "pnumProportionalNumbers subtable" eight.superior.pnum
EndChar

StartChar: nine.superior
Encoding: 8313 8313 179
GlifName: uni2079
Width: 740
VWidth: 0
GlyphClass: 2
Flags: HW
LayerCount: 2
Fore
SplineSet
613 1321 m 261
 636 953 458 834 323 834 c 256
 188 834 138 911 138 911 c 257
 120 884 l 257
 120 884 177 804 315 804 c 256
 502 804 648 957 648 1257 c 260
 648 1379 624 1456 606 1497 c 256
 567 1605 470 1674 358 1674 c 256
 212 1674 92 1557 92 1388 c 256
 92 1219 212 1101 357 1101 c 256
 486 1101 591 1177 613 1321 c 261
596 1388 m 260
 596 1256 503 1132 360 1132 c 256
 217 1132 125 1256 125 1388 c 256
 125 1520 211 1644 360 1644 c 256
 509 1644 596 1520 596 1388 c 260
EndSplineSet
Substitution2: "tnumTabularNumbers subtable" nine.superior.tnum
Substitution2: "pnumProportionalNumbers subtable" nine.superior.pnum
EndChar

StartChar: ordfeminine
Encoding: 170 170 180
GlifName: ordfeminine
Width: 854
VWidth: 0
GlyphClass: 2
Flags: HW
LayerCount: 2
Fore
SplineSet
140 831 m 257
 140 861 l 257
 714 861 l 257
 714 831 l 257
 140 831 l 257
596 1096 m 257
 556 1024 472 990 389 990 c 256
 270 990 164 1054 164 1193 c 256
 164 1333 276 1397 395 1397 c 256
 468 1397 552 1364 593 1294 c 257
 593 1531 509 1575 394 1575 c 256
 279 1575 205 1499 205 1499 c 257
 188 1528 l 257
 188 1528 264 1605 397 1605 c 256
 515 1605 626 1559 626 1291 c 258
 626 1232 l 257
 626 1213 l 257
 626 1132 l 258
 626 1064 658 1031 690 1020 c 257
 683 990 l 257
 635 1003 605 1039 596 1096 c 257
592 1193 m 256
 592 1287 517 1366 395 1366 c 256
 273 1366 197 1304 197 1193 c 256
 197 1082 273 1020 395 1020 c 256
 517 1020 592 1099 592 1193 c 256
EndSplineSet
Substitution2: "ss04StyleSet4lookups56 subtable" ordfeminine.cv23
Substitution2: "cv23CharacterVariants23lookups64 subtable" ordfeminine.cv23
EndChar

StartChar: ordmasculine
Encoding: 186 186 181
GlifName: ordmasculine
Width: 854
VWidth: 0
GlyphClass: 2
Flags: HW
LayerCount: 2
Fore
SplineSet
427 1605 m 256
 279 1605 165 1479 165 1298 c 256
 165 1117 279 990 427 990 c 256
 575 990 689 1117 689 1298 c 256
 689 1479 575 1605 427 1605 c 256
427 1020 m 256
 330 1020 198 1108 198 1298 c 256
 198 1488 330 1575 427 1575 c 256
 524 1575 656 1488 656 1298 c 256
 656 1108 524 1020 427 1020 c 256
140 831 m 257
 140 861 l 257
 714 861 l 257
 714 831 l 257
 140 831 l 257
EndSplineSet
EndChar

StartChar: guillemotleft
Encoding: 171 171 182
GlifName: guillemotleft
Width: 1030
VWidth: 0
GlyphClass: 2
Flags: HW
LayerCount: 2
Fore
SplineSet
858 196 m 257
 508 660 l 257
 858 1126 l 257
 910 1126 l 257
 556 660 l 257
 910 196 l 257
 858 196 l 257
470 196 m 257
 120 660 l 257
 470 1126 l 257
 522 1126 l 257
 168 660 l 257
 522 196 l 257
 470 196 l 257
EndSplineSet
EndChar

StartChar: logicalnot
Encoding: 172 172 183
GlifName: logicalnot
Width: 1198
VWidth: 0
GlyphClass: 2
Flags: HW
LayerCount: 2
Fore
SplineSet
973 720 m 257
 973 340 l 257
 1018 340 l 257
 1018 740 l 257
 973 720 l 257
180 700 m 257
 1000 700 l 257
 1018 740 l 257
 180 740 l 257
 180 700 l 257
EndSplineSet
EndChar

StartChar: guillemotright
Encoding: 187 187 184
GlifName: guillemotright
Width: 1030
VWidth: 0
GlyphClass: 2
Flags: HW
LayerCount: 2
Fore
SplineSet
172 196 m 257
 522 660 l 257
 172 1126 l 257
 120 1126 l 257
 474 660 l 257
 120 196 l 257
 172 196 l 257
560 196 m 257
 910 660 l 257
 560 1126 l 257
 508 1126 l 257
 862 660 l 257
 508 196 l 257
 560 196 l 257
EndSplineSet
EndChar

StartChar: plusminus
Encoding: 177 177 185
GlifName: plusminus
Width: 1198
VWidth: 0
GlyphClass: 2
Flags: HW
LayerCount: 2
Fore
SplineSet
180 0 m 257
 1018 0 l 257
 1018 -40 l 257
 180 -40 l 257
 180 0 l 257
577 1079 m 257
 577 241 l 257
 621 241 l 257
 621 1079 l 257
 577 1079 l 257
180 640 m 257
 1018 640 l 257
 1018 680 l 257
 180 680 l 257
 180 640 l 257
EndSplineSet
EndChar

StartChar: paragraph
Encoding: 182 182 186
GlifName: paragraph
Width: 1173
VWidth: 0
GlyphClass: 2
Flags: HW
LayerCount: 2
Fore
SplineSet
1033 1490 m 257
 597 1490 l 257
 597 1450 l 257
 1033 1450 l 257
 1033 1490 l 257
828 1469 m 257
 828 -440 l 257
 873 -440 l 257
 873 1469 l 257
 828 1469 l 257
575 1470 m 257
 575 -440 l 257
 620 -440 l 257
 620 1470 l 257
 609 1470 l 257
 575 1470 l 257
140 1048 m 256
 140 778 327 616 597 616 c 257
 597 1490 l 257
 327 1490 140 1318 140 1048 c 256
EndSplineSet
EndChar

StartChar: periodcentered
Encoding: 183 183 187
GlifName: periodcentered
Width: 488
VWidth: 0
GlyphClass: 2
Flags: HW
LayerCount: 2
Fore
SplineSet
180 660 m 256
 180 696 208 724 244 724 c 256
 280 724 308 696 308 660 c 256
 308 624 280 596 244 596 c 256
 208 596 180 624 180 660 c 256
EndSplineSet
EndChar

StartChar: cedilla
Encoding: 184 184 188
GlifName: cedilla
Width: 528
VWidth: 0
GlyphClass: 2
Flags: HW
LayerCount: 2
Fore
SplineSet
120 -291 m 257
 157 -269 l 257
 176 -309 216 -330 254 -330 c 256
 306 -330 363 -290 363 -216 c 256
 363 -142 306 -102 254 -102 c 256
 216 -102 195 -123 176 -163 c 257
 140 -141 l 257
 166 -95 194 -62 254 -62 c 256
 344 -62 408 -136 408 -216 c 256
 408 -296 344 -370 254 -370 c 256
 194 -370 146 -337 120 -291 c 257
218 0 m 257
 260 0 l 257
 177 -136 l 257
 176 -163 l 257
 140 -141 l 257
 218 0 l 257
EndSplineSet
EndChar

StartChar: threequarters
Encoding: 190 190 189
GlifName: threequarters
Width: 1778
VWidth: 0
GlyphClass: 2
Flags: HW
LayerCount: 2
Fore
SplineSet
408 1086 m 258
 524 1086 613 1160 613 1271 c 256
 613 1387 524 1456 408 1456 c 256
 278 1456 188 1383 188 1251 c 257
 155 1258 l 257
 158 1397 254 1486 409 1486 c 256
 553 1486 646 1404 646 1274 c 256
 646 1144 554 1079 488 1071 c 257
 559 1057 682 989 682 848 c 256
 682 707 569 616 410 616 c 256
 252 616 144 705 141 844 c 257
 174 851 l 257
 174 719 277 646 410 646 c 256
 543 646 649 719 649 851 c 256
 649 983 519 1056 409 1056 c 258
 360 1056 l 257
 360 1086 l 257
 408 1086 l 258
1432 858 m 257
 1392 858 l 257
 1114 246 l 257
 1114 222 l 257
 1446 222 l 257
 1446 0 l 257
 1479 0 l 257
 1479 222 l 257
 1622 222 l 257
 1622 253 l 257
 1479 253 l 257
 1479 469 l 257
 1446 469 l 257
 1446 253 l 257
 1156 253 l 257
 1432 858 l 257
550 121 m 257
 522 137 l 257
 1228 1359 l 257
 1256 1343 l 257
 550 121 l 257
EndSplineSet
Substitution2: "ss02Alternativenumbersset2 subtable" threequarters.cv13
Substitution2: "ss01Alternativenumbersset1 subtable" threequarters.cv03
Substitution2: "cv14Alternativedigit42 subtable" threequarters.cv14
Substitution2: "cv13Alternativedigit32 subtable" threequarters.cv13
Substitution2: "cv04Alternativedigit41 subtable" threequarters.cv04
Substitution2: "cv03Alternativedigit31 subtable" threequarters.cv03
EndChar

StartChar: onequarter
Encoding: 188 188 190
GlifName: onequarter
Width: 1778
VWidth: 0
GlyphClass: 2
Flags: HW
LayerCount: 2
Fore
SplineSet
1432 858 m 257
 1392 858 l 257
 1114 246 l 257
 1114 222 l 257
 1446 222 l 257
 1446 0 l 257
 1479 0 l 257
 1479 222 l 257
 1622 222 l 257
 1622 253 l 257
 1479 253 l 257
 1479 469 l 257
 1446 469 l 257
 1446 253 l 257
 1156 253 l 257
 1432 858 l 257
409 1242 m 257
 215 1242 l 257
 215 1273 l 257
 299 1273 l 258
 396 1273 409 1290 409 1396 c 258
 409 1480 l 257
 443 1480 l 257
 443 1225 l 257
 443 622 l 257
 409 622 l 257
 409 1242 l 257
550 121 m 257
 522 137 l 257
 1228 1359 l 257
 1256 1343 l 257
 550 121 l 257
EndSplineSet
Substitution2: "ss06StyleSet6lookups58 subtable" onequarter.ss06
Substitution2: "ss02Alternativenumbersset2 subtable" onequarter.cv11
Substitution2: "ss01Alternativenumbersset1 subtable" onequarter.cv01
Substitution2: "cv14Alternativedigit42 subtable" onequarter.cv14
Substitution2: "cv11Alternativedigit12 subtable" onequarter.cv11
Substitution2: "cv04Alternativedigit41 subtable" onequarter.cv04
Substitution2: "cv01Alternativedigit11 subtable" onequarter.cv01
EndChar

StartChar: onehalf
Encoding: 189 189 191
GlifName: onehalf
Width: 1778
VWidth: 0
GlyphClass: 2
Flags: HW
LayerCount: 2
Fore
SplineSet
1109 0 m 257
 1109 67 1111 177 1365 322 c 256
 1528 415 1590 481 1590 606 c 256
 1590 745 1501 834 1368 834 c 256
 1232 834 1146 723 1146 572 c 256
 1146 570 1146 568 1147 564 c 257
 1113 572 l 257
 1113 751 1222 864 1368 864 c 256
 1514 864 1623 772 1623 606 c 256
 1623 444 1500 363 1370 289 c 256
 1251 221 1157 146 1143 30 c 257
 1628 30 l 257
 1628 0 l 257
 1141 0 l 257
 1118 0 l 257
 1109 0 l 257
409 1242 m 257
 215 1242 l 257
 215 1273 l 257
 299 1273 l 258
 396 1273 409 1290 409 1396 c 258
 409 1480 l 257
 443 1480 l 257
 443 1225 l 257
 443 622 l 257
 409 622 l 257
 409 1242 l 257
550 121 m 257
 522 137 l 257
 1228 1359 l 257
 1256 1343 l 257
 550 121 l 257
EndSplineSet
Substitution2: "ss06StyleSet6lookups58 subtable" onehalf.ss06
Substitution2: "ss02Alternativenumbersset2 subtable" onehalf.cv11
Substitution2: "ss01Alternativenumbersset1 subtable" onehalf.cv01
Substitution2: "cv12Alternativedigit22 subtable" onehalf.cv12
Substitution2: "cv11Alternativedigit12 subtable" onehalf.cv11
Substitution2: "cv02Alternativedigit21 subtable" onehalf.cv02
Substitution2: "cv01Alternativedigit11 subtable" onehalf.cv01
EndChar

StartChar: uni2156
Encoding: 8534 8534 192
GlifName: uni2156
Width: 1778
VWidth: 0
GlyphClass: 2
Flags: HW
LayerCount: 2
Fore
SplineSet
1124 415 m 257
 1190 858 l 257
 1201 858 l 257
 1216 858 l 257
 1596 858 l 257
 1596 828 l 257
 1214 828 l 257
 1160 464 l 257
 1203 528 1264 567 1370 567 c 256
 1515 567 1636 449 1636 280 c 256
 1636 111 1523 -6 1368 -6 c 256
 1213 -6 1107 83 1104 222 c 257
 1136 229 l 257
 1136 97 1238 24 1368 24 c 256
 1517 24 1602 148 1602 280 c 256
 1602 412 1511 536 1368 536 c 256
 1225 536 1183 459 1152 407 c 257
 1124 415 l 257
150 622 m 257
 150 689 152 799 406 944 c 256
 569 1037 631 1103 631 1228 c 256
 631 1367 542 1456 409 1456 c 256
 273 1456 187 1345 187 1194 c 256
 187 1192 187 1190 188 1186 c 257
 154 1194 l 257
 154 1373 263 1486 409 1486 c 256
 555 1486 664 1394 664 1228 c 256
 664 1066 541 985 411 911 c 256
 292 843 198 768 184 652 c 257
 669 652 l 257
 669 622 l 257
 182 622 l 257
 159 622 l 257
 150 622 l 257
550 121 m 257
 522 137 l 257
 1228 1359 l 257
 1256 1343 l 257
 550 121 l 257
EndSplineSet
Substitution2: "ss02Alternativenumbersset2 subtable" uni2156.cv12
Substitution2: "ss01Alternativenumbersset1 subtable" uni2156.cv02
Substitution2: "cv15Alternativedigit52 subtable" uni2156.cv15
Substitution2: "cv12Alternativedigit22 subtable" uni2156.cv12
Substitution2: "cv05Alternativedigit51 subtable" uni2156.cv05
Substitution2: "cv02Alternativedigit21 subtable" uni2156.cv02
EndChar

StartChar: twothirds
Encoding: 8532 8532 193
GlifName: twothirds
Width: 1778
VWidth: 0
GlyphClass: 2
Flags: HW
LayerCount: 2
Fore
SplineSet
1367 464 m 258
 1483 464 1572 538 1572 649 c 256
 1572 765 1483 834 1367 834 c 256
 1237 834 1147 761 1147 629 c 257
 1114 636 l 257
 1117 775 1213 864 1368 864 c 256
 1512 864 1605 782 1605 652 c 256
 1605 522 1513 457 1447 449 c 257
 1518 435 1641 367 1641 226 c 256
 1641 85 1528 -6 1369 -6 c 256
 1211 -6 1103 83 1100 222 c 257
 1133 229 l 257
 1133 97 1236 24 1369 24 c 256
 1502 24 1608 97 1608 229 c 256
 1608 361 1478 434 1368 434 c 258
 1319 434 l 257
 1319 464 l 257
 1367 464 l 258
150 622 m 257
 150 689 152 799 406 944 c 256
 569 1037 631 1103 631 1228 c 256
 631 1367 542 1456 409 1456 c 256
 273 1456 187 1345 187 1194 c 256
 187 1192 187 1190 188 1186 c 257
 154 1194 l 257
 154 1373 263 1486 409 1486 c 256
 555 1486 664 1394 664 1228 c 256
 664 1066 541 985 411 911 c 256
 292 843 198 768 184 652 c 257
 669 652 l 257
 669 622 l 257
 182 622 l 257
 159 622 l 257
 150 622 l 257
550 121 m 257
 522 137 l 257
 1228 1359 l 257
 1256 1343 l 257
 550 121 l 257
EndSplineSet
Substitution2: "ss02Alternativenumbersset2 subtable" twothirds.cv12
Substitution2: "ss01Alternativenumbersset1 subtable" twothirds.cv02
Substitution2: "cv13Alternativedigit32 subtable" twothirds.cv13
Substitution2: "cv12Alternativedigit22 subtable" twothirds.cv12
Substitution2: "cv03Alternativedigit31 subtable" twothirds.cv03
Substitution2: "cv02Alternativedigit21 subtable" twothirds.cv02
EndChar

StartChar: uni215F
Encoding: 8543 8543 194
GlifName: uni215F_
Width: 1758
VWidth: 0
GlyphClass: 2
Flags: HW
LayerCount: 2
Fore
SplineSet
399 1242 m 257
 205 1242 l 257
 205 1273 l 257
 289 1273 l 258
 386 1273 399 1290 399 1396 c 258
 399 1480 l 257
 433 1480 l 257
 433 1225 l 257
 433 622 l 257
 399 622 l 257
 399 1242 l 257
540 121 m 257
 512 137 l 257
 1218 1359 l 257
 1246 1343 l 257
 540 121 l 257
EndSplineSet
Substitution2: "ss06StyleSet6lookups58 subtable" uni215F.ss06
Substitution2: "ss02Alternativenumbersset2 subtable" uni215F.cv11
Substitution2: "ss01Alternativenumbersset1 subtable" uni215F.cv01
Substitution2: "cv11Alternativedigit12 subtable" uni215F.cv11
Substitution2: "cv01Alternativedigit11 subtable" uni215F.cv01
EndChar

StartChar: uni2150
Encoding: 8528 8528 195
GlifName: uni2150
Width: 1778
VWidth: 0
GlyphClass: 2
Flags: HW
LayerCount: 2
Fore
SplineSet
1114 828 m 257
 1114 858 l 257
 1622 858 l 257
 1622 831 l 257
 1622 831 1339 482 1302 0 c 257
 1297 0 1274 0 1269 0 c 257
 1303 450 1545 780 1582 828 c 257
 1114 828 l 257
409 1242 m 257
 215 1242 l 257
 215 1273 l 257
 299 1273 l 258
 396 1273 409 1290 409 1396 c 258
 409 1480 l 257
 443 1480 l 257
 443 1225 l 257
 443 622 l 257
 409 622 l 257
 409 1242 l 257
550 121 m 257
 522 137 l 257
 1228 1359 l 257
 1256 1343 l 257
 550 121 l 257
EndSplineSet
Substitution2: "ss07StyleSet7lookups59 subtable" uni2150.ss07
Substitution2: "ss06StyleSet6lookups58 subtable" uni2150.ss06
Substitution2: "ss02Alternativenumbersset2 subtable" uni2150.cv11
Substitution2: "ss01Alternativenumbersset1 subtable" uni2150.cv01
Substitution2: "cv17Alternativedigit72 subtable" uni2150.cv17
Substitution2: "cv11Alternativedigit12 subtable" uni2150.cv11
Substitution2: "cv07Alternativedigit71 subtable" uni2150.cv07
Substitution2: "cv01Alternativedigit11 subtable" uni2150.cv01
EndChar

StartChar: uni2151
Encoding: 8529 8529 196
GlifName: uni2151
Width: 1778
VWidth: 0
GlyphClass: 2
Flags: HW
LayerCount: 2
Fore
SplineSet
1623 511 m 257
 1601 367 1496 291 1367 291 c 256
 1222 291 1102 409 1102 578 c 256
 1102 747 1222 864 1368 864 c 256
 1480 864 1577 795 1616 687 c 256
 1634 646 1658 569 1658 447 c 256
 1658 147 1512 -6 1325 -6 c 256
 1187 -6 1130 74 1130 74 c 257
 1148 101 l 257
 1148 101 1198 24 1333 24 c 256
 1468 24 1646 143 1623 511 c 257
1606 578 m 256
 1606 710 1519 834 1370 834 c 256
 1221 834 1135 710 1135 578 c 256
 1135 446 1227 322 1370 322 c 256
 1513 322 1606 446 1606 578 c 256
409 1242 m 257
 215 1242 l 257
 215 1273 l 257
 299 1273 l 258
 396 1273 409 1290 409 1396 c 258
 409 1480 l 257
 443 1480 l 257
 443 1225 l 257
 443 622 l 257
 409 622 l 257
 409 1242 l 257
550 121 m 257
 522 137 l 257
 1228 1359 l 257
 1256 1343 l 257
 550 121 l 257
EndSplineSet
Substitution2: "ss06StyleSet6lookups58 subtable" uni2151.ss06
Substitution2: "ss02Alternativenumbersset2 subtable" uni2151.cv11
Substitution2: "ss01Alternativenumbersset1 subtable" uni2151.cv01
Substitution2: "cv19Alternativedigit92 subtable" uni2151.cv19
Substitution2: "cv11Alternativedigit12 subtable" uni2151.cv11
Substitution2: "cv09Alternativedigit91 subtable" uni2151.cv09
Substitution2: "cv01Alternativedigit11 subtable" uni2151.cv01
EndChar

StartChar: uni2152
Encoding: 8530 8530 197
GlifName: uni2152
Width: 2011
VWidth: 0
GlyphClass: 2
Flags: HW
LayerCount: 2
Fore
SplineSet
1377 429 m 256
 1377 162 1478 24 1617 24 c 256
 1756 24 1857 162 1857 429 c 256
 1857 696 1756 834 1617 834 c 256
 1478 834 1377 696 1377 429 c 256
1345 429 m 256
 1345 719 1460 864 1617 864 c 256
 1774 864 1891 719 1891 429 c 256
 1891 139 1774 -6 1617 -6 c 256
 1460 -6 1345 139 1345 429 c 256
1171 620 m 257
 977 620 l 257
 977 651 l 257
 1061 651 l 258
 1158 651 1171 668 1171 774 c 258
 1171 858 l 257
 1205 858 l 257
 1205 603 l 257
 1205 0 l 257
 1171 0 l 257
 1171 620 l 257
409 1242 m 257
 215 1242 l 257
 215 1273 l 257
 299 1273 l 258
 396 1273 409 1290 409 1396 c 258
 409 1480 l 257
 443 1480 l 257
 443 1225 l 257
 443 622 l 257
 409 622 l 257
 409 1242 l 257
549 121 m 257
 521 137 l 257
 1227 1359 l 257
 1255 1343 l 257
 549 121 l 257
EndSplineSet
Substitution2: "zeroSlashedZerolookups61 subtable" uni2152.zero
Substitution2: "ss06StyleSet6lookups58 subtable" uni2152.ss06
Substitution2: "ss02Alternativenumbersset2 subtable" uni2152.cv11
Substitution2: "ss01Alternativenumbersset1 subtable" uni2152.cv01
Substitution2: "cv20Alternativedigit02 subtable" uni2152.cv20
Substitution2: "cv11Alternativedigit12 subtable" uni2152.cv11
Substitution2: "cv10Alternativedigit01 subtable" uni2152.cv10
Substitution2: "cv01Alternativedigit11 subtable" uni2152.cv01
EndChar

StartChar: onethird
Encoding: 8531 8531 198
GlifName: onethird
Width: 1778
VWidth: 0
GlyphClass: 2
Flags: HW
LayerCount: 2
Fore
SplineSet
1367 464 m 258
 1483 464 1572 538 1572 649 c 256
 1572 765 1483 834 1367 834 c 256
 1237 834 1147 761 1147 629 c 257
 1114 636 l 257
 1117 775 1213 864 1368 864 c 256
 1512 864 1605 782 1605 652 c 256
 1605 522 1513 457 1447 449 c 257
 1518 435 1641 367 1641 226 c 256
 1641 85 1528 -6 1369 -6 c 256
 1211 -6 1103 83 1100 222 c 257
 1133 229 l 257
 1133 97 1236 24 1369 24 c 256
 1502 24 1608 97 1608 229 c 256
 1608 361 1478 434 1368 434 c 258
 1319 434 l 257
 1319 464 l 257
 1367 464 l 258
409 1242 m 257
 215 1242 l 257
 215 1273 l 257
 299 1273 l 258
 396 1273 409 1290 409 1396 c 258
 409 1480 l 257
 443 1480 l 257
 443 1225 l 257
 443 622 l 257
 409 622 l 257
 409 1242 l 257
550 121 m 257
 522 137 l 257
 1228 1359 l 257
 1256 1343 l 257
 550 121 l 257
EndSplineSet
Substitution2: "ss06StyleSet6lookups58 subtable" onethird.ss06
Substitution2: "ss02Alternativenumbersset2 subtable" onethird.cv11
Substitution2: "ss01Alternativenumbersset1 subtable" onethird.cv01
Substitution2: "cv13Alternativedigit32 subtable" onethird.cv13
Substitution2: "cv11Alternativedigit12 subtable" onethird.cv11
Substitution2: "cv03Alternativedigit31 subtable" onethird.cv03
Substitution2: "cv01Alternativedigit11 subtable" onethird.cv01
EndChar

StartChar: uni2159
Encoding: 8537 8537 199
GlifName: uni2159
Width: 1778
VWidth: 0
GlyphClass: 2
Flags: HW
LayerCount: 2
Fore
SplineSet
1113 347 m 257
 1135 491 1240 567 1369 567 c 256
 1514 567 1634 449 1634 280 c 256
 1634 111 1514 -6 1368 -6 c 256
 1256 -6 1159 63 1120 171 c 256
 1102 212 1078 289 1078 411 c 256
 1078 711 1224 864 1411 864 c 256
 1549 864 1606 784 1606 784 c 257
 1588 757 l 257
 1588 757 1538 834 1403 834 c 256
 1268 834 1090 715 1113 347 c 257
1130 280 m 256
 1130 148 1217 24 1366 24 c 256
 1515 24 1601 148 1601 280 c 256
 1601 412 1509 536 1366 536 c 256
 1223 536 1130 412 1130 280 c 256
409 1242 m 257
 215 1242 l 257
 215 1273 l 257
 299 1273 l 258
 396 1273 409 1290 409 1396 c 258
 409 1480 l 257
 443 1480 l 257
 443 1225 l 257
 443 622 l 257
 409 622 l 257
 409 1242 l 257
550 121 m 257
 522 137 l 257
 1228 1359 l 257
 1256 1343 l 257
 550 121 l 257
EndSplineSet
Substitution2: "ss06StyleSet6lookups58 subtable" uni2159.ss06
Substitution2: "ss02Alternativenumbersset2 subtable" uni2159.cv11
Substitution2: "ss01Alternativenumbersset1 subtable" uni2159.cv01
Substitution2: "cv16Alternativedigit62 subtable" uni2159.cv16
Substitution2: "cv11Alternativedigit12 subtable" uni2159.cv11
Substitution2: "cv06Alternativedigit61 subtable" uni2159.cv06
Substitution2: "cv01Alternativedigit11 subtable" uni2159.cv01
EndChar

StartChar: oneeighth
Encoding: 8539 8539 200
GlifName: oneeighth
Width: 1778
VWidth: 0
GlyphClass: 2
Flags: HW
LayerCount: 2
Fore
SplineSet
1088 226 m 256
 1088 367 1214 435 1286 449 c 257
 1219 457 1117 522 1117 652 c 256
 1117 782 1220 864 1368 864 c 256
 1516 864 1619 782 1619 652 c 256
 1619 522 1518 457 1451 449 c 257
 1523 435 1648 367 1648 226 c 256
 1648 85 1532 -6 1368 -6 c 256
 1204 -6 1088 85 1088 226 c 256
1150 649 m 256
 1150 538 1249 464 1368 464 c 256
 1487 464 1586 538 1586 649 c 256
 1586 765 1487 834 1368 834 c 256
 1249 834 1150 765 1150 649 c 256
1368 434 m 256
 1255 434 1121 361 1121 229 c 256
 1121 97 1231 24 1368 24 c 256
 1505 24 1615 97 1615 229 c 256
 1615 361 1481 434 1368 434 c 256
409 1242 m 257
 215 1242 l 257
 215 1273 l 257
 299 1273 l 258
 396 1273 409 1290 409 1396 c 258
 409 1480 l 257
 443 1480 l 257
 443 1225 l 257
 443 622 l 257
 409 622 l 257
 409 1242 l 257
550 121 m 257
 522 137 l 257
 1228 1359 l 257
 1256 1343 l 257
 550 121 l 257
EndSplineSet
Substitution2: "ss06StyleSet6lookups58 subtable" oneeighth.ss06
Substitution2: "ss02Alternativenumbersset2 subtable" oneeighth.cv11
Substitution2: "ss01Alternativenumbersset1 subtable" oneeighth.cv01
Substitution2: "cv18Alternativedigit82 subtable" oneeighth.cv18
Substitution2: "cv11Alternativedigit12 subtable" oneeighth.cv11
Substitution2: "cv08Alternativedigit81 subtable" oneeighth.cv08
Substitution2: "cv01Alternativedigit11 subtable" oneeighth.cv01
EndChar

StartChar: uni2155
Encoding: 8533 8533 201
GlifName: uni2155
Width: 1778
VWidth: 0
GlyphClass: 2
Flags: HW
LayerCount: 2
Fore
SplineSet
1124 415 m 257
 1190 858 l 257
 1201 858 l 257
 1216 858 l 257
 1596 858 l 257
 1596 828 l 257
 1214 828 l 257
 1160 464 l 257
 1203 528 1264 567 1370 567 c 256
 1515 567 1636 449 1636 280 c 256
 1636 111 1523 -6 1368 -6 c 256
 1213 -6 1107 83 1104 222 c 257
 1136 229 l 257
 1136 97 1238 24 1368 24 c 256
 1517 24 1602 148 1602 280 c 256
 1602 412 1511 536 1368 536 c 256
 1225 536 1183 459 1152 407 c 257
 1124 415 l 257
409 1242 m 257
 215 1242 l 257
 215 1273 l 257
 299 1273 l 258
 396 1273 409 1290 409 1396 c 258
 409 1480 l 257
 443 1480 l 257
 443 1225 l 257
 443 622 l 257
 409 622 l 257
 409 1242 l 257
550 121 m 257
 522 137 l 257
 1228 1359 l 257
 1256 1343 l 257
 550 121 l 257
EndSplineSet
Substitution2: "ss06StyleSet6lookups58 subtable" uni2155.ss06
Substitution2: "ss02Alternativenumbersset2 subtable" uni2155.cv11
Substitution2: "ss01Alternativenumbersset1 subtable" uni2155.cv01
Substitution2: "cv15Alternativedigit52 subtable" uni2155.cv15
Substitution2: "cv11Alternativedigit12 subtable" uni2155.cv11
Substitution2: "cv05Alternativedigit51 subtable" uni2155.cv05
Substitution2: "cv01Alternativedigit11 subtable" uni2155.cv01
EndChar

StartChar: uni2157
Encoding: 8535 8535 202
GlifName: uni2157
Width: 1778
VWidth: 0
GlyphClass: 2
Flags: HW
LayerCount: 2
Fore
SplineSet
1124 415 m 257
 1190 858 l 257
 1201 858 l 257
 1216 858 l 257
 1596 858 l 257
 1596 828 l 257
 1214 828 l 257
 1160 464 l 257
 1203 528 1264 567 1370 567 c 256
 1515 567 1636 449 1636 280 c 256
 1636 111 1523 -6 1368 -6 c 256
 1213 -6 1107 83 1104 222 c 257
 1136 229 l 257
 1136 97 1238 24 1368 24 c 256
 1517 24 1602 148 1602 280 c 256
 1602 412 1511 536 1368 536 c 256
 1225 536 1183 459 1152 407 c 257
 1124 415 l 257
408 1086 m 258
 524 1086 613 1160 613 1271 c 256
 613 1387 524 1456 408 1456 c 256
 278 1456 188 1383 188 1251 c 257
 155 1258 l 257
 158 1397 254 1486 409 1486 c 256
 553 1486 646 1404 646 1274 c 256
 646 1144 554 1079 488 1071 c 257
 559 1057 682 989 682 848 c 256
 682 707 569 616 410 616 c 256
 252 616 144 705 141 844 c 257
 174 851 l 257
 174 719 277 646 410 646 c 256
 543 646 649 719 649 851 c 256
 649 983 519 1056 409 1056 c 258
 360 1056 l 257
 360 1086 l 257
 408 1086 l 258
550 121 m 257
 522 137 l 257
 1228 1359 l 257
 1256 1343 l 257
 550 121 l 257
EndSplineSet
Substitution2: "ss02Alternativenumbersset2 subtable" uni2157.cv13
Substitution2: "ss01Alternativenumbersset1 subtable" uni2157.cv03
Substitution2: "cv15Alternativedigit52 subtable" uni2157.cv15
Substitution2: "cv13Alternativedigit32 subtable" uni2157.cv13
Substitution2: "cv05Alternativedigit51 subtable" uni2157.cv05
Substitution2: "cv03Alternativedigit31 subtable" uni2157.cv03
EndChar

StartChar: uni2158
Encoding: 8536 8536 203
GlifName: uni2158
Width: 1778
VWidth: 0
GlyphClass: 2
Flags: HW
LayerCount: 2
Fore
SplineSet
1124 415 m 257
 1190 858 l 257
 1201 858 l 257
 1216 858 l 257
 1596 858 l 257
 1596 828 l 257
 1214 828 l 257
 1160 464 l 257
 1203 528 1264 567 1370 567 c 256
 1515 567 1636 449 1636 280 c 256
 1636 111 1523 -6 1368 -6 c 256
 1213 -6 1107 83 1104 222 c 257
 1136 229 l 257
 1136 97 1238 24 1368 24 c 256
 1517 24 1602 148 1602 280 c 256
 1602 412 1511 536 1368 536 c 256
 1225 536 1183 459 1152 407 c 257
 1124 415 l 257
473 1480 m 257
 433 1480 l 257
 155 868 l 257
 155 844 l 257
 487 844 l 257
 487 622 l 257
 520 622 l 257
 520 844 l 257
 663 844 l 257
 663 875 l 257
 520 875 l 257
 520 1091 l 257
 487 1091 l 257
 487 875 l 257
 197 875 l 257
 473 1480 l 257
550 121 m 257
 522 137 l 257
 1228 1359 l 257
 1256 1343 l 257
 550 121 l 257
EndSplineSet
Substitution2: "ss02Alternativenumbersset2 subtable" uni2158.cv14
Substitution2: "ss01Alternativenumbersset1 subtable" uni2158.cv04
Substitution2: "cv15Alternativedigit52 subtable" uni2158.cv15
Substitution2: "cv14Alternativedigit42 subtable" uni2158.cv14
Substitution2: "cv05Alternativedigit51 subtable" uni2158.cv05
Substitution2: "cv04Alternativedigit41 subtable" uni2158.cv04
EndChar

StartChar: uni215A
Encoding: 8538 8538 204
GlifName: uni215A_
Width: 1778
VWidth: 0
GlyphClass: 2
Flags: HW
LayerCount: 2
Fore
SplineSet
1113 347 m 257
 1135 491 1240 567 1369 567 c 256
 1514 567 1634 449 1634 280 c 256
 1634 111 1514 -6 1368 -6 c 256
 1256 -6 1159 63 1120 171 c 256
 1102 212 1078 289 1078 411 c 256
 1078 711 1224 864 1411 864 c 256
 1549 864 1606 784 1606 784 c 257
 1588 757 l 257
 1588 757 1538 834 1403 834 c 256
 1268 834 1090 715 1113 347 c 257
1130 280 m 256
 1130 148 1217 24 1366 24 c 256
 1515 24 1601 148 1601 280 c 256
 1601 412 1509 536 1366 536 c 256
 1223 536 1130 412 1130 280 c 256
165 1037 m 257
 231 1480 l 257
 241 1480 l 257
 257 1480 l 257
 637 1480 l 257
 637 1450 l 257
 255 1450 l 257
 201 1086 l 257
 244 1150 305 1189 411 1189 c 256
 556 1189 677 1071 677 902 c 256
 677 733 564 616 409 616 c 256
 254 616 148 705 145 844 c 257
 177 851 l 257
 177 719 279 646 409 646 c 256
 558 646 643 770 643 902 c 256
 643 1034 552 1158 409 1158 c 256
 266 1158 224 1081 193 1029 c 257
 165 1037 l 257
550 121 m 257
 522 137 l 257
 1228 1359 l 257
 1256 1343 l 257
 550 121 l 257
EndSplineSet
Substitution2: "ss02Alternativenumbersset2 subtable" uni215A.cv15
Substitution2: "ss01Alternativenumbersset1 subtable" uni215A.cv05
Substitution2: "cv16Alternativedigit62 subtable" uni215A.cv16
Substitution2: "cv15Alternativedigit52 subtable" uni215A.cv15
Substitution2: "cv06Alternativedigit61 subtable" uni215A.cv06
Substitution2: "cv05Alternativedigit51 subtable" uni215A.cv05
EndChar

StartChar: threeeighths
Encoding: 8540 8540 205
GlifName: threeeighths
Width: 1778
VWidth: 0
GlyphClass: 2
Flags: HW
LayerCount: 2
Fore
SplineSet
1088 226 m 256
 1088 367 1214 435 1286 449 c 257
 1219 457 1117 522 1117 652 c 256
 1117 782 1220 864 1368 864 c 256
 1516 864 1619 782 1619 652 c 256
 1619 522 1518 457 1451 449 c 257
 1523 435 1648 367 1648 226 c 256
 1648 85 1532 -6 1368 -6 c 256
 1204 -6 1088 85 1088 226 c 256
1150 649 m 256
 1150 538 1249 464 1368 464 c 256
 1487 464 1586 538 1586 649 c 256
 1586 765 1487 834 1368 834 c 256
 1249 834 1150 765 1150 649 c 256
1368 434 m 256
 1255 434 1121 361 1121 229 c 256
 1121 97 1231 24 1368 24 c 256
 1505 24 1615 97 1615 229 c 256
 1615 361 1481 434 1368 434 c 256
408 1086 m 258
 524 1086 613 1160 613 1271 c 256
 613 1387 524 1456 408 1456 c 256
 278 1456 188 1383 188 1251 c 257
 155 1258 l 257
 158 1397 254 1486 409 1486 c 256
 553 1486 646 1404 646 1274 c 256
 646 1144 554 1079 488 1071 c 257
 559 1057 682 989 682 848 c 256
 682 707 569 616 410 616 c 256
 252 616 144 705 141 844 c 257
 174 851 l 257
 174 719 277 646 410 646 c 256
 543 646 649 719 649 851 c 256
 649 983 519 1056 409 1056 c 258
 360 1056 l 257
 360 1086 l 257
 408 1086 l 258
550 121 m 257
 522 137 l 257
 1228 1359 l 257
 1256 1343 l 257
 550 121 l 257
EndSplineSet
Substitution2: "ss02Alternativenumbersset2 subtable" threeeighths.cv13
Substitution2: "ss01Alternativenumbersset1 subtable" threeeighths.cv03
Substitution2: "cv18Alternativedigit82 subtable" threeeighths.cv18
Substitution2: "cv13Alternativedigit32 subtable" threeeighths.cv13
Substitution2: "cv08Alternativedigit81 subtable" threeeighths.cv08
Substitution2: "cv03Alternativedigit31 subtable" threeeighths.cv03
EndChar

StartChar: fiveeighths
Encoding: 8541 8541 206
GlifName: fiveeighths
Width: 1778
VWidth: 0
GlyphClass: 2
Flags: HW
LayerCount: 2
Fore
SplineSet
1088 226 m 256
 1088 367 1214 435 1286 449 c 257
 1219 457 1117 522 1117 652 c 256
 1117 782 1220 864 1368 864 c 256
 1516 864 1619 782 1619 652 c 256
 1619 522 1518 457 1451 449 c 257
 1523 435 1648 367 1648 226 c 256
 1648 85 1532 -6 1368 -6 c 256
 1204 -6 1088 85 1088 226 c 256
1150 649 m 256
 1150 538 1249 464 1368 464 c 256
 1487 464 1586 538 1586 649 c 256
 1586 765 1487 834 1368 834 c 256
 1249 834 1150 765 1150 649 c 256
1368 434 m 256
 1255 434 1121 361 1121 229 c 256
 1121 97 1231 24 1368 24 c 256
 1505 24 1615 97 1615 229 c 256
 1615 361 1481 434 1368 434 c 256
165 1037 m 257
 231 1480 l 257
 241 1480 l 257
 257 1480 l 257
 637 1480 l 257
 637 1450 l 257
 255 1450 l 257
 201 1086 l 257
 244 1150 305 1189 411 1189 c 256
 556 1189 677 1071 677 902 c 256
 677 733 564 616 409 616 c 256
 254 616 148 705 145 844 c 257
 177 851 l 257
 177 719 279 646 409 646 c 256
 558 646 643 770 643 902 c 256
 643 1034 552 1158 409 1158 c 256
 266 1158 224 1081 193 1029 c 257
 165 1037 l 257
550 121 m 257
 522 137 l 257
 1228 1359 l 257
 1256 1343 l 257
 550 121 l 257
EndSplineSet
Substitution2: "ss02Alternativenumbersset2 subtable" fiveeighths.cv15
Substitution2: "ss01Alternativenumbersset1 subtable" fiveeighths.cv05
Substitution2: "cv18Alternativedigit82 subtable" fiveeighths.cv18
Substitution2: "cv15Alternativedigit52 subtable" fiveeighths.cv15
Substitution2: "cv08Alternativedigit81 subtable" fiveeighths.cv08
Substitution2: "cv05Alternativedigit51 subtable" fiveeighths.cv05
EndChar

StartChar: seveneighths
Encoding: 8542 8542 207
GlifName: seveneighths
Width: 1778
VWidth: 0
GlyphClass: 2
Flags: HW
LayerCount: 2
Fore
SplineSet
1088 226 m 256
 1088 367 1214 435 1286 449 c 257
 1219 457 1117 522 1117 652 c 256
 1117 782 1220 864 1368 864 c 256
 1516 864 1619 782 1619 652 c 256
 1619 522 1518 457 1451 449 c 257
 1523 435 1648 367 1648 226 c 256
 1648 85 1532 -6 1368 -6 c 256
 1204 -6 1088 85 1088 226 c 256
1150 649 m 256
 1150 538 1249 464 1368 464 c 256
 1487 464 1586 538 1586 649 c 256
 1586 765 1487 834 1368 834 c 256
 1249 834 1150 765 1150 649 c 256
1368 434 m 256
 1255 434 1121 361 1121 229 c 256
 1121 97 1231 24 1368 24 c 256
 1505 24 1615 97 1615 229 c 256
 1615 361 1481 434 1368 434 c 256
156 1450 m 257
 156 1480 l 257
 664 1480 l 257
 664 1453 l 257
 664 1453 381 1104 344 622 c 257
 339 622 316 622 311 622 c 257
 345 1072 587 1402 624 1450 c 257
 156 1450 l 257
550 121 m 257
 522 137 l 257
 1228 1359 l 257
 1256 1343 l 257
 550 121 l 257
EndSplineSet
Substitution2: "ss07StyleSet7lookups59 subtable" seveneighths.ss07
Substitution2: "ss02Alternativenumbersset2 subtable" seveneighths.cv17
Substitution2: "ss01Alternativenumbersset1 subtable" seveneighths.cv07
Substitution2: "cv18Alternativedigit82 subtable" seveneighths.cv18
Substitution2: "cv17Alternativedigit72 subtable" seveneighths.cv17
Substitution2: "cv08Alternativedigit81 subtable" seveneighths.cv08
Substitution2: "cv07Alternativedigit71 subtable" seveneighths.cv07
EndChar

StartChar: uni2189
Encoding: 8585 8585 208
GlifName: uni2189
Width: 1778
VWidth: 0
GlyphClass: 2
Flags: HW
LayerCount: 2
Fore
SplineSet
169 1051 m 256
 169 784 270 646 409 646 c 256
 548 646 649 784 649 1051 c 256
 649 1318 548 1456 409 1456 c 256
 270 1456 169 1318 169 1051 c 256
136 1051 m 256
 136 1341 252 1486 409 1486 c 256
 566 1486 682 1341 682 1051 c 256
 682 761 566 616 409 616 c 256
 252 616 136 761 136 1051 c 256
1367 464 m 258
 1483 464 1572 538 1572 649 c 256
 1572 765 1483 834 1367 834 c 256
 1237 834 1147 761 1147 629 c 257
 1114 636 l 257
 1117 775 1213 864 1368 864 c 256
 1512 864 1605 782 1605 652 c 256
 1605 522 1513 457 1447 449 c 257
 1518 435 1641 367 1641 226 c 256
 1641 85 1528 -6 1369 -6 c 256
 1211 -6 1103 83 1100 222 c 257
 1133 229 l 257
 1133 97 1236 24 1369 24 c 256
 1502 24 1608 97 1608 229 c 256
 1608 361 1478 434 1368 434 c 258
 1319 434 l 257
 1319 464 l 257
 1367 464 l 258
550 121 m 257
 522 137 l 257
 1228 1359 l 257
 1256 1343 l 257
 550 121 l 257
EndSplineSet
Substitution2: "zeroSlashedZerolookups61 subtable" uni2189.zero
Substitution2: "ss02Alternativenumbersset2 subtable" uni2189.cv13
Substitution2: "ss01Alternativenumbersset1 subtable" uni2189.cv03
Substitution2: "cv20Alternativedigit02 subtable" uni2189.cv20
Substitution2: "cv13Alternativedigit32 subtable" uni2189.cv13
Substitution2: "cv10Alternativedigit01 subtable" uni2189.cv10
Substitution2: "cv03Alternativedigit31 subtable" uni2189.cv03
EndChar

StartChar: AE
Encoding: 198 198 209
GlifName: A_E_
Width: 2006
VWidth: 0
GlyphClass: 2
Flags: HW
AnchorPoint: "bottom_center" 1010 0 basechar 0
AnchorPoint: "top_center" 1318 1380 basechar 0
LayerCount: 2
Fore
SplineSet
960 1438 m 257
 960 1480 l 257
 1010 1480 l 257
 1010 1438 l 257
 960 1438 l 257
439 541 m 257
 1031 541 l 257
 1031 499 l 257
 439 499 l 257
 439 541 l 257
120 0 m 257
 960 1480 l 257
 1010 1480 l 257
 175 0 l 257
 120 0 l 257
1743 761 m 257
 1743 719 l 257
 1056 719 l 257
 1056 42 l 257
 1826 42 l 257
 1826 0 l 257
 1010 0 l 257
 1010 1480 l 257
 1826 1480 l 257
 1826 1438 l 257
 1056 1438 l 257
 1056 761 l 257
 1743 761 l 257
EndSplineSet
EndChar

StartChar: multiply
Encoding: 215 215 210
GlifName: multiply
Width: 1198
VWidth: 0
GlyphClass: 2
Flags: HW
LayerCount: 2
Fore
SplineSet
180 1058 m 257
 987 251 l 257
 1018 282 l 257
 211 1089 l 257
 180 1058 l 257
211 251 m 257
 1018 1058 l 257
 987 1089 l 257
 180 282 l 257
 211 251 l 257
EndSplineSet
EndChar

StartChar: Eth
Encoding: 208 208 211
GlifName: E_th
Width: 1352
VWidth: 0
GlyphClass: 2
Flags: HW
LayerCount: 2
Fore
SplineSet
590 719 m 257
 590 761 l 257
 0 761 l 257
 0 715 0 765 0 719 c 257
 590 719 l 257
256 1438 m 257
 626 1438 l 257
 864 1438 1166 1240 1166 740 c 256
 1166 240 864 42 626 42 c 257
 256 42 l 257
 256 1438 l 257
626 0 m 257
 960 0 1212 290 1212 740 c 256
 1212 1190 960 1480 626 1480 c 257
 210 1480 l 257
 210 0 l 257
 377 0 l 257
 626 0 l 257
EndSplineSet
EndChar

StartChar: Oslash
Encoding: 216 216 212
GlifName: O_slash
Width: 1514
VWidth: 0
GlyphClass: 2
Flags: HW
AnchorPoint: "bottom_center" 757 0 basechar 0
AnchorPoint: "top_center" 757 1380 basechar 0
LayerCount: 2
Fore
SplineSet
1334 1526 m 257
 1366 1502 l 257
 180 -46 l 257
 148 -22 l 257
 1334 1526 l 257
186 740 m 256
 186 265 497 32 757 32 c 256
 1017 32 1328 265 1328 740 c 256
 1328 1215 1017 1448 757 1448 c 256
 497 1448 186 1215 186 740 c 256
140 740 m 256
 140 1179 409 1490 757 1490 c 256
 1105 1490 1374 1179 1374 740 c 256
 1374 301 1105 -10 757 -10 c 256
 409 -10 140 301 140 740 c 256
EndSplineSet
Substitution2: "c2sc_CapitalesverspetitescapitalesdansLatinlookup0 subtable" oslash.sc
EndChar

StartChar: Thorn
Encoding: 222 222 213
GlifName: T_horn
Width: 1154
VWidth: 0
GlyphClass: 2
Flags: HW
LayerCount: 2
Fore
SplineSet
226 1121 m 257
 226 359 l 257
 595 359 l 257
 820 359 968 540 968 740 c 256
 968 940 820 1121 595 1121 c 257
 226 1121 l 257
180 0 m 257
 180 1029 l 257
 180 1480 l 257
 226 1480 l 257
 226 1163 l 257
 595 1163 l 257
 819 1163 1014 995 1014 740 c 256
 1014 485 819 317 595 317 c 257
 226 317 l 257
 226 0 l 257
 180 0 l 257
EndSplineSet
Substitution2: "c2sc_CapitalesverspetitescapitalesdansLatinlookup0 subtable" thorn.sc
EndChar

StartChar: thorn
Encoding: 254 254 214
GlifName: thorn
Width: 1152
VWidth: 0
GlyphClass: 2
Flags: HW
LayerCount: 2
Fore
SplineSet
217 520 m 257
 217 184 417 30 592 30 c 256
 767 30 967 184 967 520 c 256
 967 856 767 1010 592 1010 c 256
 417 1010 217 856 217 520 c 257
180 520 m 257
 180 1480 l 257
 225 1480 l 257
 225 1480 225 800 225 780 c 257
 256 896 392 1050 592 1050 c 256
 839 1050 1012 832 1012 520 c 256
 1012 208 839 -10 592 -10 c 256
 392 -10 256 144 225 260 c 257
 225 -440 l 257
 180 -440 l 257
 180 520 l 257
EndSplineSet
Substitution2: "smcpBasdecasseverspetitescapitalesdansLatinlookup0 subtable" thorn.sc
EndChar

StartChar: ae
Encoding: 230 230 215
GlifName: ae
Width: 1881
VWidth: 0
GlyphClass: 2
Flags: HW
AnchorPoint: "top_center" 900 1040 basechar 0
AnchorPoint: "bottom_center" 900 0 basechar 0
LayerCount: 2
Fore
SplineSet
890 540 m 257
 1724 540 l 257
 1696 500 l 257
 890 500 l 257
 890 540 l 257
1677 274 m 257
 1716 252 l 257
 1642 90 1500 -10 1303 -10 c 256
 1056 -10 865 208 865 520 c 256
 865 832 1056 1050 1303 1050 c 256
 1550 1050 1741 832 1741 520 c 256
 1741 513 1741 507 1741 500 c 257
 1696 500 l 257
 1696 507 1696 513 1696 520 c 256
 1696 856 1471 1010 1303 1010 c 256
 1135 1010 910 856 910 520 c 256
 910 184 1135 30 1303 30 c 256
 1449 30 1601 108 1677 274 c 257
515 -10 m 256
 317 -10 140 100 140 340 c 257
 140 580 327 690 525 690 c 256
 695 690 900 580 900 340 c 257
 900 100 705 -10 515 -10 c 256
865 340 m 256
 865 509 735 650 525 650 c 256
 315 650 185 539 185 340 c 256
 185 141 315 30 525 30 c 256
 735 30 865 171 865 340 c 256
910 285 m 257
 865 448 l 257
 865 630 l 258
 865 944 671 1010 523 1010 c 256
 325 1010 196 885 196 885 c 257
 171 926 l 257
 171 926 299 1050 523 1050 c 256
 739 1050 910 948 910 598 c 257
 910 285 l 257
EndSplineSet
Substitution2: "ss04StyleSet4lookups56 subtable" ae.cv23
Substitution2: "cv23CharacterVariants23lookups64 subtable" ae.cv23
Substitution2: "smcpBasdecasseverspetitescapitalesdansLatinlookup0 subtable" ae.sc
EndChar

StartChar: oslash
Encoding: 248 248 216
GlifName: oslash
Width: 1156
VWidth: 0
GlyphClass: 2
Flags: HW
AnchorPoint: "top_center" 578 1040 basechar 0
AnchorPoint: "bottom_center" 578 0 basechar 0
LayerCount: 2
Fore
SplineSet
987 1086 m 257
 1018 1060 l 257
 169 -46 l 257
 138 -21 l 257
 987 1086 l 257
185 520 m 256
 185 184 410 30 578 30 c 256
 746 30 971 184 971 520 c 256
 971 856 746 1010 578 1010 c 256
 410 1010 185 856 185 520 c 256
140 520 m 256
 140 832 331 1050 578 1050 c 256
 825 1050 1016 832 1016 520 c 256
 1016 208 825 -10 578 -10 c 256
 331 -10 140 208 140 520 c 256
EndSplineSet
Substitution2: "smcpBasdecasseverspetitescapitalesdansLatinlookup0 subtable" oslash.sc
EndChar

StartChar: divide
Encoding: 247 247 217
GlifName: divide
Width: 1198
VWidth: 0
GlyphClass: 2
Flags: HW
LayerCount: 2
Fore
SplineSet
540 274 m 256
 540 310 568 338 604 338 c 256
 640 338 668 310 668 274 c 256
 668 238 640 210 604 210 c 256
 568 210 540 238 540 274 c 256
540 1046 m 256
 540 1082 568 1110 604 1110 c 256
 640 1110 668 1082 668 1046 c 256
 668 1010 640 982 604 982 c 256
 568 982 540 1010 540 1046 c 256
160 640 m 257
 160 680 l 257
 1038 680 l 257
 1038 640 l 257
 160 640 l 257
EndSplineSet
EndChar

StartChar: germandbls
Encoding: 223 223 218
GlifName: germandbls
Width: 1186
VWidth: 0
GlyphClass: 2
Flags: HW
LayerCount: 2
Fore
SplineSet
629 30 m 256
 585 30 490 37 447 59 c 257
 435 17 l 257
 478 -4 577 -10 629 -10 c 256
 892 -10 1046 136 1046 391 c 256
 1046 646 846 792 582 792 c 257
 582 752 l 257
 758 752 1001 657 1001 391 c 256
 1001 125 805 30 629 30 c 256
225 1101 m 256
 225 1341 393 1450 573 1450 c 256
 753 1450 922 1341 922 1101 c 256
 922 861 714 792 582 792 c 257
 601 759 l 257
 783 759 967 866 967 1101 c 256
 967 1356 797 1490 573 1490 c 256
 349 1490 180 1356 180 1101 c 256
 180 846 180 0 180 0 c 257
 225 0 l 257
 225 0 225 943 225 1101 c 256
EndSplineSet
Substitution2: "smcpBasdecasseverspetitescapitalesdansLatinlookup0 subtable" germandbls.sc
EndChar

StartChar: eth
Encoding: 240 240 219
GlifName: eth
Width: 1120
VWidth: 0
GlyphClass: 2
Flags: HW
LayerCount: 2
Fore
SplineSet
660 1398 m 257
 741 1445 l 257
 721 1480 l 257
 639 1432 l 257
 399 1294 l 257
 419 1259 l 257
 660 1398 l 257
399 1451 m 257
 620 1323 935 1080 935 520 c 257
 980 520 l 257
 980 1000 768 1290 422 1490 c 257
 399 1451 l 257
185 520 m 256
 185 856 385 1010 560 1010 c 256
 735 1010 935 856 935 520 c 257
 935 184 735 30 560 30 c 256
 385 30 185 184 185 520 c 256
140 520 m 256
 140 208 313 -10 560 -10 c 256
 807 -10 980 208 980 520 c 257
 980 520 969 520 959 520 c 257
 959 836 807 1050 560 1050 c 256
 313 1050 140 832 140 520 c 256
EndSplineSet
EndChar

StartChar: macron
Encoding: 175 175 220
GlifName: macron
Width: 776
VWidth: 0
GlyphClass: 2
Flags: HW
LayerCount: 2
Fore
SplineSet
120 1440 m 257
 120 1480 l 257
 656 1480 l 257
 656 1440 l 257
 120 1440 l 257
EndSplineSet
EndChar

StartChar: uni0304
Encoding: 772 772 221
GlifName: uni0304
Width: 0
VWidth: 0
GlyphClass: 4
Flags: HW
AnchorPoint: "mark_anchor_top" 642 1224 mark 0
AnchorPoint: "mark_anchor_top" 642 1504 basemark 0
AnchorPoint: "mark_anchor_right" 642 1504 basemark 0
AnchorPoint: "mark_anchor_left" 642 1504 basemark 0
AnchorPoint: "mark_anchor_center" 642 1654 basemark 0
AnchorPoint: "top_center" 642 1040 mark 0
LayerCount: 2
Fore
SplineSet
374 1274 m 257
 374 1314 l 257
 910 1314 l 257
 910 1274 l 257
 374 1274 l 257
EndSplineSet
EndChar

StartChar: uni0306
Encoding: 774 774 224
GlifName: uni0306
Width: 0
VWidth: 0
GlyphClass: 4
Flags: HW
AnchorPoint: "mark_anchor_right" 642 1460 basemark 0
AnchorPoint: "mark_anchor_left" 642 1460 basemark 0
AnchorPoint: "mark_anchor_top" 642 1506 basemark 0
AnchorPoint: "top_center" 642 1040 mark 0
LayerCount: 2
Fore
SplineSet
642 1224 m 256
 510 1224 396 1340 396 1480 c 257
 441 1480 l 257
 441 1354 532 1264 642 1264 c 256
 752 1264 843 1354 843 1480 c 257
 888 1480 l 257
 888 1340 774 1224 642 1224 c 256
EndSplineSet
EndChar

StartChar: uni0328
Encoding: 808 808 226
GlifName: uni0328
Width: 61
VWidth: 0
GlyphClass: 4
Flags: HW
AnchorPoint: "bottom_right" 627 0 mark 0
LayerCount: 2
Fore
SplineSet
668 -282 m 257
 689 -316 l 257
 679 -327 612 -370 556 -370 c 256
 468 -370 409 -320 409 -230 c 256
 409 -110 554 -11 602 25 c 257
 627 0 l 257
 532 -78 454 -153 454 -230 c 256
 454 -266 474 -330 556 -330 c 256
 608 -330 662 -290 668 -282 c 257
EndSplineSet
EndChar

StartChar: uni0307
Encoding: 775 775 229
GlifName: uni0307
Width: 0
VWidth: 0
GlyphClass: 4
Flags: HW
AnchorPoint: "mark_anchor_top" 642 1580 basemark 0
AnchorPoint: "mark_anchor_center" 642 1372 mark 0
AnchorPoint: "top_center" 642 1040 mark 0
LayerCount: 2
Fore
SplineSet
578 1352 m 256
 578 1388 606 1416 642 1416 c 256
 678 1416 706 1388 706 1352 c 256
 706 1316 678 1288 642 1288 c 256
 606 1288 578 1316 578 1352 c 256
EndSplineSet
EndChar

StartChar: uni030C
Encoding: 780 780 230
GlifName: uni030C_
Width: 0
VWidth: 0
GlyphClass: 4
Flags: HW
AnchorPoint: "mark_anchor_center" 642 1224 mark 0
AnchorPoint: "mark_anchor_center" 642 1654 basemark 0
AnchorPoint: "top_center" 642 1040 mark 0
LayerCount: 2
Fore
SplineSet
472 1480 m 257
 670 1224 l 257
 614 1224 l 257
 428 1480 l 257
 472 1480 l 257
812 1480 m 257
 856 1480 l 257
 670 1224 l 257
 614 1224 l 257
 812 1480 l 257
EndSplineSet
EndChar

StartChar: uni0237
Encoding: 567 567 317
GlifName: uni0237
Width: 570
VWidth: 0
GlyphClass: 2
Flags: HW
AnchorPoint: "top_center" 367 1040 basechar 0
AnchorPoint: "bottom_center" 257 -360 basechar 0
LayerCount: 2
Fore
SplineSet
81 -384 m 257
 112 -404 139 -410 153 -410 c 256
 206 -410 345 -400 345 -210 c 258
 345 0 l 257
 345 138 l 257
 345 1040 l 257
 390 1040 l 257
 390 138 l 257
 390 0 l 257
 390 -210 l 258
 390 -380 303 -450 153 -450 c 256
 125 -450 95 -443 70 -426 c 257
 81 -384 l 257
EndSplineSet
Substitution2: "smcpBasdecasseverspetitescapitalesdansLatinlookup0 subtable" uni0237.sc
EndChar

StartChar: oe
Encoding: 339 339 319
GlifName: oe
Width: 1987
VWidth: 0
GlyphClass: 2
Flags: HW
LayerCount: 2
Fore
SplineSet
996 540 m 257
 1830 540 l 257
 1802 500 l 257
 996 500 l 257
 996 540 l 257
1783 274 m 257
 1822 252 l 257
 1748 90 1606 -10 1409 -10 c 256
 1162 -10 971 208 971 520 c 256
 971 832 1162 1050 1409 1050 c 256
 1656 1050 1847 832 1847 520 c 256
 1847 513 1847 507 1847 500 c 257
 1802 500 l 257
 1802 507 1802 513 1802 520 c 256
 1802 856 1577 1010 1409 1010 c 256
 1241 1010 1016 856 1016 520 c 256
 1016 184 1241 30 1409 30 c 256
 1555 30 1707 108 1783 274 c 257
185 520 m 256
 185 184 410 30 578 30 c 256
 746 30 971 184 971 520 c 256
 971 856 746 1010 578 1010 c 256
 410 1010 185 856 185 520 c 256
140 520 m 256
 140 832 331 1050 578 1050 c 256
 825 1050 1016 832 1016 520 c 256
 1016 208 825 -10 578 -10 c 256
 331 -10 140 208 140 520 c 256
EndSplineSet
Substitution2: "smcpBasdecasseverspetitescapitalesdansLatinlookup0 subtable" oe.sc
EndChar

StartChar: OE
Encoding: 338 338 320
GlifName: O_E_
Width: 2324
VWidth: 0
GlyphClass: 2
Flags: HW
LayerCount: 2
Fore
SplineSet
186 740 m 256
 186 265 497 32 757 32 c 256
 1017 32 1328 265 1328 740 c 256
 1328 1215 1017 1448 757 1448 c 256
 497 1448 186 1215 186 740 c 256
140 740 m 256
 140 1179 409 1490 757 1490 c 256
 1105 1490 1374 1179 1374 740 c 256
 1374 301 1105 -10 757 -10 c 256
 409 -10 140 301 140 740 c 256
2061 761 m 257
 2061 719 l 257
 1374 719 l 257
 1374 42 l 257
 2144 42 l 257
 2144 0 l 257
 1328 0 l 257
 1328 1480 l 257
 2144 1480 l 257
 2144 1438 l 257
 1374 1438 l 257
 1374 761 l 257
 2061 761 l 257
EndSplineSet
EndChar

StartChar: dcaron
Encoding: 271 271 322
GlifName: dcaron
Width: 1315
VWidth: 0
GlyphClass: 2
Flags: HW
LayerCount: 2
Fore
SplineSet
1152 1426 m 256
 1152 1462 1180 1490 1216 1490 c 256
 1252 1490 1280 1462 1280 1426 c 256
 1280 1390 1252 1362 1216 1362 c 256
 1180 1362 1152 1390 1152 1426 c 256
1152 1168 m 257
 1202 1181 1269 1242 1269 1332 c 256
 1269 1412 1216 1445 1216 1445 c 257
 1216 1490 l 257
 1278 1490 1315 1412 1315 1332 c 256
 1315 1222 1232 1146 1164 1126 c 257
 1152 1168 l 257
935 520 m 257
 935 856 735 1010 560 1010 c 256
 385 1010 185 856 185 520 c 256
 185 184 385 30 560 30 c 256
 735 30 935 184 935 520 c 257
972 208 m 257
 972 110 984 0 984 0 c 257
 939 0 l 257
 939 0 927 110 927 260 c 257
 896 144 770 -10 560 -10 c 256
 313 -10 140 208 140 520 c 256
 140 832 313 1050 560 1050 c 256
 760 1050 896 896 927 780 c 257
 927 1480 l 257
 972 1480 l 257
 972 208 l 257
EndSplineSet
Substitution2: "smcpBasdecasseverspetitescapitalesdansLatinlookup0 subtable" dcaron.sc
EndChar

StartChar: dcroat
Encoding: 273 273 323
GlifName: dcroat
Width: 1182
VWidth: 0
GlyphClass: 2
Flags: HW
LayerCount: 2
Fore
SplineSet
1182 1218 m 257
 592 1218 l 257
 592 1264 592 1214 592 1260 c 257
 1182 1260 l 257
 1182 1218 l 257
935 520 m 257
 935 856 735 1010 560 1010 c 256
 385 1010 185 856 185 520 c 256
 185 184 385 30 560 30 c 256
 735 30 935 184 935 520 c 257
972 208 m 257
 972 110 984 0 984 0 c 257
 939 0 l 257
 939 0 927 110 927 260 c 257
 896 144 770 -10 560 -10 c 256
 313 -10 140 208 140 520 c 256
 140 832 313 1050 560 1050 c 256
 760 1050 896 896 927 780 c 257
 927 1480 l 257
 972 1480 l 257
 972 208 l 257
EndSplineSet
Substitution2: "smcpBasdecasseverspetitescapitalesdansLatinlookup0 subtable" dcroat.sc
EndChar

StartChar: Hbar
Encoding: 294 294 324
GlifName: H_bar
Width: 1264
VWidth: 0
GlyphClass: 2
Flags: HW
LayerCount: 2
Fore
SplineSet
1264 1059 m 257
 0 1059 l 257
 0 1105 0 1055 0 1101 c 257
 1264 1101 l 257
 1264 1059 l 257
140 1480 m 257
 186 1480 l 257
 186 761 l 257
 1078 761 l 257
 1078 1480 l 257
 1124 1480 l 257
 1124 0 l 257
 1078 0 l 257
 1078 719 l 257
 186 719 l 257
 186 0 l 257
 140 0 l 257
 140 1480 l 257
EndSplineSet
Substitution2: "c2sc_CapitalesverspetitescapitalesdansLatinlookup0 subtable" hbar.sc
EndChar

StartChar: hbar
Encoding: 295 295 325
GlifName: hbar
Width: 1160
VWidth: 0
GlyphClass: 2
Flags: HW
LayerCount: 2
Fore
SplineSet
590 1218 m 257
 0 1218 l 257
 0 1264 0 1214 0 1260 c 257
 590 1260 l 257
 590 1218 l 257
935 0 m 257
 935 572 l 258
 935 791 865 1010 595 1010 c 256
 325 1010 255 791 255 572 c 258
 255 0 l 257
 210 0 l 257
 210 1480 l 257
 255 1480 l 257
 255 820 l 257
 292 927 375 1050 605 1050 c 256
 843 1050 980 892 980 572 c 257
 980 0 l 257
 935 0 l 257
EndSplineSet
Substitution2: "smcpBasdecasseverspetitescapitalesdansLatinlookup0 subtable" hbar.sc
EndChar

StartChar: Lcaron
Encoding: 317 317 332
GlifName: L_caron
Width: 1176
VWidth: 0
GlyphClass: 2
Flags: HW
LayerCount: 2
Fore
SplineSet
406 1426 m 256
 406 1462 434 1490 470 1490 c 256
 506 1490 534 1462 534 1426 c 256
 534 1390 506 1362 470 1362 c 256
 434 1362 406 1390 406 1426 c 256
406 1168 m 257
 456 1181 523 1242 523 1332 c 256
 523 1412 470 1445 470 1445 c 257
 470 1490 l 257
 532 1490 569 1412 569 1332 c 256
 569 1222 486 1146 418 1126 c 257
 406 1168 l 257
226 1480 m 257
 226 42 l 257
 996 42 l 257
 996 0 l 257
 180 0 l 257
 180 1480 l 257
 226 1480 l 257
EndSplineSet
Substitution2: "c2sc_CapitalesverspetitescapitalesdansLatinlookup0 subtable" lcaron.sc
EndChar

StartChar: lcaron
Encoding: 318 318 333
GlifName: lcaron
Width: 568
VWidth: 0
GlyphClass: 2
Flags: HW
LayerCount: 2
Fore
SplineSet
405 1426 m 256
 405 1462 433 1490 469 1490 c 256
 505 1490 533 1462 533 1426 c 256
 533 1390 505 1362 469 1362 c 256
 433 1362 405 1390 405 1426 c 256
405 1168 m 257
 455 1181 522 1242 522 1332 c 256
 522 1412 469 1445 469 1445 c 257
 469 1490 l 257
 531 1490 568 1412 568 1332 c 256
 568 1222 485 1146 417 1126 c 257
 405 1168 l 257
489 56 m 257
 500 14 l 257
 475 -3 445 -10 417 -10 c 256
 267 -10 180 60 180 230 c 258
 180 440 l 257
 180 578 l 257
 180 1480 l 257
 225 1480 l 257
 225 578 l 257
 225 440 l 257
 225 230 l 258
 225 40 364 30 417 30 c 256
 431 30 458 36 489 56 c 257
EndSplineSet
Substitution2: "smcpBasdecasseverspetitescapitalesdansLatinlookup0 subtable" lcaron.sc
EndChar

StartChar: Lslash
Encoding: 321 321 334
GlifName: L_slash
Width: 1166
VWidth: 0
GlyphClass: 2
Flags: HW
LayerCount: 2
Fore
SplineSet
536 950 m 257
 536 902 l 257
 0 592 l 257
 0 640 l 257
 536 950 l 257
256 1480 m 257
 256 42 l 257
 1026 42 l 257
 1026 0 l 257
 210 0 l 257
 210 1480 l 257
 256 1480 l 257
EndSplineSet
Substitution2: "c2sc_CapitalesverspetitescapitalesdansLatinlookup0 subtable" lslash.sc
EndChar

StartChar: lslash
Encoding: 322 322 335
GlifName: lslash
Width: 540
VWidth: 0
GlyphClass: 2
Flags: HW
LayerCount: 2
Fore
SplineSet
435 908 m 257
 435 863 l 257
 -30 594 l 257
 -30 639 l 257
 435 908 l 257
489 56 m 257
 500 14 l 257
 475 -3 445 -10 417 -10 c 256
 267 -10 180 60 180 230 c 258
 180 440 l 257
 180 578 l 257
 180 1480 l 257
 225 1480 l 257
 225 578 l 257
 225 440 l 257
 225 230 l 258
 225 40 364 30 417 30 c 256
 431 30 458 36 489 56 c 257
EndSplineSet
Substitution2: "smcpBasdecasseverspetitescapitalesdansLatinlookup0 subtable" lslash.sc
EndChar

StartChar: Eng
Encoding: 330 330 339
GlifName: E_ng
Width: 1344
VWidth: 0
GlyphClass: 2
Flags: HW
LayerCount: 2
Fore
SplineSet
1164 -210 m 258
 1164 -380 1076 -450 926 -450 c 256
 898 -450 868 -443 843 -426 c 257
 854 -384 l 257
 885 -404 912 -410 926 -410 c 256
 979 -410 1118 -400 1118 -210 c 258
 1118 0 l 257
 1164 0 l 257
 1164 -210 l 258
226 1480 m 257
 1118 90 l 257
 1118 1480 l 257
 1164 1480 l 257
 1164 0 l 257
 1118 0 l 257
 226 1390 l 257
 226 0 l 257
 180 0 l 257
 180 1480 l 257
 226 1480 l 257
EndSplineSet
Substitution2: "c2sc_CapitalesverspetitescapitalesdansLatinlookup0 subtable" eng.sc
EndChar

StartChar: eng
Encoding: 331 331 340
GlifName: eng
Width: 1130
VWidth: 0
GlyphClass: 2
Flags: HW
LayerCount: 2
Fore
SplineSet
950 -210 m 258
 950 -380 863 -450 713 -450 c 256
 685 -450 655 -443 630 -426 c 257
 641 -384 l 257
 672 -404 699 -410 713 -410 c 256
 766 -410 905 -400 905 -210 c 258
 905 0 l 257
 950 0 l 257
 950 -210 l 258
905 572 m 258
 905 791 835 1010 565 1010 c 256
 295 1010 225 791 225 572 c 258
 225 0 l 257
 180 0 l 257
 180 1040 l 257
 225 1040 l 257
 225 820 l 257
 262 927 345 1050 575 1050 c 256
 813 1050 950 892 950 572 c 257
 950 0 l 257
 905 0 l 257
 905 572 l 258
EndSplineSet
Substitution2: "smcpBasdecasseverspetitescapitalesdansLatinlookup0 subtable" eng.sc
EndChar

StartChar: uni02BC
Encoding: 700 700 341
GlifName: uni02B_C_
Width: 403
VWidth: 0
GlyphClass: 2
Flags: HW
LayerCount: 2
Fore
SplineSet
120 1426 m 256
 120 1462 148 1490 184 1490 c 256
 220 1490 248 1462 248 1426 c 256
 248 1390 220 1362 184 1362 c 256
 148 1362 120 1390 120 1426 c 256
120 1168 m 257
 170 1181 237 1242 237 1332 c 256
 237 1412 184 1445 184 1445 c 257
 184 1490 l 257
 246 1490 283 1412 283 1332 c 256
 283 1222 200 1146 132 1126 c 257
 120 1168 l 257
EndSplineSet
EndChar

StartChar: uni030B
Encoding: 779 779 342
GlifName: uni030B_
Width: 0
VWidth: 0
GlyphClass: 4
Flags: HW
AnchorPoint: "top_center" 642 1040 mark 0
LayerCount: 2
Fore
SplineSet
758 1224 m 257
 714 1224 l 257
 900 1480 l 257
 956 1480 l 257
 758 1224 l 257
516 1224 m 257
 472 1224 l 257
 658 1480 l 257
 714 1480 l 257
 516 1224 l 257
EndSplineSet
EndChar

StartChar: tcaron
Encoding: 357 357 349
GlifName: tcaron
Width: 968
VWidth: 0
GlyphClass: 2
Flags: HW
LayerCount: 2
Fore
SplineSet
805 1426 m 256
 805 1462 833 1490 869 1490 c 256
 905 1490 933 1462 933 1426 c 256
 933 1390 905 1362 869 1362 c 256
 833 1362 805 1390 805 1426 c 256
805 1168 m 257
 855 1181 922 1242 922 1332 c 256
 922 1412 869 1445 869 1445 c 257
 869 1490 l 257
 931 1490 968 1412 968 1332 c 256
 968 1222 885 1146 817 1126 c 257
 805 1168 l 257
148 1040 m 257
 298 1040 314 1056 314 1206 c 257
 314 1320 l 257
 359 1320 l 257
 359 1040 l 257
 665 1040 l 257
 665 1000 l 257
 359 1000 l 257
 359 300 l 258
 359 60 467 30 557 30 c 256
 595 30 649 37 688 65 c 257
 702 22 l 257
 662 4 606 -10 557 -10 c 256
 381 -10 314 100 314 300 c 258
 314 1000 l 257
 70 1000 l 257
 70 1010 70 1030 70 1040 c 257
 148 1040 l 257
EndSplineSet
Substitution2: "smcpBasdecasseverspetitescapitalesdansLatinlookup0 subtable" tcaron.sc
EndChar

StartChar: tbar
Encoding: 359 359 350
GlifName: tbar
Width: 772
VWidth: 0
GlyphClass: 2
Flags: HW
LayerCount: 2
Fore
SplineSet
70 500 m 257
 70 510 70 530 70 540 c 257
 665 540 l 257
 665 500 l 257
 70 500 l 257
148 1040 m 257
 298 1040 314 1056 314 1206 c 257
 314 1320 l 257
 359 1320 l 257
 359 1040 l 257
 665 1040 l 257
 665 1000 l 257
 359 1000 l 257
 359 300 l 258
 359 60 467 30 557 30 c 256
 595 30 649 37 688 65 c 257
 702 22 l 257
 662 4 606 -10 557 -10 c 256
 381 -10 314 100 314 300 c 258
 314 1000 l 257
 70 1000 l 257
 70 1010 70 1030 70 1040 c 257
 148 1040 l 257
EndSplineSet
Substitution2: "smcpBasdecasseverspetitescapitalesdansLatinlookup0 subtable" tbar.sc
EndChar

StartChar: Tbar
Encoding: 358 358 351
GlifName: T_bar
Width: 1344
VWidth: 0
GlyphClass: 2
Flags: HW
LayerCount: 2
Fore
SplineSet
935 719 m 257
 409 719 l 257
 409 765 409 715 409 761 c 257
 935 761 l 257
 935 719 l 257
695 0 m 257
 649 0 l 257
 649 1438 l 257
 180 1438 l 257
 180 1480 l 257
 1164 1480 l 257
 1164 1438 l 257
 695 1438 l 257
 695 0 l 257
EndSplineSet
Substitution2: "c2sc_CapitalesverspetitescapitalesdansLatinlookup0 subtable" tbar.sc
EndChar

StartChar: zero.subscript
Encoding: 8320 8320 353
GlifName: uni2080
Width: 740
VWidth: 0
GlyphClass: 2
Flags: HW
LayerCount: 2
Fore
SplineSet
130 241 m 256
 130 -26 231 -164 370 -164 c 256
 509 -164 610 -26 610 241 c 256
 610 508 509 646 370 646 c 256
 231 646 130 508 130 241 c 256
97 241 m 256
 97 531 213 676 370 676 c 256
 527 676 643 531 643 241 c 256
 643 -49 527 -194 370 -194 c 256
 213 -194 97 -49 97 241 c 256
EndSplineSet
Substitution2: "tnumTabularNumbers subtable" zero.subscript.tnum
Substitution2: "pnumProportionalNumbers subtable" zero.subscript.pnum
EndChar

StartChar: four.subscript
Encoding: 8324 8324 354
GlifName: uni2084
Width: 740
VWidth: 0
GlyphClass: 2
Flags: HW
LayerCount: 2
Fore
SplineSet
434 670 m 257
 394 670 l 257
 116 58 l 257
 116 34 l 257
 448 34 l 257
 448 -188 l 257
 481 -188 l 257
 481 34 l 257
 624 34 l 257
 624 65 l 257
 481 65 l 257
 481 281 l 257
 448 281 l 257
 448 65 l 257
 158 65 l 257
 434 670 l 257
EndSplineSet
Substitution2: "tnumTabularNumbers subtable" four.subscript.tnum
Substitution2: "pnumProportionalNumbers subtable" four.subscript.pnum
EndChar

StartChar: five.subscript
Encoding: 8325 8325 355
GlifName: uni2085
Width: 740
VWidth: 0
GlyphClass: 2
Flags: HW
LayerCount: 2
Fore
SplineSet
200 670 m 257
 216 670 l 257
 596 670 l 257
 596 640 l 257
 214 640 l 257
 160 276 l 257
 203 340 264 379 370 379 c 256
 515 379 636 261 636 92 c 256
 636 -77 523 -194 368 -194 c 256
 213 -194 107 -105 104 34 c 257
 136 41 l 257
 136 -91 238 -164 368 -164 c 256
 517 -164 602 -40 602 92 c 256
 602 224 511 348 368 348 c 256
 225 348 183 271 152 219 c 257
 124 227 l 257
 190 670 l 257
 200 670 l 257
EndSplineSet
Substitution2: "tnumTabularNumbers subtable" five.subscript.tnum
Substitution2: "pnumProportionalNumbers subtable" five.subscript.pnum
EndChar

StartChar: six.subscript
Encoding: 8326 8326 356
GlifName: uni2086
Width: 740
VWidth: 0
GlyphClass: 2
Flags: HW
LayerCount: 2
Fore
SplineSet
127 159 m 257
 149 303 254 379 383 379 c 256
 528 379 648 261 648 92 c 256
 648 -77 528 -194 382 -194 c 256
 270 -194 173 -125 134 -17 c 256
 116 24 92 101 92 223 c 256
 92 523 238 676 425 676 c 256
 563 676 620 596 620 596 c 257
 602 569 l 257
 602 569 552 646 417 646 c 256
 282 646 104 527 127 159 c 257
144 92 m 256
 144 -40 231 -164 380 -164 c 256
 529 -164 615 -40 615 92 c 256
 615 224 523 348 380 348 c 256
 237 348 144 224 144 92 c 256
EndSplineSet
Substitution2: "tnumTabularNumbers subtable" six.subscript.tnum
Substitution2: "pnumProportionalNumbers subtable" six.subscript.pnum
EndChar

StartChar: seven.subscript
Encoding: 8327 8327 357
GlifName: uni2087
Width: 740
VWidth: 0
GlyphClass: 2
Flags: HW
LayerCount: 2
Fore
SplineSet
116 640 m 257
 116 670 l 257
 624 670 l 257
 624 643 l 257
 624 643 341 294 304 -188 c 257
 299 -188 276 -188 271 -188 c 257
 305 262 547 592 584 640 c 257
 116 640 l 257
EndSplineSet
Substitution2: "tnumTabularNumbers subtable" seven.subscript.tnum
Substitution2: "pnumProportionalNumbers subtable" seven.subscript.pnum
EndChar

StartChar: eight.subscript
Encoding: 8328 8328 358
GlifName: uni2088
Width: 740
VWidth: 0
GlyphClass: 2
Flags: HW
LayerCount: 2
Fore
SplineSet
90 38 m 256
 90 179 216 247 288 261 c 257
 221 269 119 334 119 464 c 256
 119 594 222 676 370 676 c 256
 518 676 621 594 621 464 c 256
 621 334 520 269 453 261 c 257
 525 247 650 179 650 38 c 256
 650 -103 534 -194 370 -194 c 256
 206 -194 90 -103 90 38 c 256
152 461 m 256
 152 350 251 276 370 276 c 256
 489 276 588 350 588 461 c 256
 588 577 489 646 370 646 c 256
 251 646 152 577 152 461 c 256
370 246 m 256
 257 246 123 173 123 41 c 256
 123 -91 233 -164 370 -164 c 256
 507 -164 617 -91 617 41 c 256
 617 173 483 246 370 246 c 256
EndSplineSet
Substitution2: "tnumTabularNumbers subtable" eight.subscript.tnum
Substitution2: "pnumProportionalNumbers subtable" eight.subscript.pnum
EndChar

StartChar: nine.subscript
Encoding: 8329 8329 359
GlifName: uni2089
Width: 740
VWidth: 0
GlyphClass: 2
Flags: HW
LayerCount: 2
Fore
SplineSet
613 323 m 257
 591 179 486 103 357 103 c 256
 212 103 92 221 92 390 c 256
 92 559 212 676 358 676 c 256
 470 676 567 607 606 499 c 256
 624 458 648 381 648 259 c 256
 648 -41 502 -194 315 -194 c 256
 177 -194 120 -114 120 -114 c 257
 138 -87 l 257
 138 -87 188 -164 323 -164 c 256
 458 -164 636 -45 613 323 c 257
596 390 m 256
 596 522 509 646 360 646 c 256
 211 646 125 522 125 390 c 256
 125 258 217 134 360 134 c 256
 503 134 596 258 596 390 c 256
EndSplineSet
Substitution2: "tnumTabularNumbers subtable" nine.subscript.tnum
Substitution2: "pnumProportionalNumbers subtable" nine.subscript.pnum
EndChar

StartChar: two.subscript
Encoding: 8322 8322 360
GlifName: uni2082
Width: 740
VWidth: 0
GlyphClass: 2
Flags: HW
LayerCount: 2
Fore
SplineSet
111 -188 m 257
 111 -121 113 -11 367 134 c 256
 530 227 592 293 592 418 c 256
 592 557 503 646 370 646 c 256
 234 646 148 535 148 384 c 256
 148 382 148 380 149 376 c 257
 115 384 l 257
 115 563 224 676 370 676 c 256
 516 676 625 584 625 418 c 256
 625 256 502 175 372 101 c 256
 253 33 159 -42 145 -158 c 257
 630 -158 l 257
 630 -188 l 257
 143 -188 l 257
 120 -188 l 257
 111 -188 l 257
EndSplineSet
Substitution2: "tnumTabularNumbers subtable" two.subscript.tnum
Substitution2: "pnumProportionalNumbers subtable" two.subscript.pnum
EndChar

StartChar: three.subscript
Encoding: 8323 8323 361
GlifName: uni2083
Width: 740
VWidth: 0
GlyphClass: 2
Flags: HW
LayerCount: 2
Fore
SplineSet
367 276 m 258
 483 276 572 350 572 461 c 256
 572 577 483 646 367 646 c 256
 237 646 147 573 147 441 c 257
 114 448 l 257
 117 587 213 676 368 676 c 256
 512 676 605 594 605 464 c 256
 605 334 513 269 447 261 c 257
 518 247 641 179 641 38 c 256
 641 -103 528 -194 369 -194 c 256
 211 -194 103 -105 100 34 c 257
 133 41 l 257
 133 -91 236 -164 369 -164 c 256
 502 -164 608 -91 608 41 c 256
 608 173 478 246 368 246 c 258
 319 246 l 257
 319 276 l 257
 367 276 l 258
EndSplineSet
Substitution2: "tnumTabularNumbers subtable" three.subscript.tnum
Substitution2: "pnumProportionalNumbers subtable" three.subscript.pnum
EndChar

StartChar: one.subscript
Encoding: 8321 8321 362
GlifName: uni2081
Width: 740
VWidth: 0
GlyphClass: 2
Flags: HW
LayerCount: 2
Fore
SplineSet
390 432 m 257
 196 432 l 257
 196 463 l 257
 280 463 l 258
 377 463 390 480 390 586 c 258
 390 670 l 257
 424 670 l 257
 424 415 l 257
 424 -188 l 257
 390 -188 l 257
 390 432 l 257
EndSplineSet
Substitution2: "tnumTabularNumbers subtable" one.subscript.tnum
Substitution2: "pnumProportionalNumbers subtable" one.subscript.pnum
EndChar

StartChar: longs
Encoding: 383 383 363
GlifName: longs
Width: 638
VWidth: 0
GlyphClass: 2
Flags: HW
AnchorPoint: "bottom_center" 202 0 basechar 0
AnchorPoint: "top_center" 344 1380 basechar 0
LayerCount: 2
Fore
SplineSet
225 1040 m 257
 225 1180 l 258
 225 1420 333 1450 423 1450 c 256
 461 1450 515 1443 554 1415 c 257
 568 1458 l 257
 528 1476 472 1490 423 1490 c 256
 247 1490 180 1380 180 1180 c 258
 180 1040 l 257
 180 0 l 257
 225 0 l 257
 225 1040 l 257
EndSplineSet
EndChar

StartChar: uni0180
Encoding: 384 384 364
GlifName: uni0180
Width: 1182
VWidth: 0
GlyphClass: 2
Flags: HW
LayerCount: 2
Fore
SplineSet
590 1218 m 257
 0 1218 l 257
 0 1264 0 1214 0 1260 c 257
 590 1260 l 257
 590 1218 l 257
247 520 m 257
 247 184 447 30 622 30 c 256
 797 30 997 184 997 520 c 256
 997 856 797 1010 622 1010 c 256
 447 1010 247 856 247 520 c 257
210 208 m 257
 210 1480 l 257
 255 1480 l 257
 255 780 l 257
 286 896 422 1050 622 1050 c 256
 869 1050 1042 832 1042 520 c 256
 1042 208 869 -10 622 -10 c 256
 412 -10 286 144 255 260 c 257
 255 0 l 257
 210 0 l 257
 210 0 210 110 210 208 c 257
EndSplineSet
Substitution2: "smcpBasdecasseverspetitescapitalesdansLatinlookup0 subtable" uni0180.sc
EndChar

StartChar: uni0181
Encoding: 385 385 365
GlifName: uni0181
Width: 1284
VWidth: 0
GlyphClass: 2
Flags: HW
LayerCount: 2
Fore
SplineSet
46 1158 m 257
 1 1158 l 257
 0 1162 0 1166 -0 1170 c 256
 0 1348 132 1480 310 1480 c 256
 314 1480 318 1480 322 1479 c 257
 322 1439 l 257
 318 1440 314 1440 310 1440 c 256
 155 1440 45 1325 45 1170 c 256
 45 1166 45 1162 46 1158 c 257
725 1480 m 257
 919 1480 1087 1362 1087 1142 c 256
 1087 922 919 804 725 804 c 257
 725 846 l 257
 915 846 1041 962 1041 1142 c 256
 1041 1322 915 1438 725 1438 c 257
 356 1438 l 257
 356 1480 l 257
 725 1480 l 257
356 42 m 257
 725 42 l 257
 950 42 1098 223 1098 423 c 256
 1098 623 950 804 725 804 c 257
 356 804 l 257
 356 42 l 257
310 0 m 257
 310 1480 l 257
 356 1480 l 257
 356 846 l 257
 725 846 l 257
 949 846 1144 678 1144 423 c 256
 1144 168 949 0 725 0 c 257
 310 0 l 257
EndSplineSet
Substitution2: "c2sc_CapitalesverspetitescapitalesdansLatinlookup0 subtable" uni0253.sc
EndChar

StartChar: uni0182
Encoding: 386 386 366
GlifName: uni0182
Width: 1154
VWidth: 0
GlyphClass: 2
Flags: HW
LayerCount: 2
Fore
SplineSet
934 1438 m 257
 226 1438 l 257
 226 1480 l 257
 934 1480 l 257
 934 1438 l 257
226 42 m 257
 595 42 l 257
 806 42 968 208 968 423 c 256
 968 638 806 804 595 804 c 257
 226 804 l 257
 226 42 l 257
180 1480 m 257
 226 1480 l 257
 226 846 l 257
 595 846 l 257
 833 846 1014 664 1014 423 c 256
 1014 182 833 0 595 0 c 257
 180 0 l 257
 180 1480 l 257
EndSplineSet
Substitution2: "c2sc_CapitalesverspetitescapitalesdansLatinlookup0 subtable" uni0183.sc
EndChar

StartChar: uni0183
Encoding: 387 387 367
GlifName: uni0183
Width: 1152
VWidth: 0
GlyphClass: 2
Flags: HW
LayerCount: 2
Fore
SplineSet
932 1438 m 257
 225 1438 l 257
 225 1480 l 257
 932 1480 l 257
 932 1438 l 257
217 520 m 257
 217 184 417 30 592 30 c 256
 767 30 967 184 967 520 c 256
 967 856 767 1010 592 1010 c 256
 417 1010 217 856 217 520 c 257
180 208 m 257
 180 1480 l 257
 225 1480 l 257
 225 780 l 257
 256 896 392 1050 592 1050 c 256
 839 1050 1012 832 1012 520 c 256
 1012 208 839 -10 592 -10 c 256
 382 -10 256 144 225 260 c 257
 225 0 l 257
 180 0 l 257
 180 0 180 110 180 208 c 257
EndSplineSet
Substitution2: "smcpBasdecasseverspetitescapitalesdansLatinlookup0 subtable" uni0183.sc
EndChar

StartChar: uni0184
Encoding: 388 388 368
GlifName: uni0184
Width: 1144
VWidth: 0
GlyphClass: 2
Flags: HW
LayerCount: 2
Fore
SplineSet
216 42 m 257
 585 42 l 257
 810 42 958 223 958 423 c 256
 958 623 810 804 585 804 c 257
 216 804 l 257
 216 42 l 257
190 1480 m 257
 216 1480 l 257
 216 846 l 257
 585 846 l 257
 809 846 1004 678 1004 423 c 256
 1004 168 809 0 585 0 c 257
 170 0 l 257
 170 1240 l 257
 0 1325 l 257
 190 1480 l 257
EndSplineSet
Substitution2: "c2sc_CapitalesverspetitescapitalesdansLatinlookup0 subtable" uni0185.sc
EndChar

StartChar: uni0185
Encoding: 389 389 369
GlifName: uni0185
Width: 1143
VWidth: 0
GlyphClass: 2
Flags: HW
LayerCount: 2
Fore
SplineSet
208 520 m 257
 208 184 408 30 583 30 c 256
 758 30 958 184 958 520 c 256
 958 856 758 1010 583 1010 c 256
 408 1010 208 856 208 520 c 257
216 1480 m 257
 216 780 l 257
 247 896 383 1050 583 1050 c 256
 830 1050 1003 832 1003 520 c 256
 1003 208 830 -10 583 -10 c 256
 373 -10 247 144 216 260 c 257
 216 0 l 257
 171 0 l 257
 171 0 171 110 171 208 c 257
 171 1240 l 257
 0 1325 l 257
 190 1480 l 257
 216 1480 l 257
EndSplineSet
Substitution2: "smcpBasdecasseverspetitescapitalesdansLatinlookup0 subtable" uni0185.sc
EndChar

StartChar: uni0186
Encoding: 390 390 370
GlifName: uni0186
Width: 1436
VWidth: 0
GlyphClass: 2
Flags: HW
AnchorPoint: "bottom_cedilla" 679 -20 basechar 0
AnchorPoint: "bottom_center" 679 0 basechar 0
AnchorPoint: "top_center" 679 1380 basechar 0
LayerCount: 2
Fore
SplineSet
180 1097 m 257
 287 1332 496 1448 679 1448 c 256
 939 1448 1250 1215 1250 740 c 256
 1250 265 939 32 679 32 c 256
 496 32 287 148 180 383 c 257
 140 360 l 257
 244 132 444 -10 679 -10 c 256
 1027 -10 1296 301 1296 740 c 256
 1296 1179 1027 1490 679 1490 c 256
 444 1490 244 1348 140 1120 c 257
 180 1097 l 257
EndSplineSet
Substitution2: "c2sc_CapitalesverspetitescapitalesdansLatinlookup0 subtable" uni0254.sc
EndChar

StartChar: uni0187
Encoding: 391 391 371
GlifName: uni0187
Width: 1548
VWidth: 0
GlyphClass: 2
Flags: HW
LayerCount: 2
Fore
SplineSet
1536 1490 m 256
 1540 1490 1544 1490 1548 1489 c 257
 1548 1449 l 257
 1544 1450 1540 1450 1536 1450 c 256
 1381 1450 1271 1335 1271 1180 c 256
 1271 1176 1271 1172 1272 1168 c 257
 1227 1168 l 257
 1226 1172 1226 1176 1226 1180 c 256
 1226 1358 1358 1490 1536 1490 c 256
1256 1097 m 257
 1149 1332 940 1448 757 1448 c 256
 497 1448 186 1215 186 740 c 256
 186 265 497 32 757 32 c 256
 940 32 1149 148 1256 383 c 257
 1296 360 l 257
 1192 132 992 -10 757 -10 c 256
 409 -10 140 301 140 740 c 256
 140 1179 409 1490 757 1490 c 256
 992 1490 1192 1348 1296 1120 c 257
 1256 1097 l 257
EndSplineSet
Substitution2: "c2sc_CapitalesverspetitescapitalesdansLatinlookup0 subtable" uni0188.sc
EndChar

StartChar: uni0188
Encoding: 392 392 372
GlifName: uni0188
Width: 1237
VWidth: 0
GlyphClass: 2
Flags: HW
LayerCount: 2
Fore
SplineSet
1225 1110 m 256
 1229 1110 1233 1110 1237 1109 c 257
 1237 1069 l 257
 1233 1070 1229 1070 1225 1070 c 256
 1070 1070 960 955 960 800 c 256
 960 796 960 792 961 788 c 257
 916 788 l 257
 915 792 915 796 915 800 c 256
 915 978 1047 1110 1225 1110 c 256
185 520 m 256
 185 184 410 30 578 30 c 256
 698 30 846 108 922 274 c 257
 961 252 l 257
 887 90 745 -10 578 -10 c 256
 331 -10 140 208 140 520 c 256
 140 832 331 1050 578 1050 c 256
 745 1050 887 950 961 788 c 257
 922 766 l 257
 846 932 698 1010 578 1010 c 256
 410 1010 185 856 185 520 c 256
EndSplineSet
Substitution2: "smcpBasdecasseverspetitescapitalesdansLatinlookup0 subtable" uni0188.sc
EndChar

StartChar: uni018A
Encoding: 394 394 374
GlifName: uni018A_
Width: 1452
VWidth: 0
GlyphClass: 2
Flags: HW
LayerCount: 2
Fore
SplineSet
46 1158 m 257
 1 1158 l 257
 0 1162 0 1166 0 1170 c 256
 0 1348 132 1480 310 1480 c 256
 314 1480 318 1480 322 1479 c 257
 322 1439 l 257
 318 1440 314 1440 310 1440 c 256
 155 1440 45 1325 45 1170 c 256
 45 1166 45 1162 46 1158 c 257
356 1438 m 257
 356 42 l 257
 726 42 l 257
 964 42 1266 240 1266 740 c 256
 1266 1240 964 1438 726 1438 c 257
 356 1438 l 257
726 0 m 257
 477 0 l 257
 310 0 l 257
 310 1480 l 257
 726 1480 l 257
 1060 1480 1312 1190 1312 740 c 256
 1312 290 1060 0 726 0 c 257
EndSplineSet
Substitution2: "c2sc_CapitalesverspetitescapitalesdansLatinlookup0 subtable" uni0257.sc
EndChar

StartChar: uni018B
Encoding: 395 395 375
GlifName: uni018B_
Width: 1154
VWidth: 0
GlyphClass: 2
Flags: HW
LayerCount: 2
Fore
SplineSet
220 1438 m 257
 928 1438 l 257
 928 1480 l 257
 220 1480 l 257
 220 1438 l 257
928 42 m 257
 559 42 l 257
 334 42 186 223 186 423 c 256
 186 623 334 804 559 804 c 257
 928 804 l 257
 928 42 l 257
974 1480 m 257
 928 1480 l 257
 928 846 l 257
 559 846 l 257
 335 846 140 678 140 423 c 256
 140 168 335 0 559 0 c 257
 974 0 l 257
 974 1480 l 257
EndSplineSet
Substitution2: "c2sc_CapitalesverspetitescapitalesdansLatinlookup0 subtable" uni018C.sc
EndChar

StartChar: uni018C
Encoding: 396 396 376
GlifName: uni018C_
Width: 1152
VWidth: 0
GlyphClass: 2
Flags: HW
LayerCount: 2
Fore
SplineSet
220 1438 m 257
 927 1438 l 257
 927 1480 l 257
 220 1480 l 257
 220 1438 l 257
935 520 m 257
 935 184 735 30 560 30 c 256
 385 30 185 184 185 520 c 256
 185 856 385 1010 560 1010 c 256
 735 1010 935 856 935 520 c 257
972 208 m 257
 972 1480 l 257
 927 1480 l 257
 927 780 l 257
 896 896 760 1050 560 1050 c 256
 313 1050 140 832 140 520 c 256
 140 208 313 -10 560 -10 c 256
 770 -10 896 144 927 260 c 257
 927 110 939 0 939 0 c 257
 984 0 l 257
 984 0 972 110 972 208 c 257
EndSplineSet
Substitution2: "smcpBasdecasseverspetitescapitalesdansLatinlookup0 subtable" uni018C.sc
EndChar

StartChar: uni018D
Encoding: 397 397 377
GlifName: uni018D_
Width: 1156
VWidth: 0
GlyphClass: 2
Flags: HW
LayerCount: 2
Fore
SplineSet
1016 520 m 256
 1016 208 825 10 578 10 c 257
 578 30 l 257
 746 30 971 184 971 520 c 256
 971 856 746 1010 578 1010 c 256
 410 1010 185 856 185 520 c 256
 185 184 410 30 578 30 c 257
 578 -10 l 257
 331 -10 140 208 140 520 c 256
 140 832 331 1050 578 1050 c 256
 825 1050 1016 832 1016 520 c 256
538 -450 m 256
 378 -450 275 -395 219 -358 c 257
 243 -317 l 257
 300 -354 413 -410 548 -410 c 256
 818 -410 906 -290 906 -210 c 256
 906 -130 868 -10 578 -10 c 257
 578 30 l 257
 896 30 951 -110 951 -210 c 256
 951 -310 856 -450 538 -450 c 256
EndSplineSet
EndChar

StartChar: uni018E
Encoding: 398 398 378
GlifName: uni018E_
Width: 1176
VWidth: 0
GlyphClass: 2
Flags: HW
LayerCount: 2
Fore
SplineSet
263 719 m 257
 263 761 l 257
 950 761 l 257
 950 1438 l 257
 180 1438 l 257
 180 1480 l 257
 996 1480 l 257
 996 0 l 257
 180 0 l 257
 180 42 l 257
 950 42 l 257
 950 719 l 257
 263 719 l 257
EndSplineSet
Substitution2: "c2sc_CapitalesverspetitescapitalesdansLatinlookup0 subtable" uni01DD.sc
EndChar

StartChar: uni018F
Encoding: 399 399 379
GlifName: uni018F_
Width: 1514
VWidth: 0
GlyphClass: 2
Flags: HW
LayerCount: 2
Fore
SplineSet
140 761 m 257
 140 754 140 747 140 740 c 256
 140 301 409 -10 757 -10 c 256
 1105 -10 1374 301 1374 740 c 256
 1374 1179 1105 1490 757 1490 c 256
 502 1490 292 1348 188 1120 c 257
 228 1097 l 257
 335 1332 554 1448 757 1448 c 256
 1017 1448 1328 1215 1328 740 c 256
 1328 265 1017 32 757 32 c 256
 497 32 186 265 186 740 c 256
 186 747 186 754 186 761 c 257
 140 761 l 257
1350 719 m 257
 1350 761 l 257
 186 761 l 257
 173 719 l 257
 1350 719 l 257
EndSplineSet
Substitution2: "c2sc_CapitalesverspetitescapitalesdansLatinlookup0 subtable" uni0259.sc
EndChar

StartChar: uni0190
Encoding: 400 400 380
GlifName: uni0190
Width: 1176
VWidth: 0
GlyphClass: 2
Flags: HW
AnchorPoint: "bottom_center" 591 0 basechar 0
AnchorPoint: "top_center" 591 1380 basechar 0
LayerCount: 2
Fore
SplineSet
591 796 m 258
 391 796 238 927 238 1122 c 256
 238 1327 391 1448 591 1448 c 256
 816 1448 971 1319 971 1086 c 257
 1017 1099 l 257
 1012 1337 852 1490 591 1490 c 256
 349 1490 192 1349 192 1126 c 256
 192 903 344 790 453 776 c 257
 339 752 140 633 140 390 c 256
 140 147 327 -10 591 -10 c 256
 852 -10 1031 143 1036 381 c 257
 990 394 l 257
 990 161 816 32 591 32 c 256
 366 32 186 161 186 394 c 256
 186 627 405 756 591 756 c 258
 675 756 l 257
 675 796 l 257
 591 796 l 258
EndSplineSet
Substitution2: "c2sc_CapitalesverspetitescapitalesdansLatinlookup0 subtable" uni025B.sc
EndChar

StartChar: uni0191
Encoding: 401 401 381
GlifName: uni0191
Width: 1272
VWidth: 0
GlyphClass: 2
Flags: HW
LayerCount: 2
Fore
SplineSet
0 -269 m 257
 4 -270 8 -270 12 -270 c 256
 167 -270 276 -155 276 0 c 257
 322 0 l 257
 322 -178 190 -310 12 -310 c 256
 8 -310 4 -310 0 -309 c 257
 0 -269 l 257
322 168 m 257
 322 0 l 257
 276 0 l 257
 276 1480 l 257
 1092 1480 l 257
 1092 1438 l 257
 322 1438 l 257
 322 761 l 257
 1009 761 l 257
 1009 719 l 257
 322 719 l 257
 322 168 l 257
EndSplineSet
EndChar

StartChar: florin
Encoding: 402 402 382
GlifName: florin
Width: 772
VWidth: 0
GlyphClass: 2
Flags: HW
LayerCount: 2
Fore
SplineSet
37 -269 m 257
 41 -270 45 -270 49 -270 c 256
 204 -270 314 -155 314 0 c 257
 359 0 l 257
 359 -178 227 -310 49 -310 c 256
 45 -310 41 -310 37 -309 c 257
 37 -269 l 257
688 1415 m 257
 649 1443 595 1450 557 1450 c 256
 467 1450 359 1420 359 1180 c 258
 359 1040 l 257
 665 1040 l 257
 665 1000 l 257
 359 1000 l 257
 359 0 l 257
 314 0 l 257
 314 1000 l 257
 70 1000 l 257
 70 1040 l 257
 314 1040 l 257
 314 1180 l 258
 314 1380 381 1490 557 1490 c 256
 606 1490 662 1476 702 1458 c 257
 688 1415 l 257
EndSplineSet
Substitution2: "smcpBasdecasseverspetitescapitalesdansLatinlookup0 subtable" florin.sc
EndChar

StartChar: uni0193
Encoding: 403 403 383
GlifName: uni0193
Width: 1548
VWidth: 0
GlyphClass: 2
Flags: HW
LayerCount: 2
Fore
SplineSet
1536 1490 m 256
 1540 1490 1544 1490 1548 1489 c 257
 1548 1449 l 257
 1544 1450 1540 1450 1536 1450 c 256
 1381 1450 1271 1335 1271 1180 c 256
 1271 1176 1271 1172 1272 1168 c 257
 1227 1168 l 257
 1226 1172 1226 1176 1226 1180 c 256
 1226 1358 1358 1490 1536 1490 c 256
1256 1097 m 257
 1149 1332 940 1448 757 1448 c 256
 497 1448 186 1215 186 740 c 256
 186 265 497 32 757 32 c 256
 940 32 1149 148 1256 383 c 257
 1296 360 l 257
 1192 132 992 -10 757 -10 c 256
 409 -10 140 301 140 740 c 256
 140 1179 409 1490 757 1490 c 256
 992 1490 1192 1348 1296 1120 c 257
 1256 1097 l 257
757 740 m 261
 1302 740 l 257
 1302 0 l 257
 1256 0 l 257
 1256 327 l 257
 1256 353 l 257
 1256 698 l 257
 757 698 l 261
 757 740 l 261
EndSplineSet
Substitution2: "ss03StyleSet3lookups55 subtable" uni0193.cv21
Substitution2: "cv21CharacterVariants21lookups62 subtable" uni0193.cv21
Substitution2: "c2sc_CapitalesverspetitescapitalesdansLatinlookup0 subtable" uni0260.sc
EndChar

StartChar: uni0194
Encoding: 404 404 384
GlifName: uni0194
Width: 1350
VWidth: 0
GlyphClass: 2
Flags: HW
LayerCount: 2
Fore
SplineSet
937 0 m 257
 958 -42 965 -90 965 -140 c 256
 965 -318 832 -460 675 -460 c 256
 518 -460 385 -318 385 -140 c 256
 385 -90 393 -42 413 0 c 257
 639 442 l 257
 140 1480 l 257
 189 1480 l 257
 675 479 l 257
 1161 1480 l 257
 1210 1480 l 257
 711 442 l 257
 937 0 l 257
888 0 m 257
 675 415 l 257
 462 0 l 257
 440 -45 431 -100 431 -140 c 256
 431 -305 556 -418 675 -418 c 256
 794 -418 919 -305 919 -140 c 256
 919 -100 912 -45 888 0 c 257
EndSplineSet
Substitution2: "c2sc_CapitalesverspetitescapitalesdansLatinlookup0 subtable" uni0263.sc
EndChar

StartChar: uni0195
Encoding: 405 405 385
GlifName: uni0195
Width: 1815
VWidth: 0
GlyphClass: 2
Flags: HW
LayerCount: 2
Fore
SplineSet
1675 468 m 256
 1675 128 1518 -10 1290 -10 c 256
 1062 -10 905 128 905 468 c 257
 905 572 l 257
 905 791 835 1010 565 1010 c 256
 295 1010 225 791 225 572 c 258
 225 0 l 257
 180 0 l 257
 180 1480 l 257
 225 1480 l 257
 225 820 l 257
 262 927 345 1050 575 1050 c 256
 813 1050 950 892 950 572 c 257
 950 468 l 258
 950 131 1122 32 1290 32 c 256
 1458 32 1630 131 1630 468 c 256
 1630 738 1535 920 1453 1029 c 257
 1491 1051 l 257
 1565 960 1675 768 1675 468 c 256
EndSplineSet
Substitution2: "smcpBasdecasseverspetitescapitalesdansLatinlookup0 subtable" uni0195.sc
EndChar

StartChar: uni0196
Encoding: 406 406 386
GlifName: uni0196
Width: 608
VWidth: 0
GlyphClass: 2
Flags: HW
LayerCount: 2
Fore
SplineSet
423 0 m 256
 247 0 180 110 180 310 c 258
 180 490 l 257
 180 1480 l 257
 225 1480 l 257
 225 490 l 257
 225 310 l 258
 225 70 333 40 423 40 c 256
 461 40 515 47 554 75 c 257
 568 32 l 257
 539 12 472 0 423 0 c 256
EndSplineSet
Substitution2: "c2sc_CapitalesverspetitescapitalesdansLatinlookup0 subtable" uni0269.sc
EndChar

StartChar: uni0197
Encoding: 407 407 387
GlifName: uni0197
Width: 822
VWidth: 0
GlyphClass: 2
Flags: HW
LayerCount: 2
Fore
SplineSet
675 719 m 257
 147 719 l 257
 147 765 147 715 147 761 c 257
 675 761 l 257
 675 719 l 257
180 1480 m 257
 642 1480 l 257
 642 1438 l 257
 435 1438 l 257
 435 42 l 257
 642 42 l 257
 642 0 l 257
 180 0 l 257
 180 42 l 257
 387 42 l 257
 387 1438 l 257
 180 1438 l 257
 180 1480 l 257
EndSplineSet
Substitution2: "ss03StyleSet3lookups55 subtable" uni0197.cv22
Substitution2: "cv22CharacterVariants22lookups63 subtable" uni0197.cv22
Substitution2: "c2sc_CapitalesverspetitescapitalesdansLatinlookup0 subtable" uni0268.sc
EndChar

StartChar: uni0198
Encoding: 408 408 388
GlifName: uni0198
Width: 1338
VWidth: 0
GlyphClass: 2
Flags: HW
LayerCount: 2
Fore
SplineSet
504 807 m 257
 534 841 l 257
 1198 0 l 257
 1144 0 l 257
 504 807 l 257
180 1180 m 257
 180 1358 313 1490 491 1490 c 256
 495 1490 499 1490 503 1489 c 257
 503 1449 l 257
 499 1450 495 1450 491 1450 c 256
 336 1450 226 1335 226 1180 c 257
 226 568 l 257
 1138 1480 l 257
 1191 1480 1145 1480 1198 1480 c 257
 226 508 l 257
 226 0 l 257
 180 0 l 257
 180 1180 l 257
EndSplineSet
Substitution2: "c2sc_CapitalesverspetitescapitalesdansLatinlookup0 subtable" uni0199.sc
EndChar

StartChar: uni0199
Encoding: 409 409 389
GlifName: uni0199
Width: 1069
VWidth: 0
GlyphClass: 2
Flags: HW
LayerCount: 2
Fore
SplineSet
451 601 m 257
 482 630 l 257
 929 0 l 257
 877 0 l 257
 451 601 l 257
180 1180 m 257
 180 1358 312 1490 490 1490 c 257
 494 1490 498 1490 502 1489 c 257
 502 1449 l 257
 498 1450 494 1450 490 1450 c 257
 335 1450 225 1335 225 1180 c 257
 225 398 l 257
 867 1040 l 257
 920 1040 872 1040 925 1040 c 257
 225 340 l 257
 225 0 l 257
 180 0 l 257
 180 1180 l 257
EndSplineSet
Substitution2: "smcpBasdecasseverspetitescapitalesdansLatinlookup0 subtable" uni0199.sc
EndChar

StartChar: uni019A
Encoding: 410 410 390
GlifName: uni019A_
Width: 540
VWidth: 0
GlyphClass: 2
Flags: HW
LayerCount: 2
Fore
SplineSet
465 720 m 257
 -60 720 l 257
 -60 766 -60 714 -60 760 c 257
 465 760 l 257
 465 720 l 257
489 56 m 257
 500 14 l 257
 475 -3 445 -10 417 -10 c 256
 267 -10 180 60 180 230 c 258
 180 440 l 257
 180 578 l 257
 180 1480 l 257
 225 1480 l 257
 225 578 l 257
 225 440 l 257
 225 230 l 258
 225 40 364 30 417 30 c 256
 431 30 458 36 489 56 c 257
EndSplineSet
Substitution2: "smcpBasdecasseverspetitescapitalesdansLatinlookup0 subtable" uni019A.sc
EndChar

StartChar: uni019B
Encoding: 411 411 391
GlifName: uni019B_
Width: 1102
VWidth: 0
GlyphClass: 2
Flags: HW
LayerCount: 2
Fore
SplineSet
397 1398 m 257
 478 1445 l 257
 458 1480 l 257
 376 1432 l 257
 136 1294 l 257
 156 1259 l 257
 397 1398 l 257
470 1040 m 257
 355 1352 l 257
 319 1449 247 1490 132 1490 c 256
 104 1490 74 1483 49 1466 c 257
 60 1424 l 257
 91 1444 118 1450 132 1450 c 256
 175 1450 273 1443 313 1336 c 257
 420 1040 l 257
 40 0 l 257
 88 0 l 257
 445 984 l 257
 756 128 l 257
 792 31 864 -10 979 -10 c 256
 1007 -10 1037 -3 1062 14 c 257
 1051 56 l 257
 1020 36 993 30 979 30 c 256
 936 30 838 37 798 144 c 257
 470 1040 l 257
EndSplineSet
Substitution2: "smcpBasdecasseverspetitescapitalesdansLatinlookup0 subtable" uni019B.sc
EndChar

StartChar: uni019C
Encoding: 412 412 392
GlifName: uni019C_
Width: 1710
VWidth: 0
GlyphClass: 2
Flags: HW
LayerCount: 2
Fore
SplineSet
1518 208 m 257
 1518 110 1530 0 1530 0 c 257
 1484 0 l 257
 1484 0 1472 110 1472 220 c 257
 1435 113 1382 -10 1162 -10 c 256
 934 -10 826 148 826 468 c 257
 826 1480 l 257
 872 1480 l 257
 872 468 l 258
 872 249 922 32 1172 32 c 256
 1422 32 1472 249 1472 468 c 258
 1472 1480 l 257
 1518 1480 l 257
 1518 208 l 257
872 468 m 257
 872 148 744 -10 516 -10 c 256
 288 -10 180 148 180 468 c 257
 180 1480 l 257
 226 1480 l 257
 226 468 l 258
 226 249 276 32 526 32 c 256
 746 32 826 249 826 468 c 257
 872 468 l 257
EndSplineSet
Substitution2: "c2sc_CapitalesverspetitescapitalesdansLatinlookup0 subtable" uni026F.sc
EndChar

StartChar: uni019D
Encoding: 413 413 393
GlifName: uni019D_
Width: 1440
VWidth: 0
GlyphClass: 2
Flags: HW
LayerCount: 2
Fore
SplineSet
0 -269 m 257
 4 -270 8 -270 12 -270 c 256
 167 -270 276 -155 276 0 c 257
 322 0 l 257
 322 -178 190 -310 12 -310 c 256
 8 -310 4 -310 0 -309 c 257
 0 -269 l 257
322 1480 m 257
 1214 90 l 257
 1214 1480 l 257
 1260 1480 l 257
 1260 0 l 257
 1214 0 l 257
 322 1390 l 257
 322 0 l 257
 276 0 l 257
 276 1480 l 257
 322 1480 l 257
EndSplineSet
Substitution2: "c2sc_CapitalesverspetitescapitalesdansLatinlookup0 subtable" uni0272.sc
EndChar

StartChar: uni019E
Encoding: 414 414 394
GlifName: uni019E_
Width: 1130
VWidth: 0
GlyphClass: 2
Flags: HW
LayerCount: 2
Fore
SplineSet
905 -440 m 257
 905 572 l 258
 905 791 835 1010 565 1010 c 256
 295 1010 225 791 225 572 c 258
 225 0 l 257
 180 0 l 257
 180 1040 l 257
 225 1040 l 257
 225 820 l 257
 262 927 345 1050 575 1050 c 256
 813 1050 950 892 950 572 c 257
 950 -440 l 257
 905 -440 l 257
EndSplineSet
Substitution2: "smcpBasdecasseverspetitescapitalesdansLatinlookup0 subtable" uni019E.sc
EndChar

StartChar: uni019F
Encoding: 415 415 395
GlifName: uni019F_
Width: 1514
VWidth: 0
GlyphClass: 2
Flags: HW
LayerCount: 2
Fore
SplineSet
1354 719 m 257
 164 719 l 257
 164 761 l 257
 1354 761 l 257
 1354 719 l 257
186 740 m 256
 186 265 497 32 757 32 c 256
 1017 32 1328 265 1328 740 c 256
 1328 1215 1017 1448 757 1448 c 256
 497 1448 186 1215 186 740 c 256
140 740 m 256
 140 1179 409 1490 757 1490 c 256
 1105 1490 1374 1179 1374 740 c 256
 1374 301 1105 -10 757 -10 c 256
 409 -10 140 301 140 740 c 256
EndSplineSet
Substitution2: "c2sc_CapitalesverspetitescapitalesdansLatinlookup0 subtable" uni0275.sc
EndChar

StartChar: uni031B
Encoding: 795 795 398
GlifName: uni031B_
Width: 0
VWidth: 0
GlyphClass: 4
Flags: HW
AnchorPoint: "top_right" 0 1480 mark 0
LayerCount: 2
Fore
SplineSet
168 1366 m 257
 162 1363 157 1362 150 1362 c 256
 114 1362 86 1390 86 1426 c 256
 86 1462 114 1490 150 1490 c 256
 198 1490 214 1432 214 1396 c 256
 214 1266 151 1162 0 1125 c 257
 0 1165 l 257
 112 1197 168 1277 168 1366 c 257
EndSplineSet
EndChar

StartChar: uni01A2
Encoding: 418 418 399
GlifName: uni01A_2
Width: 1702
VWidth: 0
GlyphClass: 2
Flags: HW
LayerCount: 2
Fore
SplineSet
1209 1258 m 257
 1209 1216 l 257
 1352 1216 1448 1310 1501 1427 c 257
 1476 1470 l 257
 1434 1364 1323 1258 1209 1258 c 257
1476 -410 m 257
 1522 -410 l 257
 1522 1470 l 257
 1476 1470 l 257
 1476 -410 l 257
1190 253 m 257
 1236 253 l 257
 1236 1227 l 257
 1190 1227 l 257
 1190 253 l 257
1213 303 m 257
 1099 122 918 32 757 32 c 256
 497 32 186 265 186 740 c 256
 186 1215 497 1448 757 1448 c 256
 919 1448 1100 1358 1214 1176 c 257
 1236 1227 l 257
 1124 1392 953 1490 757 1490 c 256
 409 1490 140 1179 140 740 c 256
 140 301 409 -10 757 -10 c 256
 953 -10 1124 88 1236 253 c 257
 1213 303 l 257
EndSplineSet
Substitution2: "c2sc_CapitalesverspetitescapitalesdansLatinlookup0 subtable" uni01A3.sc
EndChar

StartChar: uni01A3
Encoding: 419 419 400
GlifName: uni01A_3
Width: 1427
VWidth: 0
GlyphClass: 2
Flags: HW
LayerCount: 2
Fore
SplineSet
935 833 m 257
 935 791 l 257
 1078 791 1173 885 1226 1002 c 257
 1202 1045 l 257
 1160 939 1049 833 935 833 c 257
1202 -410 m 257
 1247 -410 l 257
 1247 1045 l 257
 1202 1045 l 257
 1202 -410 l 257
917 253 m 257
 962 254 l 257
 962 802 l 257
 917 802 l 257
 917 253 l 257
933 300 m 257
 862 116 704 30 578 30 c 256
 410 30 185 184 185 520 c 256
 185 856 410 1010 578 1010 c 256
 707 1010 869 919 938 726 c 257
 962 786 l 257
 888 949 746 1050 578 1050 c 256
 331 1050 140 832 140 520 c 256
 140 208 331 -10 578 -10 c 256
 746 -10 888 91 962 254 c 257
 933 300 l 257
EndSplineSet
Substitution2: "smcpBasdecasseverspetitescapitalesdansLatinlookup0 subtable" uni01A3.sc
EndChar

StartChar: uni01A4
Encoding: 420 420 401
GlifName: uni01A_4
Width: 1284
VWidth: 0
GlyphClass: 2
Flags: HW
LayerCount: 2
Fore
SplineSet
46 1158 m 257
 1 1158 l 257
 0 1162 0 1166 0 1170 c 256
 0 1348 132 1480 310 1480 c 256
 314 1480 318 1480 322 1479 c 257
 322 1439 l 257
 318 1440 314 1440 310 1440 c 256
 155 1440 45 1325 45 1170 c 256
 45 1166 45 1162 46 1158 c 257
356 1438 m 257
 356 676 l 257
 725 676 l 257
 950 676 1098 857 1098 1057 c 256
 1098 1257 950 1438 725 1438 c 257
 356 1438 l 257
310 0 m 257
 310 1480 l 257
 725 1480 l 257
 949 1480 1144 1312 1144 1057 c 256
 1144 802 949 634 725 634 c 257
 356 634 l 257
 356 0 l 257
 310 0 l 257
EndSplineSet
Substitution2: "c2sc_CapitalesverspetitescapitalesdansLatinlookup0 subtable" uni01A5.sc
EndChar

StartChar: uni01A5
Encoding: 421 421 402
GlifName: uni01A_5
Width: 1152
VWidth: 0
GlyphClass: 2
Flags: HW
LayerCount: 2
Fore
SplineSet
217 520 m 257
 217 184 417 30 592 30 c 256
 767 30 967 184 967 520 c 256
 967 856 767 1010 592 1010 c 256
 417 1010 217 856 217 520 c 257
180 1180 m 257
 180 1358 312 1490 490 1490 c 257
 494 1490 498 1490 502 1489 c 257
 502 1449 l 257
 498 1450 494 1450 490 1450 c 257
 335 1450 225 1335 225 1180 c 257
 225 1180 225 800 225 780 c 257
 256 896 392 1050 592 1050 c 256
 839 1050 1012 832 1012 520 c 256
 1012 208 839 -10 592 -10 c 256
 392 -10 256 144 225 260 c 257
 225 -440 l 257
 180 -440 l 257
 180 520 l 257
 180 1180 l 257
EndSplineSet
Substitution2: "smcpBasdecasseverspetitescapitalesdansLatinlookup0 subtable" uni01A5.sc
EndChar

StartChar: uni01A6
Encoding: 422 422 403
GlifName: uni01A_6
Width: 1170
VWidth: 0
GlyphClass: 2
Flags: HW
LayerCount: 2
Fore
SplineSet
545 475 m 257
 591 484 l 257
 1030 -168 l 257
 976 -168 l 257
 545 475 l 257
226 1270 m 257
 226 508 l 257
 595 508 l 257
 820 508 968 689 968 889 c 256
 968 1089 820 1270 595 1270 c 257
 226 1270 l 257
180 0 m 257
 180 1480 l 257
 226 1480 l 257
 226 1312 l 257
 595 1312 l 257
 819 1312 1014 1144 1014 889 c 256
 1014 634 819 466 595 466 c 257
 226 466 l 257
 226 0 l 257
 180 0 l 257
EndSplineSet
EndChar

StartChar: uni01A7
Encoding: 423 423 404
GlifName: uni01A_7
Width: 1175
VWidth: 0
GlyphClass: 2
Flags: HW
AnchorPoint: "top_center" 589 1380 basechar 0
AnchorPoint: "bottom_center" 589 0 basechar 0
LayerCount: 2
Fore
SplineSet
589 1448 m 256
 774 1448 952 1364 952 1124 c 256
 952 884 742 816 589 769 c 256
 321 688 140 616 140 356 c 256
 140 96 320 -10 589 -10 c 256
 850 -10 1030 143 1035 381 c 257
 989 394 l 257
 989 161 814 32 589 32 c 256
 395 32 186 106 186 356 c 256
 186 606 388 660 589 721 c 256
 857 803 998 894 998 1124 c 256
 998 1354 845 1490 589 1490 c 256
 328 1490 168 1347 163 1109 c 257
 209 1096 l 257
 209 1329 364 1448 589 1448 c 256
EndSplineSet
Substitution2: "c2sc_CapitalesverspetitescapitalesdansLatinlookup0 subtable" uni01A8.sc
EndChar

StartChar: uni01A8
Encoding: 424 424 405
GlifName: uni01A_8
Width: 1002
VWidth: 0
GlyphClass: 2
Flags: HW
AnchorPoint: "bottom_right" 389 0 basechar 0
AnchorPoint: "bottom_center" 497 0 basechar 0
AnchorPoint: "top_center" 497 1040 basechar 0
LayerCount: 2
Fore
SplineSet
497 1050 m 256
 304 1050 192 953 158 808 c 257
 196 786 l 257
 239 964 381 1010 497 1010 c 256
 613 1010 782 950 782 780 c 256
 782 600 625 580 497 546 c 256
 291 492 140 457 140 261 c 256
 140 85 295 -10 497 -10 c 256
 699 -10 828 108 862 253 c 257
 824 275 l 257
 784 105 629 30 497 30 c 256
 365 30 185 91 185 261 c 256
 185 441 369 466 497 500 c 256
 703 554 827 595 827 780 c 256
 827 935 690 1050 497 1050 c 256
EndSplineSet
Substitution2: "smcpBasdecasseverspetitescapitalesdansLatinlookup0 subtable" uni01A8.sc
EndChar

StartChar: uni01AA
Encoding: 426 426 407
GlifName: uni01A_A_
Width: 1011
VWidth: 0
GlyphClass: 2
Flags: HW
LayerCount: 2
Fore
SplineSet
140 1264 m 256
 140 1387 234 1488 369 1488 c 256
 504 1488 598 1387 598 1264 c 256
 598 1141 504 1040 369 1040 c 256
 234 1040 140 1141 140 1264 c 256
185 1264 m 256
 185 1154 269 1080 369 1080 c 256
 469 1080 553 1154 553 1264 c 256
 553 1370 469 1448 369 1448 c 256
 269 1448 185 1370 185 1264 c 256
598 300 m 258
 598 60 706 30 796 30 c 256
 834 30 888 37 927 65 c 257
 941 22 l 257
 901 4 845 -10 796 -10 c 256
 620 -10 553 100 553 300 c 258
 553 1174 l 257
 598 1264 l 257
 598 300 l 258
EndSplineSet
EndChar

StartChar: uni01AB
Encoding: 427 427 408
GlifName: uni01A_B_
Width: 772
VWidth: 0
GlyphClass: 2
Flags: HW
LayerCount: 2
Fore
SplineSet
580 0 m 257
 580 -178 447 -310 269 -310 c 256
 265 -310 261 -310 257 -309 c 257
 257 -269 l 257
 261 -270 265 -270 269 -270 c 256
 424 -270 534 -155 534 0 c 257
 580 0 l 257
148 1040 m 257
 298 1040 314 1056 314 1206 c 257
 314 1320 l 257
 359 1320 l 257
 359 1040 l 257
 665 1040 l 257
 665 1000 l 257
 359 1000 l 257
 359 300 l 258
 359 60 467 30 557 30 c 256
 595 30 649 37 688 65 c 257
 702 22 l 257
 662 4 606 -10 557 -10 c 256
 381 -10 314 100 314 300 c 258
 314 1000 l 257
 70 1000 l 257
 70 1040 l 257
 148 1040 l 257
EndSplineSet
Substitution2: "smcpBasdecasseverspetitescapitalesdansLatinlookup0 subtable" uni01AB.sc
EndChar

StartChar: uni01AC
Encoding: 428 428 409
GlifName: uni01A_C_
Width: 1234
VWidth: 0
GlyphClass: 2
Flags: HW
LayerCount: 2
Fore
SplineSet
46 1158 m 257
 1 1158 l 257
 0 1162 0 1166 0 1170 c 256
 0 1348 132 1480 310 1480 c 257
 310 1438 l 257
 155 1438 45 1325 45 1170 c 256
 45 1166 45 1162 46 1158 c 257
585 0 m 257
 539 0 l 257
 539 1438 l 257
 310 1438 l 257
 310 1480 l 257
 1054 1480 l 257
 1054 1438 l 257
 585 1438 l 257
 585 0 l 257
EndSplineSet
Substitution2: "c2sc_CapitalesverspetitescapitalesdansLatinlookup0 subtable" uni01AD.sc
EndChar

StartChar: uni01AE
Encoding: 430 430 410
GlifName: uni01A_E_
Width: 1344
VWidth: 0
GlyphClass: 2
Flags: HW
LayerCount: 2
Fore
SplineSet
971 -269 m 257
 967 -270 963 -270 959 -270 c 256
 804 -270 695 -155 695 0 c 257
 649 0 l 257
 649 -178 781 -310 959 -310 c 256
 963 -310 967 -310 971 -309 c 257
 971 -269 l 257
649 1438 m 257
 180 1438 l 257
 180 1480 l 257
 1164 1480 l 257
 1164 1438 l 257
 695 1438 l 257
 695 0 l 257
 649 0 l 257
 649 1438 l 257
EndSplineSet
Substitution2: "c2sc_CapitalesverspetitescapitalesdansLatinlookup0 subtable" uni0288.sc
EndChar

StartChar: uni01AD
Encoding: 429 429 411
GlifName: uni01A_D_
Width: 772
VWidth: 0
GlyphClass: 2
Flags: HW
LayerCount: 2
Fore
SplineSet
314 1348 m 257
 314 1526 446 1658 624 1658 c 257
 628 1658 632 1658 636 1657 c 257
 636 1617 l 257
 632 1618 628 1618 624 1618 c 257
 469 1618 359 1503 359 1348 c 257
 359 1040 l 257
 665 1040 l 257
 665 1000 l 257
 359 1000 l 257
 359 300 l 258
 359 60 467 30 557 30 c 256
 595 30 649 37 688 65 c 257
 702 22 l 257
 662 4 606 -10 557 -10 c 256
 381 -10 314 100 314 300 c 258
 314 1000 l 257
 70 1000 l 257
 70 1040 l 257
 148 1040 l 257
 298 1040 314 1056 314 1206 c 257
 314 1348 l 257
EndSplineSet
Substitution2: "smcpBasdecasseverspetitescapitalesdansLatinlookup0 subtable" uni01AD.sc
EndChar

StartChar: uni01B1
Encoding: 433 433 414
GlifName: uni01B_1
Width: 1514
VWidth: 0
GlyphClass: 2
Flags: HW
LayerCount: 2
Fore
SplineSet
1374 1480 m 257
 1374 1438 l 257
 852 1438 l 257
 852 1480 l 257
 1374 1480 l 257
140 1480 m 257
 662 1480 l 257
 662 1438 l 257
 140 1438 l 257
 140 1480 l 257
1374 740 m 256
 1374 301 1105 -10 757 -10 c 257
 757 32 l 257
 1017 32 1328 265 1328 740 c 256
 1328 1158 1087 1389 852 1438 c 257
 993 1438 l 257
 1219 1332 1374 1073 1374 740 c 256
140 740 m 256
 140 1073 295 1332 521 1438 c 257
 662 1438 l 257
 427 1389 186 1158 186 740 c 256
 186 265 497 32 757 32 c 257
 757 -10 l 257
 409 -10 140 301 140 740 c 256
EndSplineSet
Substitution2: "c2sc_CapitalesverspetitescapitalesdansLatinlookup0 subtable" uni028A.sc
EndChar

StartChar: uni01B2
Encoding: 434 434 415
GlifName: uni01B_2
Width: 1344
VWidth: 0
GlyphClass: 2
Flags: HW
LayerCount: 2
Fore
SplineSet
1118 1180 m 257
 1118 528 l 257
 1118 178 912 32 672 32 c 256
 432 32 226 178 226 528 c 257
 226 1480 l 257
 180 1480 l 257
 180 528 l 257
 180 168 375 -10 672 -10 c 256
 969 -10 1164 168 1164 528 c 257
 1164 1180 l 257
 1164 1358 1031 1490 853 1490 c 256
 849 1490 845 1490 841 1489 c 257
 841 1449 l 257
 845 1450 849 1450 853 1450 c 256
 1008 1450 1118 1335 1118 1180 c 257
EndSplineSet
Substitution2: "c2sc_CapitalesverspetitescapitalesdansLatinlookup0 subtable" uni028B.sc
EndChar

StartChar: uni01B3
Encoding: 435 435 416
GlifName: uni01B_3
Width: 1495
VWidth: 0
GlyphClass: 2
Flags: HW
LayerCount: 2
Fore
SplineSet
1475 1402 m 257
 1472 1405 1469 1407 1466 1409 c 256
 1421 1435 1375 1447 1330 1447 c 256
 1239 1447 1158 1397 1101 1308 c 257
 1062 1330 l 257
 1131 1432 1221 1488 1326 1488 c 256
 1379 1488 1434 1474 1486 1444 c 256
 1489 1442 1492 1440 1495 1437 c 257
 1475 1402 l 257
648 0 m 257
 648 740 l 257
 694 740 l 257
 694 0 l 257
 648 0 l 257
685 719 m 257
 659 716 l 257
 120 1480 l 257
 174 1480 l 257
 671 778 l 257
 1062 1330 l 257
 1101 1308 l 257
 685 719 l 257
EndSplineSet
Substitution2: "c2sc_CapitalesverspetitescapitalesdansLatinlookup0 subtable" uni01B4.sc
EndChar

StartChar: uni01B4
Encoding: 436 436 417
GlifName: uni01B_4
Width: 1241
VWidth: 0
GlyphClass: 2
Flags: HW
LayerCount: 2
Fore
SplineSet
1231 996 m 257
 1227 998 1224 1000 1220 1001 c 257
 1195 1008 1169 1011 1145 1011 c 256
 1026 1011 937 933 894 808 c 257
 850 820 l 257
 898 962 1006 1051 1143 1051 c 256
 1171 1051 1200 1047 1230 1039 c 257
 1234 1038 1237 1037 1241 1035 c 257
 1231 996 l 257
483 -312 m 257
 450 -401 381 -450 265 -450 c 256
 216 -450 160 -436 120 -418 c 257
 134 -375 l 257
 173 -403 227 -410 265 -410 c 256
 330 -410 405 -395 441 -296 c 257
 548 0 l 257
 168 1040 l 257
 216 1040 l 257
 573 56 l 257
 850 820 l 257
 894 808 l 257
 598 0 l 257
 483 -312 l 257
EndSplineSet
Substitution2: "smcpBasdecasseverspetitescapitalesdansLatinlookup0 subtable" uni01B4.sc
EndChar

StartChar: uni01B5
Encoding: 437 437 418
GlifName: uni01B_5
Width: 1258
VWidth: 0
GlyphClass: 2
Flags: HW
LayerCount: 2
Fore
SplineSet
955 719 m 257
 315 719 l 257
 315 729 315 751 315 761 c 257
 955 761 l 257
 955 719 l 257
210 0 m 257
 180 38 l 257
 1030 1480 l 257
 1060 1442 l 257
 210 0 l 257
204 42 m 257
 1078 42 l 257
 1078 0 l 257
 752 0 506 0 180 0 c 257
 180 38 l 257
 204 42 l 257
1035 1438 m 257
 198 1438 l 257
 198 1480 l 257
 524 1480 734 1480 1060 1480 c 257
 1060 1442 l 257
 1035 1438 l 257
EndSplineSet
Substitution2: "c2sc_CapitalesverspetitescapitalesdansLatinlookup0 subtable" uni01B6.sc
EndChar

StartChar: uni01B6
Encoding: 438 438 419
GlifName: uni01B_6
Width: 1012
VWidth: 0
GlyphClass: 2
Flags: HW
LayerCount: 2
Fore
SplineSet
180 1040 m 257
 180 1000 l 257
 803 1000 l 257
 832 1008 l 257
 832 1040 l 257
 180 1040 l 257
832 40 m 257
 209 40 l 257
 180 32 l 257
 180 0 l 257
 832 0 l 257
 832 40 l 257
232 40 m 257
 832 1008 l 257
 780 1000 l 257
 180 32 l 257
 232 40 l 257
186 500 m 257
 826 500 l 257
 826 540 l 257
 186 540 l 257
 186 530 186 510 186 500 c 257
EndSplineSet
Substitution2: "smcpBasdecasseverspetitescapitalesdansLatinlookup0 subtable" uni01B6.sc
EndChar

StartChar: uni01B7
Encoding: 439 439 420
GlifName: uni01B_7
Width: 1176
VWidth: 0
GlyphClass: 2
Flags: HW
LayerCount: 2
Fore
SplineSet
531 758 m 257
 501 796 l 257
 970 1480 l 257
 1000 1442 l 257
 531 758 l 257
1036 390 m 256
 1036 147 849 -10 585 -10 c 256
 324 -10 145 143 140 381 c 257
 186 394 l 257
 186 161 360 32 585 32 c 256
 810 32 990 157 990 390 c 256
 990 623 771 756 585 756 c 257
 535 756 501 756 501 756 c 257
 501 796 l 257
 501 796 535 802 585 802 c 257
 801 802 1036 633 1036 390 c 256
176 1480 m 257
 1000 1480 l 257
 1000 1442 l 257
 975 1438 l 257
 176 1438 l 257
 176 1480 l 257
EndSplineSet
Substitution2: "c2sc_CapitalesverspetitescapitalesdansLatinlookup0 subtable" uni0292.sc
EndChar

StartChar: uni01B8
Encoding: 440 440 421
GlifName: uni01B_8
Width: 1176
VWidth: 0
GlyphClass: 2
Flags: HW
LayerCount: 2
Fore
SplineSet
645 758 m 257
 675 796 l 257
 206 1480 l 257
 176 1442 l 257
 645 758 l 257
140 390 m 256
 140 147 327 -10 591 -10 c 256
 852 -10 1031 143 1036 381 c 257
 990 394 l 257
 990 161 816 32 591 32 c 256
 366 32 186 157 186 390 c 256
 186 623 405 756 591 756 c 257
 641 756 675 756 675 756 c 257
 675 796 l 257
 675 796 641 802 591 802 c 257
 375 802 140 633 140 390 c 256
1000 1480 m 257
 176 1480 l 257
 176 1442 l 257
 201 1438 l 257
 1000 1438 l 257
 1000 1480 l 257
EndSplineSet
Substitution2: "c2sc_CapitalesverspetitescapitalesdansLatinlookup0 subtable" uni01B9.sc
EndChar

StartChar: uni01B9
Encoding: 441 441 422
GlifName: uni01B_9
Width: 1176
VWidth: 0
GlyphClass: 2
Flags: HW
LayerCount: 2
Fore
SplineSet
645 318 m 257
 675 356 l 257
 206 1040 l 257
 176 1002 l 257
 645 318 l 257
140 -50 m 256
 140 -293 327 -450 591 -450 c 256
 852 -450 1031 -297 1036 -59 c 257
 990 -46 l 257
 990 -279 816 -408 591 -408 c 256
 366 -408 186 -283 186 -50 c 256
 186 183 405 316 591 316 c 257
 641 316 675 316 675 316 c 257
 675 356 l 257
 675 356 641 362 591 362 c 257
 375 362 140 193 140 -50 c 256
1000 1040 m 257
 176 1040 l 257
 176 1002 l 257
 201 998 l 257
 1000 998 l 257
 1000 1040 l 257
EndSplineSet
Substitution2: "smcpBasdecasseverspetitescapitalesdansLatinlookup0 subtable" uni01B9.sc
EndChar

StartChar: uni01BA
Encoding: 442 442 423
GlifName: uni01B_A_
Width: 1182
VWidth: 0
GlyphClass: 2
Flags: HW
LayerCount: 2
Fore
SplineSet
591 -76 m 256
 272 -76 185 -174 185 -254 c 256
 185 -334 294 -430 591 -430 c 256
 740 -430 929 -384 986 -347 c 257
 1000 -388 l 257
 944 -425 767 -470 591 -470 c 256
 241 -470 140 -354 140 -254 c 256
 140 -154 241 -36 591 -36 c 256
 888 -36 997 60 997 140 c 256
 997 220 910 316 591 316 c 258
 507 316 l 257
 507 356 l 257
 591 362 l 257
 941 362 1042 240 1042 140 c 256
 1042 40 941 -76 591 -76 c 256
537 318 m 257
 507 356 l 257
 948 1000 l 257
 1006 1004 l 257
 537 318 l 257
182 1040 m 257
 1006 1040 l 257
 1006 1004 l 257
 981 1000 l 257
 182 1000 l 257
 182 1040 l 257
EndSplineSet
EndChar

StartChar: uni01BB
Encoding: 443 443 424
GlifName: uni01B_B_
Width: 1198
VWidth: 0
GlyphClass: 2
Flags: HW
LayerCount: 2
Fore
SplineSet
1035 505 m 257
 167 505 l 257
 167 547 l 257
 1035 547 l 257
 1035 505 l 257
217 987 m 257
 170 1000 l 257
 170 1300 353 1490 599 1490 c 256
 845 1490 1028 1320 1028 1040 c 257
 982 1040 l 257
 982 1280 829 1448 599 1448 c 256
 365 1448 216 1258 216 1000 c 256
 216 996 216 993 217 987 c 257
163 0 m 257
 163 116 166 303 599 553 c 256
 876 713 982 824 982 1040 c 257
 1028 1040 l 257
 1028 760 820 627 599 500 c 256
 379 373 209 230 209 0 c 257
 160 0 212 0 163 0 c 257
183 42 m 257
 1035 42 l 257
 1035 0 l 257
 209 0 l 257
 183 42 l 257
EndSplineSet
EndChar

StartChar: uni01BC
Encoding: 444 444 425
GlifName: uni01B_C_
Width: 1198
VWidth: 0
GlyphClass: 2
Flags: HW
LayerCount: 2
Fore
SplineSet
224 706 m 257
 186 718 l 257
 258 877 373 976 598 976 c 256
 845 976 1050 774 1050 483 c 256
 1050 192 859 -10 598 -10 c 256
 337 -10 157 143 152 381 c 257
 198 394 l 257
 198 161 373 32 598 32 c 256
 855 32 1002 251 1002 483 c 256
 1002 715 845 934 598 934 c 256
 351 934 278 797 224 706 c 257
285 1459 m 257
 330 1459 l 257
 228 751 l 257
 186 718 l 257
 180 720 l 257
 285 1459 l 257
0 1438 m 257
 0 1480 l 257
 990 1480 l 257
 990 1438 l 257
 0 1438 l 257
EndSplineSet
Substitution2: "c2sc_CapitalesverspetitescapitalesdansLatinlookup0 subtable" uni01BD.sc
EndChar

StartChar: uni01BD
Encoding: 445 445 426
GlifName: uni01B_D_
Width: 1060
VWidth: 0
GlyphClass: 2
Flags: HW
LayerCount: 2
Fore
SplineSet
563 30 m 256
 733 30 875 177 875 347 c 256
 875 517 733 664 563 664 c 256
 401 664 331 571 276 477 c 257
 255 482 l 257
 288 589 378 704 563 704 c 256
 748 704 920 556 920 347 c 256
 920 138 748 -10 563 -10 c 256
 378 -10 229 118 206 295 c 257
 251 308 l 257
 267 154 393 30 563 30 c 256
313 1012 m 257
 355 1012 l 257
 284 515 l 257
 255 482 l 257
 238 486 l 257
 313 1012 l 257
140 1000 m 257
 140 1040 l 257
 867 1040 l 257
 867 1000 l 257
 140 1000 l 257
EndSplineSet
Substitution2: "smcpBasdecasseverspetitescapitalesdansLatinlookup0 subtable" uni01BD.sc
EndChar

StartChar: uni01BE
Encoding: 446 446 427
GlifName: uni01B_E_
Width: 1141
VWidth: 0
GlyphClass: 2
Flags: HW
LayerCount: 2
Fore
SplineSet
359 1000 m 257
 359 780 l 257
 359 600 516 580 644 546 c 256
 850 492 1001 457 1001 261 c 256
 1001 85 846 -10 644 -10 c 256
 442 -10 313 108 279 253 c 257
 317 275 l 257
 357 105 512 30 644 30 c 256
 776 30 956 91 956 261 c 256
 956 441 772 466 644 500 c 256
 438 554 314 595 314 780 c 257
 314 1000 l 257
 70 1000 l 257
 70 1040 l 257
 148 1040 l 257
 298 1040 314 1056 314 1206 c 257
 314 1320 l 257
 359 1320 l 257
 359 1040 l 257
 665 1040 l 257
 665 1000 l 257
 359 1000 l 257
EndSplineSet
EndChar

StartChar: uni01BF
Encoding: 447 447 428
GlifName: uni01B_F_
Width: 1090
VWidth: 0
GlyphClass: 2
Flags: HW
LayerCount: 2
Fore
SplineSet
905 572 m 256
 905 791 835 1010 565 1010 c 256
 295 1010 225 791 225 572 c 258
 225 -440 l 257
 180 -440 l 257
 180 1040 l 257
 225 1040 l 257
 225 820 l 257
 262 927 345 1050 575 1050 c 256
 813 1050 950 892 950 572 c 257
 950 182 565 -40 195 -40 c 257
 195 0 l 257
 557 0 905 213 905 572 c 256
EndSplineSet
Substitution2: "smcpBasdecasseverspetitescapitalesdansLatinlookup0 subtable" uni01BF.sc
EndChar

StartChar: uni01C0
Encoding: 448 448 429
GlifName: uni01C_0
Width: 364
VWidth: 0
GlyphClass: 2
Flags: HW
LayerCount: 2
Fore
SplineSet
224 1480 m 257
 224 0 l 257
 180 0 l 257
 180 1480 l 257
 224 1480 l 257
EndSplineSet
EndChar

StartChar: uni01C1
Encoding: 449 449 430
GlifName: uni01C_1
Width: 630
VWidth: 0
GlyphClass: 2
Flags: HW
LayerCount: 2
Fore
SplineSet
450 1480 m 257
 450 0 l 257
 405 0 l 257
 405 1480 l 257
 450 1480 l 257
225 1480 m 257
 225 0 l 257
 180 0 l 257
 180 1480 l 257
 225 1480 l 257
EndSplineSet
EndChar

StartChar: uni01C2
Encoding: 450 450 431
GlifName: uni01C_2
Width: 1176
VWidth: 0
GlyphClass: 2
Flags: HW
LayerCount: 2
Fore
SplineSet
180 910 m 257
 180 955 l 257
 996 955 l 257
 996 910 l 257
 180 910 l 257
180 525 m 257
 180 570 l 257
 996 570 l 257
 996 525 l 257
 180 525 l 257
610 1480 m 257
 610 0 l 257
 566 0 l 257
 566 1480 l 257
 610 1480 l 257
EndSplineSet
EndChar

StartChar: uni01C3
Encoding: 451 451 432
GlifName: uni01C_3
Width: 488
VWidth: 0
GlyphClass: 2
Flags: HW
LayerCount: 2
Fore
SplineSet
180 54 m 256
 180 90 208 118 244 118 c 256
 280 118 308 90 308 54 c 256
 308 18 280 -10 244 -10 c 256
 208 -10 180 18 180 54 c 256
217 1480 m 257
 271 1480 l 257
 267 452 l 257
 221 452 l 257
 217 1480 l 257
EndSplineSet
EndChar

StartChar: uni01DD
Encoding: 477 477 450
GlifName: uni01D_D_
Width: 1156
VWidth: 0
GlyphClass: 2
Flags: HW
LayerCount: 2
Fore
SplineSet
991 500 m 257
 157 500 l 257
 185 540 l 257
 991 540 l 257
 991 500 l 257
204 766 m 257
 165 788 l 257
 239 950 381 1050 578 1050 c 256
 825 1050 1016 832 1016 520 c 256
 1016 208 825 -10 578 -10 c 256
 331 -10 140 208 140 520 c 256
 140 527 140 533 140 540 c 257
 185 540 l 257
 185 533 185 527 185 520 c 256
 185 184 410 30 578 30 c 256
 746 30 971 184 971 520 c 256
 971 856 746 1010 578 1010 c 256
 432 1010 280 932 204 766 c 257
EndSplineSet
Substitution2: "smcpBasdecasseverspetitescapitalesdansLatinlookup0 subtable" uni01DD.sc
EndChar

StartChar: uni01E4
Encoding: 484 484 456
GlifName: uni01E_4
Width: 1512
VWidth: 0
GlyphClass: 2
Flags: HW
LayerCount: 2
Fore
SplineSet
1512 299 m 257
 977 299 l 257
 977 311 977 329 977 341 c 257
 1512 341 l 257
 1512 299 l 257
1256 1097 m 257
 1149 1332 940 1448 757 1448 c 256
 497 1448 186 1215 186 740 c 256
 186 265 497 32 757 32 c 256
 940 32 1149 148 1256 383 c 257
 1296 360 l 257
 1192 132 992 -10 757 -10 c 256
 409 -10 140 301 140 740 c 256
 140 1179 409 1490 757 1490 c 256
 992 1490 1192 1348 1296 1120 c 257
 1256 1097 l 257
757 740 m 261
 1302 740 l 257
 1302 0 l 257
 1256 0 l 257
 1256 327 l 257
 1256 353 l 257
 1256 698 l 257
 757 698 l 261
 757 740 l 261
EndSplineSet
Substitution2: "ss03StyleSet3lookups55 subtable" uni01E4.cv21
Substitution2: "cv21CharacterVariants21lookups62 subtable" uni01E4.cv21
Substitution2: "c2sc_CapitalesverspetitescapitalesdansLatinlookup0 subtable" uni01E5.sc
EndChar

StartChar: uni01E5
Encoding: 485 485 457
GlifName: uni01E_5
Width: 1147
VWidth: 0
GlyphClass: 2
Flags: HW
LayerCount: 2
Fore
SplineSet
606 1007 m 257
 656 1033 720 1050 805 1050 c 256
 849 1050 900 1035 937 1014 c 257
 916 972 l 257
 881 994 841 1010 795 1010 c 256
 737 1010 689 1000 648 982 c 257
 606 1007 l 257
484 340 m 257
 484 310 l 257
 345 310 174 290 174 175 c 256
 174 60 289 40 484 40 c 257
 484 0 l 257
 253 0 134 45 134 175 c 256
 134 305 273 340 484 340 c 257
937 -166 m 256
 937 -346 802 -450 484 -450 c 256
 166 -450 70 -345 70 -204 c 256
 70 -33 215 40 484 40 c 257
 484 14 l 257
 266 14 115 -49 115 -204 c 256
 115 -359 266 -410 484 -410 c 256
 830 -410 892 -270 892 -170 c 256
 892 -90 838 0 484 0 c 257
 484 40 l 257
 766 40 937 -6 937 -166 c 256
179 680 m 256
 179 460 344 350 484 350 c 256
 624 350 789 460 789 680 c 256
 789 900 624 1010 484 1010 c 256
 344 1010 179 900 179 680 c 256
134 680 m 256
 134 899 291 1050 484 1050 c 256
 677 1050 834 899 834 680 c 256
 834 461 677 310 484 310 c 256
 291 310 134 461 134 680 c 256
1147 -167 m 257
 622 -167 l 257
 622 -155 622 -139 622 -127 c 257
 1147 -127 l 257
 1147 -167 l 257
EndSplineSet
Substitution2: "ss04StyleSet4lookups56 subtable" uni01E5.cv24
Substitution2: "cv24CharacterVariants24lookups65 subtable" uni01E5.cv24
Substitution2: "smcpBasdecasseverspetitescapitalesdansLatinlookup0 subtable" uni01E5.sc
EndChar

StartChar: uni0292
Encoding: 658 658 471
GlifName: uni0292
Width: 1176
VWidth: 0
GlyphClass: 2
Flags: HW
LayerCount: 2
Fore
SplineSet
531 318 m 257
 501 356 l 257
 970 1040 l 257
 1000 1002 l 257
 531 318 l 257
1036 -50 m 256
 1036 -293 849 -450 585 -450 c 256
 324 -450 145 -297 140 -59 c 257
 186 -46 l 257
 186 -279 360 -408 585 -408 c 256
 810 -408 990 -283 990 -50 c 256
 990 183 771 316 585 316 c 257
 535 316 501 316 501 316 c 257
 501 356 l 257
 501 356 535 362 585 362 c 257
 801 362 1036 193 1036 -50 c 256
176 1040 m 257
 1000 1040 l 257
 1000 1002 l 257
 975 998 l 257
 176 998 l 257
 176 1040 l 257
EndSplineSet
Substitution2: "smcpBasdecasseverspetitescapitalesdansLatinlookup0 subtable" uni0292.sc
EndChar

StartChar: uni01F7
Encoding: 503 503 496
GlifName: uni01F_7
Width: 1298
VWidth: 0
GlyphClass: 2
Flags: HW
LayerCount: 2
Fore
SplineSet
1112 880 m 256
 1112 1110 1009 1448 669 1448 c 256
 329 1448 226 1110 226 880 c 258
 226 -440 l 257
 180 -440 l 257
 180 1480 l 257
 226 1480 l 257
 226 1150 l 257
 305 1414 477 1490 677 1490 c 256
 967 1490 1158 1260 1158 880 c 256
 1158 500 895 0 205 0 c 257
 205 42 l 257
 945 42 1112 620 1112 880 c 256
EndSplineSet
Substitution2: "c2sc_CapitalesverspetitescapitalesdansLatinlookup0 subtable" uni01BF.sc
EndChar

StartChar: uni01F6
Encoding: 502 502 497
GlifName: uni01F_6
Width: 2070
VWidth: 0
GlyphClass: 2
Flags: HW
LayerCount: 2
Fore
SplineSet
1890 1040 m 257
 1890 468 l 257
 1890 148 1752 -10 1504 -10 c 256
 1256 -10 1118 148 1118 468 c 257
 1118 650 l 257
 1164 650 l 257
 1164 468 l 258
 1164 249 1234 32 1504 32 c 256
 1774 32 1844 249 1844 468 c 258
 1844 1040 l 257
 1890 1040 l 257
180 1480 m 257
 226 1480 l 257
 226 761 l 257
 1118 761 l 257
 1118 1480 l 257
 1164 1480 l 257
 1164 650 l 257
 1118 650 l 257
 1118 719 l 257
 226 719 l 257
 226 0 l 257
 180 0 l 257
 180 1480 l 257
EndSplineSet
Substitution2: "c2sc_CapitalesverspetitescapitalesdansLatinlookup0 subtable" uni0195.sc
EndChar

StartChar: uni030F
Encoding: 783 783 498
GlifName: uni030F_
Width: 0
VWidth: 0
GlyphClass: 4
Flags: HW
AnchorPoint: "top_center" 642 1040 mark 0
LayerCount: 2
Fore
SplineSet
526 1224 m 257
 570 1224 l 257
 384 1480 l 257
 328 1480 l 257
 526 1224 l 257
768 1224 m 257
 812 1224 l 257
 626 1480 l 257
 570 1480 l 257
 768 1224 l 257
EndSplineSet
EndChar

StartChar: uni0311
Encoding: 785 785 511
GlifName: uni0311
Width: 0
VWidth: 0
GlyphClass: 4
Flags: HW
AnchorPoint: "top_center" 642 1040 mark 0
LayerCount: 2
Fore
SplineSet
642 1490 m 256
 510 1490 396 1374 396 1234 c 257
 441 1234 l 257
 441 1360 532 1450 642 1450 c 256
 752 1450 843 1360 843 1234 c 257
 888 1234 l 257
 888 1374 774 1490 642 1490 c 256
EndSplineSet
EndChar

StartChar: uni0326
Encoding: 806 806 528
GlifName: uni0326
Width: 0
VWidth: 0
GlyphClass: 4
Flags: HW
AnchorPoint: "bottom_center" 642 0 mark 0
LayerCount: 2
Fore
SplineSet
578 -196 m 256
 578 -160 606 -132 642 -132 c 256
 678 -132 706 -160 706 -196 c 256
 706 -232 678 -260 642 -260 c 256
 606 -260 578 -232 578 -196 c 256
578 -454 m 257
 628 -441 695 -380 695 -290 c 256
 695 -210 642 -177 642 -177 c 257
 642 -132 l 257
 704 -132 741 -210 741 -290 c 256
 741 -400 658 -476 590 -496 c 257
 578 -454 l 257
EndSplineSet
EndChar

StartChar: uni021C
Encoding: 540 540 529
GlifName: uni021C_
Width: 1170
VWidth: 0
GlyphClass: 2
Flags: HW
LayerCount: 2
Fore
SplineSet
815 589 m 257
 901 517 984 403 984 265 c 256
 984 -15 770 -398 260 -398 c 257
 260 -440 l 257
 800 -440 1030 -45 1030 265 c 256
 1030 423 939 547 844 623 c 257
 815 589 l 257
569 1449 m 256
 799 1449 952 1281 952 1041 c 256
 952 761 770 378 260 378 c 257
 260 336 l 257
 800 336 998 731 998 1041 c 256
 998 1321 815 1491 569 1491 c 256
 323 1491 140 1301 140 1001 c 257
 187 988 l 257
 186 994 186 997 186 1001 c 256
 186 1259 335 1449 569 1449 c 256
EndSplineSet
Substitution2: "c2sc_CapitalesverspetitescapitalesdansLatinlookup0 subtable" uni021D.sc
EndChar

StartChar: uni021D
Encoding: 541 541 530
GlifName: uni021D_
Width: 980
VWidth: 0
GlyphClass: 2
Flags: HW
LayerCount: 2
Fore
SplineSet
667 369 m 257
 735 312 798 227 798 133 c 256
 798 -78 576 -400 218 -400 c 257
 218 -440 l 257
 572 -440 840 -144 840 135 c 256
 840 248 769 342 693 402 c 257
 667 369 l 257
478 1010 m 256
 655 1010 774 871 774 708 c 256
 774 497 576 175 218 175 c 257
 218 135 l 257
 572 135 816 431 816 710 c 256
 816 909 668 1050 478 1050 c 256
 288 1050 140 901 140 699 c 257
 187 686 l 257
 186 688 185 693 185 699 c 256
 185 862 301 1010 478 1010 c 256
EndSplineSet
Substitution2: "smcpBasdecasseverspetitescapitalesdansLatinlookup0 subtable" uni021D.sc
EndChar

StartChar: uni0220
Encoding: 544 544 531
GlifName: uni0220
Width: 1338
VWidth: 0
GlyphClass: 2
Flags: HW
LayerCount: 2
Fore
SplineSet
1158 880 m 258
 1158 1260 967 1490 677 1490 c 256
 477 1490 305 1414 226 1150 c 257
 226 1480 l 257
 180 1480 l 257
 180 0 l 257
 226 0 l 257
 226 880 l 258
 226 1110 329 1448 669 1448 c 256
 1009 1448 1112 1110 1112 880 c 258
 1112 -440 l 257
 1158 -440 l 257
 1158 880 l 258
EndSplineSet
Substitution2: "c2sc_CapitalesverspetitescapitalesdansLatinlookup0 subtable" uni019E.sc
EndChar

StartChar: uni0221
Encoding: 545 545 532
GlifName: uni0221
Width: 1349
VWidth: 0
GlyphClass: 2
Flags: HW
LayerCount: 2
Fore
SplineSet
935 520 m 257
 935 856 735 1010 560 1010 c 256
 385 1010 185 856 185 520 c 256
 185 184 385 30 560 30 c 256
 735 30 935 184 935 520 c 257
927 260 m 257
 896 144 770 -10 560 -10 c 256
 313 -10 140 208 140 520 c 256
 140 832 313 1050 560 1050 c 256
 760 1050 896 896 927 780 c 257
 927 1480 l 257
 972 1480 l 257
 972 201 l 257
 972 101 1038 30 1138 30 c 256
 1238 30 1304 101 1304 201 c 256
 1304 301 1238 372 1138 372 c 256
 832 372 714 -178 714 -178 c 257
 674 -155 l 257
 674 -155 789 412 1139 412 c 256
 1259 412 1349 321 1349 201 c 256
 1349 81 1258 -10 1138 -10 c 256
 1018 -10 927 81 927 201 c 257
 927 260 l 257
EndSplineSet
Substitution2: "smcpBasdecasseverspetitescapitalesdansLatinlookup0 subtable" uni0221.sc
EndChar

StartChar: uni0223
Encoding: 547 547 533
GlifName: uni0223
Width: 1181
VWidth: 0
GlyphClass: 2
Flags: HW
LayerCount: 2
Fore
SplineSet
694 1448 m 257
 706 1490 l 257
 884 1452 1001 1311 1001 1126 c 256
 1001 903 837 790 728 776 c 257
 842 752 1041 633 1041 390 c 256
 1041 147 854 -10 590 -10 c 256
 327 -10 140 147 140 390 c 256
 140 633 339 752 453 776 c 257
 344 790 180 903 180 1126 c 256
 180 1311 297 1452 475 1490 c 257
 487 1448 l 257
 337 1412 226 1294 226 1122 c 256
 226 927 391 796 590 796 c 256
 790 796 955 927 955 1122 c 256
 955 1294 844 1412 694 1448 c 257
590 756 m 256
 405 756 186 627 186 394 c 256
 186 161 366 32 590 32 c 256
 815 32 995 161 995 394 c 256
 995 627 776 756 590 756 c 256
EndSplineSet
Substitution2: "smcpBasdecasseverspetitescapitalesdansLatinlookup0 subtable" uni0223.sc
EndChar

StartChar: uni0222
Encoding: 546 546 534
GlifName: uni0222
Width: 1258
VWidth: 0
GlyphClass: 2
Flags: HW
LayerCount: 2
Fore
SplineSet
178 1054 m 256
 178 884 364 794 449 781 c 257
 331 752 140 612 140 390 c 256
 140 177 311 -10 628 -10 c 256
 945 -10 1118 177 1118 390 c 256
 1118 612 926 752 807 781 c 257
 902 804 1079 907 1079 1126 c 256
 1079 1366 843 1491 668 1491 c 257
 668 1449 l 257
 863 1449 1034 1302 1034 1122 c 256
 1034 955 903 796 628 796 c 256
 353 796 224 939 224 1054 c 256
 224 1179 331 1302 589 1302 c 257
 589 1344 l 257
 326 1344 178 1214 178 1054 c 256
628 756 m 256
 913 756 1072 584 1072 394 c 256
 1072 204 913 32 628 32 c 256
 343 32 186 204 186 394 c 256
 186 584 343 756 628 756 c 256
EndSplineSet
Substitution2: "c2sc_CapitalesverspetitescapitalesdansLatinlookup0 subtable" uni0223.sc
EndChar

StartChar: uni0224
Encoding: 548 548 535
GlifName: uni0224
Width: 1178
VWidth: 0
GlyphClass: 2
Flags: HW
LayerCount: 2
Fore
SplineSet
716 -269 m 257
 720 -270 724 -270 728 -270 c 256
 883 -270 993 -155 993 0 c 257
 1038 0 l 257
 1038 -178 906 -310 728 -310 c 256
 724 -310 720 -310 716 -309 c 257
 716 -269 l 257
170 0 m 257
 140 38 l 257
 990 1480 l 257
 1020 1442 l 257
 170 0 l 257
164 42 m 257
 1038 42 l 257
 1038 0 l 257
 712 0 466 0 140 0 c 257
 140 38 l 257
 164 42 l 257
995 1438 m 257
 158 1438 l 257
 158 1480 l 257
 484 1480 694 1480 1020 1480 c 257
 1020 1442 l 257
 995 1438 l 257
EndSplineSet
Substitution2: "c2sc_CapitalesverspetitescapitalesdansLatinlookup0 subtable" uni0225.sc
EndChar

StartChar: uni0225
Encoding: 549 549 536
GlifName: uni0225
Width: 1012
VWidth: 0
GlyphClass: 2
Flags: HW
LayerCount: 2
Fore
SplineSet
510 -269 m 257
 514 -270 518 -270 522 -270 c 256
 677 -270 787 -155 787 0 c 257
 832 0 l 257
 832 -178 700 -310 522 -310 c 256
 518 -310 514 -310 510 -309 c 257
 510 -269 l 257
180 1040 m 257
 180 1000 l 257
 803 1000 l 257
 832 1008 l 257
 832 1040 l 257
 180 1040 l 257
832 40 m 257
 209 40 l 257
 180 32 l 257
 180 0 l 257
 832 0 l 257
 832 40 l 257
232 40 m 257
 832 1008 l 257
 780 1000 l 257
 180 32 l 257
 232 40 l 257
EndSplineSet
Substitution2: "smcpBasdecasseverspetitescapitalesdansLatinlookup0 subtable" uni0225.sc
EndChar

StartChar: uni0234
Encoding: 564 564 537
GlifName: uni0234
Width: 675
VWidth: 0
GlyphClass: 2
Flags: HW
LayerCount: 2
Fore
SplineSet
298 201 m 257
 298 101 364 30 464 30 c 256
 564 30 630 101 630 201 c 256
 630 301 564 372 464 372 c 256
 158 372 40 -178 40 -178 c 257
 0 -155 l 257
 0 -155 115 412 465 412 c 256
 585 412 675 321 675 201 c 256
 675 81 584 -10 464 -10 c 256
 344 -10 253 81 253 201 c 257
 253 298 l 257
 253 1480 l 257
 298 1480 l 257
 298 578 l 257
 298 201 l 257
EndSplineSet
Substitution2: "smcpBasdecasseverspetitescapitalesdansLatinlookup0 subtable" uni0234.sc
EndChar

StartChar: uni0235
Encoding: 565 565 538
GlifName: uni0235
Width: 1327
VWidth: 0
GlyphClass: 2
Flags: HW
LayerCount: 2
Fore
SplineSet
950 201 m 257
 950 101 1016 30 1116 30 c 256
 1216 30 1282 101 1282 201 c 256
 1282 301 1216 372 1116 372 c 256
 810 372 692 -178 692 -178 c 257
 652 -155 l 257
 652 -155 767 412 1117 412 c 256
 1237 412 1327 321 1327 201 c 256
 1327 81 1236 -10 1116 -10 c 256
 996 -10 905 81 905 201 c 257
 905 297 l 257
 905 572 l 258
 905 791 835 1010 565 1010 c 256
 295 1010 225 791 225 572 c 258
 225 0 l 257
 180 0 l 257
 180 1040 l 257
 225 1040 l 257
 225 820 l 257
 262 927 345 1050 575 1050 c 256
 813 1050 950 892 950 572 c 257
 950 201 l 257
EndSplineSet
Substitution2: "smcpBasdecasseverspetitescapitalesdansLatinlookup0 subtable" uni0235.sc
EndChar

StartChar: uni0236
Encoding: 566 566 539
GlifName: uni0236
Width: 772
VWidth: 0
GlyphClass: 2
Flags: HW
LayerCount: 2
Fore
SplineSet
368 434 m 257
 368 201 l 257
 368 101 434 30 534 30 c 256
 634 30 700 101 700 201 c 256
 700 301 634 372 534 372 c 256
 228 372 110 -178 110 -178 c 257
 70 -155 l 257
 70 -155 185 412 535 412 c 256
 655 412 745 321 745 201 c 256
 745 81 654 -10 534 -10 c 256
 414 -10 323 81 323 201 c 257
 323 292 l 257
 323 1000 l 257
 79 1000 l 257
 79 1040 l 257
 157 1040 l 257
 307 1040 323 1056 323 1206 c 257
 323 1320 l 257
 368 1320 l 257
 368 1040 l 257
 674 1040 l 257
 674 1000 l 257
 368 1000 l 257
 368 434 l 257
EndSplineSet
Substitution2: "smcpBasdecasseverspetitescapitalesdansLatinlookup0 subtable" uni0236.sc
EndChar

StartChar: uni0238
Encoding: 568 568 540
GlifName: uni0238
Width: 1899
VWidth: 0
GlyphClass: 2
Flags: HW
LayerCount: 2
Fore
SplineSet
929 520 m 257
 929 856 735 1010 560 1010 c 256
 385 1010 185 856 185 520 c 256
 185 184 385 30 560 30 c 256
 735 30 929 184 929 520 c 257
927 1480 m 257
 972 1480 l 257
 972 780 l 257
 1003 896 1139 1050 1339 1050 c 256
 1586 1050 1759 832 1759 520 c 256
 1759 208 1586 -10 1339 -10 c 256
 1129 -10 1003 144 972 260 c 257
 972 0 l 257
 927 0 l 257
 927 260 l 257
 896 144 770 -10 560 -10 c 256
 313 -10 140 208 140 520 c 256
 140 832 313 1050 560 1050 c 256
 760 1050 896 896 927 780 c 257
 927 1480 l 257
970 520 m 257
 970 184 1164 30 1339 30 c 256
 1514 30 1714 184 1714 520 c 256
 1714 856 1514 1010 1339 1010 c 256
 1164 1010 970 856 970 520 c 257
EndSplineSet
EndChar

StartChar: uni0239
Encoding: 569 569 541
GlifName: uni0239
Width: 1899
VWidth: 0
GlyphClass: 2
Flags: HW
LayerCount: 2
Fore
SplineSet
929 520 m 257
 929 184 735 30 560 30 c 256
 385 30 185 184 185 520 c 256
 185 856 385 1010 560 1010 c 256
 735 1010 929 856 929 520 c 257
927 -440 m 257
 972 -440 l 257
 972 260 l 257
 1003 144 1139 -10 1339 -10 c 256
 1586 -10 1759 208 1759 520 c 256
 1759 832 1586 1050 1339 1050 c 256
 1129 1050 1003 896 972 780 c 257
 972 1040 l 257
 927 1040 l 257
 927 780 l 257
 896 896 770 1050 560 1050 c 256
 313 1050 140 832 140 520 c 256
 140 208 313 -10 560 -10 c 256
 760 -10 896 144 927 260 c 257
 927 -440 l 257
970 520 m 257
 970 856 1164 1010 1339 1010 c 256
 1514 1010 1714 856 1714 520 c 256
 1714 184 1514 30 1339 30 c 256
 1164 30 970 184 970 520 c 257
EndSplineSet
EndChar

StartChar: uni0338
Encoding: 824 824 542
GlifName: uni0338
Width: 0
VWidth: 0
GlyphClass: 2
Flags: HW
LayerCount: 2
Fore
SplineSet
1126 1526 m 257
 1158 1502 l 257
 -28 -46 l 257
 -60 -22 l 257
 1126 1526 l 257
EndSplineSet
EndChar

StartChar: uni0337
Encoding: 823 823 543
GlifName: uni0337
Width: 0
VWidth: 0
GlyphClass: 2
Flags: HW
LayerCount: 2
Fore
SplineSet
1048 1086 m 257
 1079 1060 l 257
 230 -46 l 257
 199 -21 l 257
 1048 1086 l 257
EndSplineSet
EndChar

StartChar: uni023A
Encoding: 570 570 544
GlifName: uni023A_
Width: 1310
VWidth: 0
GlyphClass: 2
Flags: HW
LayerCount: 2
Fore
SplineSet
1232 1526 m 257
 1264 1502 l 257
 78 -46 l 257
 46 -22 l 257
 1232 1526 l 257
331 541 m 257
 987 541 l 257
 987 499 l 257
 331 499 l 257
 331 541 l 257
656 1408 m 257
 169 0 l 257
 120 0 l 257
 630 1480 l 257
 680 1480 l 257
 1190 0 l 257
 1141 0 l 257
 656 1408 l 257
EndSplineSet
EndChar

StartChar: uni023B
Encoding: 571 571 545
GlifName: uni023B_
Width: 1436
VWidth: 0
GlyphClass: 2
Flags: HW
LayerCount: 2
Fore
SplineSet
1334 1526 m 257
 1366 1502 l 257
 180 -46 l 257
 148 -22 l 257
 1334 1526 l 257
1256 1097 m 257
 1149 1332 940 1448 757 1448 c 256
 497 1448 186 1215 186 740 c 256
 186 265 497 32 757 32 c 256
 940 32 1149 148 1256 383 c 257
 1296 360 l 257
 1192 132 992 -10 757 -10 c 256
 409 -10 140 301 140 740 c 256
 140 1179 409 1490 757 1490 c 256
 992 1490 1192 1348 1296 1120 c 257
 1256 1097 l 257
EndSplineSet
Substitution2: "c2sc_CapitalesverspetitescapitalesdansLatinlookup0 subtable" uni023C.sc
EndChar

